SplineFontDB: 3.0
FontName: GoudyBookletter1911ItalicCondensed
FullName: GoudyBookletter1911Italic Condensed
FamilyName: GoudyBookletter1911ItalicCondensed
Weight: Condensed
Copyright: This font has been released into the public domain by its author, Barry Schwartz. This applies worldwide.\n\nIn some countries this may not be legally possible; if so:\n\nBarry Schwartz grants anyone the right to use this work for any purpose, without any conditions, unless such conditions are required by law.
Version: 2010.07.03
ItalicAngle: 0
UnderlinePosition: -90
UnderlineWidth: 45
Ascent: 737
Descent: 263
LayerCount: 2
Layer: 0 0 "Back"  1
Layer: 1 0 "Fore"  0
NeedsXUIDChange: 1
XUID: [1021 658 797806517 331928]
UniqueID: 4088483
FSType: 0
OS2Version: 3
OS2_WeightWidthSlopeOnly: 0
OS2_UseTypoMetrics: 1
CreationTime: 1199071125
ModificationTime: 1329137375
PfmFamily: 17
TTFWeight: 400
TTFWidth: 5
LineGap: 90
VLineGap: 0
Panose: 2 0 5 3 0 0 0 0 0 0
OS2TypoAscent: 0
OS2TypoAOffset: 1
OS2TypoDescent: 0
OS2TypoDOffset: 1
OS2TypoLinegap: 90
OS2WinAscent: 0
OS2WinAOffset: 1
OS2WinDescent: -1
OS2WinDOffset: 1
HheadAscent: 0
HheadAOffset: 1
HheadDescent: 1
HheadDOffset: 1
OS2SubXSize: 650
OS2SubYSize: 700
OS2SubXOff: 0
OS2SubYOff: 140
OS2SupXSize: 650
OS2SupYSize: 700
OS2SupXOff: 0
OS2SupYOff: 480
OS2StrikeYSize: 49
OS2StrikeYPos: 258
OS2Vendor: 'PfEd'
OS2CodePages: 00000092.0d940000
OS2UnicodeRanges: 8000002f.0000004a.00000000.00000000
Lookup: 1 0 0 "'ss01' Style Set 1 in Latin lookup 0"  {"'ss01' Style Set 1 in Latin lookup 0 subtable"  } ['aalt' ('DFLT' <'dflt' > 'latn' <'dflt' > ) 'ss01' ('DFLT' <'dflt' > 'latn' <'dflt' > ) ]

StartChar: .notdef
Encoding: 65536 -1 0
Width: 450
Flags: HW
HStem: 0 50<130 370> 441 50<130 370>
VStem: 90 40<50 441> 370 40<50 441>
LayerCount: 2
Fore
SplineSet
55.3691 0 m 1
 124.631 491 l 1
 444.631 491 l 1
 375.369 0 l 1
 55.3691 0 l 1
102.423 50 m 1
 342.423 50 l 1
 397.577 441 l 1
 157.577 441 l 1
 102.423 50 l 1
EndSplineSet
EndChar

StartChar: exclam
Encoding: 33 33 2
Width: 292
GlyphClass: 2
Flags: HW
HStem: -16 101<131.04 198.185>
VStem: 118.773 76.8<367.096 637.634> 123.573 82.4<-6.4071 75.7681> 133.973 25.6<195.064 282.718>
LayerCount: 2
Fore
SplineSet
236.239 674 m 0xc0
 243.439 674 243.252 667 240.571 648 c 2
 237.327 625 l 2xc0
 207.141 411 151.49 232 142.928 211 c 0
 140.482 205 135.071 195 127.071 195 c 0
 116.671 195 117.188 210 119.303 225 c 2
 121.7 242 l 1x90
 148.217 464 158.412 610 158.554 611 c 0
 160.526 625 165.092 629 172.196 634 c 0
 232.239 674 231.439 674 236.239 674 c 0xc0
130.755 85 m 0
 152.354 85 168.451 63 164.359 34 c 0
 160.552 7 139.707 -16 116.507 -16 c 0
 94.9072 -16 77.8691 5 82.1016 35 c 0xa0
 86.333 65 109.154 85 130.755 85 c 0
EndSplineSet
EndChar

StartChar: quotedbl
Encoding: 34 34 3
Width: 349
GlyphClass: 2
Flags: HW
HStem: 457 258
VStem: 69.1478 251.2
LayerCount: 2
Fore
SplineSet
176.944 715 m 0
 195.345 715 204.006 697 201.185 677 c 0
 198.928 661 190.834 649 184.483 638 c 0
 150.842 581 85.7256 471 82.7617 467 c 0
 77.915 461 72.5508 457 66.9512 457 c 0
 57.3506 457 52.5029 468 54.0537 479 c 2
 54.1953 480 l 2
 55.1826 487 56.124 488 126.646 659 c 0
 137.231 683 152.145 715 176.944 715 c 0
309.744 715 m 0
 327.345 715 336.006 697 333.185 677 c 0
 330.928 661 323.634 649 317.283 638 c 0
 282.842 581 218.526 471 214.763 467 c 0
 209.915 461 204.551 457 198.951 457 c 0
 189.351 457 184.502 468 186.055 479 c 2
 186.196 480 l 2
 187.183 487 188.124 488 259.445 659 c 0
 269.231 683 284.145 715 309.744 715 c 0
EndSplineSet
EndChar

StartChar: numbersign
Encoding: 35 35 4
Width: 496
GlyphClass: 2
Flags: HW
HStem: 157 45<98.0269 177.214 219.726 309.887 352.604 453.2> 353 45<98.0318 198.814 242.017 331.615 374.816 453.128>
VStem: 177.216 36<-3.6207 156.771> 206.016 36<398 553.952> 310.016 35.2<-10.2178 157> 316.416 36<202 347.564> 338.816 36<398 558.829>
LayerCount: 2
Fore
SplineSet
340.362 348 m 0xd4
 340.784 351 340.266 353 335.466 353 c 2
 251.466 353 l 2
 245.866 353 244.644 350 243.279 346 c 0
 231.99 300 209.177 212 208.472 207 c 0
 207.907 203 210.166 202 214.166 202 c 2
 295.766 202 l 2
 298.966 202 303.766 202 305.695 210 c 0
 331.142 311 339.093 339 340.362 348 c 0xd4
424.425 615 m 1
 430.025 615 l 2
 438.025 615 442.401 612 441.273 604 c 0
 439.862 594 392.73 413 391.319 403 c 0xd2
 390.897 400 391.415 398 394.614 398 c 2
 453.814 398 l 2
 465.814 398 467.886 390 465.347 372 c 0
 463.09 356 457.866 353 449.866 353 c 2
 381.066 353 l 2
 377.866 353 377.443 350 376.221 347 c 0
 364.932 301 341.978 212 341.412 208 c 0xc4
 340.849 204 342.166 202 346.166 202 c 2
 426.966 202 l 2
 435.766 202 440.942 199 438.264 180 c 0
 436.006 164 431.818 157 420.619 157 c 2
 337.419 157 l 2
 329.419 157 327.113 152 325.467 146 c 0
 280.358 -32 282.663 -27 279.417 -33 c 0
 275.088 -41 268.406 -43 260.406 -43 c 0
 248.406 -43 245.253 -37 246.381 -29 c 0
 247.368 -22 290.267 146 290.973 151 c 0
 291.677 156 288.619 157 285.419 157 c 2
 230.219 157 l 2
 197.419 157 195.677 156 193.89 149 c 0
 148.499 -31 149.581 -29 147.275 -34 c 0
 143.088 -41 138.006 -43 126.006 -43 c 0
 118.006 -43 111.229 -40 112.781 -29 c 0
 113.627 -23 157.326 145 158.031 150 c 0xe8
 158.736 155 156.619 157 151.818 157 c 2
 92.6182 157 l 2
 81.4189 157 80.9473 165 82.499 176 c 0
 84.8965 193 86.166 202 98.9668 202 c 2
 168.566 202 l 2
 170.166 202 170.966 202 171.248 204 c 0
 183.619 252 206.856 343 207.562 348 c 0
 208.126 352 205.866 353 202.666 353 c 2
 121.866 353 l 2
 113.066 353 107.89 356 110.57 375 c 0
 112.686 390 117.015 398 128.215 398 c 2
 214.614 398 l 2
 220.215 398 222.237 401 222.942 406 c 0
 273.273 604 271.392 602 274.496 607 c 0
 278.543 613 282.825 615 294.025 615 c 2
 294.825 615 l 2
 301.226 615 310.684 614 308.991 602 c 0
 308.004 595 259.366 409 258.52 403 c 0
 257.955 399 260.215 398 264.215 398 c 2
 347.415 398 l 2
 350.614 398 353.814 398 355.602 405 c 0xd2
 405.933 603 405.273 604 408.237 608 c 0
 412.283 614 418.825 615 422.025 615 c 2
 424.425 615 l 1
EndSplineSet
EndChar

StartChar: dollar
Encoding: 36 36 5
Width: 426
GlyphClass: 2
Flags: HW
HStem: 1 41<141.538 189.307> 599 39<152.491 189.301 222.908 252.532>
VStem: 53.3083 72.8<74.0898 178.771> 73.3083 46.4<446.429 562.384> 189.308 32.8<-96.9934 1.49219 48.8126 294.997 409.001 594.467 636.303 684.991> 306.108 56<101.123 239.657>
LayerCount: 2
Fore
SplineSet
374.739 531 m 0xdc
 371.213 506 355.733 487 335.733 487 c 0
 285.333 487 319.298 586 271.531 599 c 1
 269.932 599 l 2
 268.331 599 265.791 598 265.227 594 c 2
 240.682 420 l 2
 239.836 414 238.048 407 237.625 404 c 0
 234.804 384 244.827 387 271.512 372 c 0
 335.092 335 345.357 283 348.701 250 c 0
 350.681 230 350.118 209 347.296 189 c 0
 331.498 77 256.634 17 187.459 3 c 0
 180.777 1 180.213 -3 179.367 -9 c 2
 169.633 -78 l 2
 168.224 -88 163.754 -97 150.954 -97 c 0
 138.954 -97 136.082 -89 137.633 -78 c 2
 147.367 -9 l 2
 148.354 -2 147.177 1 141.577 1 c 0
 62.8008 4 23.1211 80 30.5977 133 c 0
 34.9697 164 55.1562 188 77.5557 188 c 0
 95.9561 188 108.758 171 104.667 142 c 0xec
 102.974 130 99.1641 120 97.3301 107 c 0
 89.9941 55 131.36 42 149.761 42 c 0
 152.16 42 153.902 43 154.325 46 c 2
 191.001 306 l 2
 192.411 316 190.293 318 185.635 319 c 0
 114.056 339 90.9414 419 100.11 484 c 0
 111.536 565 167.905 630 230.352 636 c 0
 235.292 637 237.833 638 238.681 644 c 2
 241.642 665 l 2
 242.629 672 245.263 685 260.463 685 c 2
 261.263 685 l 2
 274.862 685 276.653 675 275.242 665 c 2
 272.562 646 l 1
 272.28 644 l 2
 271.857 641 272.233 638 276.233 638 c 0
 345.224 628 380.664 573 374.739 531 c 0xdc
229.932 599 m 0
 216.331 599 158.783 571 149.331 504 c 0xdc
 139.316 433 198.33 409 201.53 409 c 0
 204.729 409 205.812 411 206.235 414 c 2
 216.815 489 l 1
 228.523 572 l 2
 232.05 597 232.331 599 229.932 599 c 0
227.85 295 m 0
 223.05 295 221.686 291 220.98 286 c 0
 203.911 165 194.647 105 190.416 75 c 0
 186.043 44 186.843 44 189.243 44 c 2
 190.843 44 l 2
 202.843 44 276.203 82 288.758 171 c 0
 301.171 259 236.65 295 227.85 295 c 0
EndSplineSet
EndChar

StartChar: percent
Encoding: 37 37 6
Width: 737
GlyphClass: 2
Flags: HW
HStem: -93 39<558.581 630.598> 170 38<200.181 272.198> 252 38<548.709 618.802> 515 38<190.386 260.402>
VStem: 114.56 48<264.374 459.62> 298.56 48<265.244 456.628> 472.96 48<2.06218 116 118 196.557> 656.96 48<2.68817 193.628>
LayerCount: 2
Fore
SplineSet
201.519 -123 m 0
 191.918 -123 182.647 -115 184.199 -104 c 0
 184.905 -99 186.928 -96 189.092 -92 c 0
 600.167 582 599.227 581 602.99 585 c 0
 607.837 591 614.802 595 622.802 595 c 0
 629.201 595 646.237 591 644.263 577 c 0
 643.697 573 641.533 569 639.511 566 c 0
 223.353 -110 225.376 -107 220.671 -112 c 0
 215.824 -118 209.519 -123 201.519 -123 c 0
264.316 515 m 0
 213.116 515 189.503 427 182.732 379 c 0
 176.948 338 174.98 256 199.409 225 c 0
 211.033 211 225.01 208 232.21 208 c 0
 279.41 208 297.238 272 302.601 293 c 0
 307.54 311 311.82 330 314.359 348 c 0
 325.361 426 313.116 515 264.316 515 c 0
280.877 553 m 0
 324.877 553 385.635 513 366.168 375 c 0
 349.1 254 288.449 170 215.649 170 c 0
 171.649 170 110.752 209 130.076 346 c 0
 149.544 484 216.877 553 280.877 553 c 0
585.617 252 m 0
 534.417 252 510.145 165 503.515 118 c 1
 504.033 116 l 1
 498.391 76 496.423 -6 520.85 -37 c 0
 532.334 -52 546.452 -54 553.652 -54 c 0
 600.852 -54 618.68 10 623.901 30 c 0
 628.841 48 633.121 67 635.801 86 c 0
 646.662 163 634.417 252 585.617 252 c 0
602.177 290 m 0
 646.177 290 706.936 250 687.469 112 c 0
 670.542 -8 609.75 -93 536.95 -93 c 0
 492.95 -93 432.052 -54 451.377 83 c 0
 470.844 221 538.177 290 602.177 290 c 0
EndSplineSet
EndChar

StartChar: ampersand
Encoding: 38 38 7
Width: 747
GlyphClass: 2
Flags: HW
HStem: -23 77<288.245 434.987> 154 35<399.42 459.642> 360 32<232.569 326.488> 384 62<190.714 225.258> 440 33<230.94 326.053> 645 56<206.742 284.551> 677 38<600.397 665.467>
VStem: 109.587 63.2<178.938 345.842> 131.987 35.2<460.076 594.439> 165.587 60.8<400.864 431.197> 327.987 28<395.011 436.183> 355.987 28.8<206.326 300.965> 459.987 42.4<191.42 247> 543.987 56<616.704 676.103> 554.387 26.4<156.893 293.79> 699.987 32.8<504.154 630.001>
LayerCount: 2
Fore
SplineSet
176.307 422 m 2xd249
 177.859 433 148.49 463 157.801 529 c 0
 170.497 619 247.663 701 322.063 701 c 0
 350.863 701 405.83 688 399.059 640 c 0
 395.392 614 374.311 595 356.711 595 c 0
 323.91 595 329.364 645 294.164 645 c 0
 260.564 645 203.157 601 193.001 529 c 0
 187.217 488 201.293 446 212.493 446 c 0xd489
 218.893 446 256.302 473 304.302 473 c 0
 343.502 473 370.799 451 366.003 417 c 0
 361.206 383 325.162 360 284.361 360 c 2
 283.562 360 l 2xe8a9
 239.562 360 215.747 384 210.146 384 c 0
 203.747 384 198.995 373 198.055 372 c 0
 179.141 340 166.862 304 161.783 268 c 0
 149.794 183 179.267 63 331.597 54 c 1
 345.997 54 l 2
 475.597 54 527.867 158 537.601 227 c 0xd12b
 547.052 294 521.729 347 471.328 347 c 0
 424.128 347 378.298 300 371.386 251 c 0
 366.871 219 381.039 189 409.039 189 c 0
 419.439 189 438.827 196 440.238 206 c 0
 441.79 217 423.203 210 414.023 230 c 0
 411.67 236 410.398 244 411.526 252 c 0
 414.207 271 429.405 288 447.805 288 c 0
 471.005 288 490.819 264 486.023 230 c 0
 480.521 191 445.703 154 406.504 154 c 0
 363.304 154 335.251 199 343.149 255 c 0
 350.627 308 387.279 358 439.511 388 c 0
 512.637 430 586.566 421 645.999 451 c 0
 682.277 470 722.979 509 731.584 570 c 0
 740.471 633 709.078 677 670.678 677 c 0
 663.478 677 646.396 675 645.408 668 c 0
 644.703 663 656.516 656 653.271 633 c 0
 650.168 611 633.889 592 614.688 592 c 0
 593.889 592 581.933 615 585.601 641 c 0xd21d
 591.666 684 629.638 715 666.438 715 c 0
 723.238 715 775.246 647 761.281 548 c 0
 746.046 440 656.314 354 566.433 352 c 0
 560.033 352 554.433 352 553.305 344 c 0
 552.317 337 574.438 301 564.705 232 c 2
 564.424 230 l 2
 545.521 96 421.535 -23 290.336 -23 c 0
 156.735 -23 75.168 102 95.3398 245 c 0xd30b
 110.15 350 169.392 407 173.579 414 c 0
 174.661 416 175.884 419 176.167 421 c 2
 176.307 422 l 2xd249
300.875 392 m 0xe869
 316.875 392 335.039 396 337.721 415 c 0
 339.131 425 335.646 440 306.847 440 c 0
 266.847 440 237.672 426 236.402 417 c 0
 235.979 414 237.297 412 237.955 411 c 0
 254.616 393 274.476 392 300.875 392 c 0xe869
EndSplineSet
EndChar

StartChar: quotesingle
Encoding: 39 39 8
Width: 201
GlyphClass: 2
Flags: HW
HStem: 457 258
VStem: 52.6594 119.2
LayerCount: 2
Fore
SplineSet
160.456 715 m 0
 178.856 715 187.517 697 184.696 677 c 0
 182.579 662 174.346 649 167.994 638 c 0
 134.354 581 69.2373 471 66.2734 467 c 0
 61.4268 461 56.0625 457 50.4629 457 c 0
 40.8623 457 36.0137 468 37.707 480 c 2
 37.8477 481 l 2
 38.6943 487 39.6348 488 110.157 659 c 0
 120.742 683 135.656 715 160.456 715 c 0
EndSplineSet
EndChar

StartChar: parenleft
Encoding: 40 40 9
Width: 333
GlyphClass: 2
Flags: HW
HStem: 698 20G<276.035 285.635>
VStem: 79.2345 60.8<116.498 405.186>
LayerCount: 2
Fore
SplineSet
234.531 -174 m 0
 232.839 -186 223.711 -194 214.91 -194 c 0
 207.711 -194 201.875 -190 197.121 -184 c 0
 104.732 -79 54.126 84 79.2344 262 c 0
 101.945 423 189.503 590 319.185 704 c 0
 326.43 710 335.559 718 345.158 718 c 0
 354.759 718 360.83 710 359.278 699 c 0
 357.586 687 349.257 679 344.693 675 c 0
 251.057 584 165.426 442 140.176 263 c 0
 117.323 101 150.328 -45 225.54 -147 c 0
 228.835 -152 236.366 -161 234.531 -174 c 0
EndSplineSet
EndChar

StartChar: parenright
Encoding: 41 41 10
Width: 319
GlyphClass: 2
Flags: HW
HStem: 702 20G<80.1714 88.1714>
VStem: 222.971 60.8<121.91 410.739>
LayerCount: 2
Fore
SplineSet
129.203 701 m 0
 131.038 714 140.166 722 148.966 722 c 0
 156.166 722 161.061 717 166.614 711 c 0
 259.003 606 308.81 443 283.701 265 c 0
 260.99 104 173.433 -63 43.752 -177 c 0
 36.5049 -183 27.377 -191 17.7764 -191 c 0
 8.97656 -191 2.10449 -183 3.79785 -171 c 0
 5.34961 -160 14.4785 -152 19.1826 -147 c 0
 112.82 -56 197.51 85 222.76 264 c 0
 245.753 427 213.406 572 138.336 675 c 0
 134.242 680 127.37 688 129.203 701 c 0
EndSplineSet
EndChar

StartChar: asterisk
Encoding: 42 42 11
Width: 301
GlyphClass: 2
Flags: HW
HStem: 448 21G<244.329 265.929> 497 109<118.445 142.327 191.929 214.537> 701 20G<160.729 179.929>
VStem: 136.729 62.4<389.462 485.336 613.573 717.469> 142.329 49.6<426.987 496.937 607.071 673.685>
LayerCount: 2
Fore
SplineSet
299.427 617 m 0xe8
 293.503 575 217.975 567 215.858 552 c 0
 213.319 534 287.529 544 279.488 487 c 0
 276.245 464 258.788 448 243.588 448 c 0
 215.588 448 199.063 501 190.264 501 c 0
 185.464 501 184.241 498 183.395 492 c 0xe8
 179.868 467 182.836 437 180.861 423 c 0
 176.487 392 149.76 384 141.76 384 c 0
 132.16 384 114.229 393 118.884 426 c 0xf0
 121.846 447 130.974 472 132.947 486 c 0xe8
 133.794 492 133.699 497 129.699 497 c 0
 116.899 497 85.8926 453 56.293 453 c 0
 36.293 453 34.6426 481 35.6299 488 c 0
 41.9775 533 116.047 542 118.586 560 c 0
 121.408 580 49.7383 571 57.2148 624 c 0
 60.1768 645 78.9521 659 92.5518 659 c 0
 118.952 659 128.275 606 147.476 606 c 0
 149.876 606 151.615 607 152.463 613 c 0
 154.155 625 150.765 652 154.149 676 c 0xf0
 159.087 711 176.497 721 192.497 721 c 0
 214.897 721 220.877 701 217.209 675 c 0
 213.259 647 199.285 616 198.299 609 c 0
 198.157 608 198.815 607 199.615 607 c 0
 210.016 607 245.729 656 273.729 656 c 0
 288.929 656 302.53 639 299.427 617 c 0xe8
EndSplineSet
EndChar

StartChar: plus
Encoding: 43 43 12
Width: 631
GlyphClass: 2
Flags: HW
HStem: 231 57<112.639 327.839 374.239 589.402>
VStem: 327.839 46.4<-38 231 288 556.954>
LayerCount: 2
Fore
SplineSet
127.019 231 m 2
 115.019 231 109.183 235 111.722 253 c 2
 113.557 266 l 2
 116.518 287 127.06 288 135.859 288 c 2
 331.859 288 l 1
 366.984 537 l 2
 368.817 550 373.005 557 385.805 557 c 2
 397.005 557 l 2
 414.604 557 414.229 543 412.537 531 c 2
 378.259 288 l 1
 577.459 288 l 2
 587.859 288 592.896 284 590.779 269 c 2
 588.805 255 l 2
 585.56 232 574.219 231 563.819 231 c 2
 370.219 231 l 1
 335.377 -16 l 2
 333.261 -31 328.273 -38 314.674 -38 c 2
 303.474 -38 l 2
 286.674 -38 287.565 -26 289.118 -15 c 2
 323.819 231 l 1
 127.019 231 l 2
EndSplineSet
EndChar

StartChar: comma
Encoding: 44 44 13
Width: 205
GlyphClass: 2
Flags: HW
HStem: -147 247<85.67 110.47>
VStem: 133.67 40.8<-86.0814 -11.7099>
LayerCount: 2
Fore
SplineSet
121.491 100 m 0
 159.091 100 184.697 49 175.669 -15 c 0
 163.115 -104 93.0488 -147 76.249 -147 c 0
 68.249 -147 61.8945 -141 63.4463 -130 c 0
 65.8447 -113 81.9863 -112 103.348 -91 c 0
 124.711 -70 129.509 -53 130.778 -44 c 0
 137.973 7 82.4453 -18 67.665 19 c 0
 64.6523 26 63.5225 35 64.9326 45 c 0
 69.4463 77 96.6914 100 121.491 100 c 0
EndSplineSet
EndChar

StartChar: hyphen
Encoding: 45 45 14
Width: 204
GlyphClass: 2
Flags: HW
HStem: 154 181
VStem: 32.2057 162.4
LayerCount: 2
Fore
SplineSet
194.572 335 m 0
 204.972 335 204.974 318 201.87 296 c 0
 200.037 283 192.649 276 183.521 268 c 0
 52.332 166 44.2393 154 33.8389 154 c 0
 21.8389 154 21.4141 168 23.1074 180 c 2
 25.082 194 l 2
 27.0576 208 29.8799 211 44.2314 222 c 0
 180.785 328 186.572 335 194.572 335 c 0
EndSplineSet
EndChar

StartChar: period
Encoding: 46 46 15
Width: 204
GlyphClass: 2
Flags: HW
HStem: -17 118<77.4243 149.857>
VStem: 65.9112 95.2<-2.99638 86.7526>
LayerCount: 2
Fore
SplineSet
121.434 101 m 0
 147.033 101 165.766 75 161.111 42 c 0
 156.738 11 132.789 -17 105.589 -17 c 0
 80.7881 -17 61.1152 8 66.0527 43 c 0
 70.9893 78 96.6338 101 121.434 101 c 0
EndSplineSet
EndChar

StartChar: slash
Encoding: 47 47 16
Width: 391
GlyphClass: 2
Flags: HW
LayerCount: 2
Fore
SplineSet
18.1377 -187 m 0
 11.7373 -187 -5.72168 -186 -3.8877 -173 c 0
 -3.18262 -168 -3.32324 -169 402.661 571 c 0
 405.767 576 408.731 580 415.931 580 c 0
 422.331 580 440.309 577 438.191 562 c 0
 437.347 556 435.464 554 255.124 234 c 1
 29.3838 -181 31.9248 -180 29.1016 -183 c 0
 25.4775 -186 22.1377 -187 18.1377 -187 c 0
EndSplineSet
EndChar

StartChar: zero
Encoding: 48 48 17
Width: 426
GlyphClass: 2
Flags: HW
HStem: -18 60<176.772 295.699> 385 55<174.197 294.356>
VStem: 56.3974 52.8<130.19 299.792> 361.997 49.6<126.916 295.427>
LayerCount: 2
Fore
SplineSet
267.101 440 m 0
 363.9 440 429.513 338 411.598 211 c 0
 393.824 85 299.294 -18 201.694 -18 c 0
 105.694 -18 38.2002 82 56.3975 211 c 0
 74.3125 338 169.501 440 267.101 440 c 0
258.542 385 m 0
 189.742 385 122.88 308 109.762 215 c 0
 96.3604 120 142.158 42 212.559 42 c 0
 276.559 42 347.609 109 361.997 211 c 0
 376.104 311 325.742 385 258.542 385 c 0
EndSplineSet
EndChar

StartChar: one
Encoding: 49 49 18
Width: 318
GlyphClass: 2
Flags: HW
HStem: -6 40<66.9061 141.991 203.321 288.46> 381 43<55.1397 142.101 202.901 274.093>
VStem: 142.101 60.8<39.854 381.18>
LayerCount: 2
Fore
SplineSet
195.206 421 m 0
 253.606 421 283.629 424 293.229 424 c 0
 302.829 424 303.301 416 301.326 402 c 0
 298.363 381 288.527 385 238.363 381 c 0
 228.623 380 226.318 375 224.907 365 c 2
 182.023 61 l 2
 180.332 49 181.603 41 193.462 40 c 0
 250.216 34 264.662 40 260.713 12 c 0
 259.16 1 253.373 -6 244.573 -6 c 0
 241.373 -6 199.019 0 146.219 0 c 0
 94.2197 0 50.9727 -6 47.7734 -6 c 0
 38.1729 -6 37.8428 3 39.5352 15 c 0
 41.6514 30 48.4746 33 56.6152 34 c 0
 113.462 40 117.557 35 120.801 58 c 2
 164.106 365 l 2
 165.94 378 161.423 380 154.363 381 c 0
 91.7275 385 78.7402 378 82.9727 408 c 0
 84.3828 418 89.2295 424 97.2295 424 c 0
 106.829 424 136.006 421 195.206 421 c 0
EndSplineSet
EndChar

StartChar: two
Encoding: 50 50 19
Width: 402
GlyphClass: 2
Flags: HW
HStem: -13 21G<94.1726 106.573> 0 58<197.14 311.523> 362 62<110.053 215.579>
VStem: 62.1726 28.8<265.197 333.097> 262.973 49.6<205.76 305.971> 353.373 24<119.161 154.717>
LayerCount: 2
Fore
SplineSet
72.1504 -13 m 0xbc
 54.5508 -13 52.2441 -1 53.2314 6 c 0
 55.7705 24 69.8877 22 125.318 69 c 0
 167.195 105 206.58 146 241.868 192 c 0
 250.761 204 265.582 224 269.25 250 c 0
 278.278 314 225.849 362 179.448 362 c 0
 137.849 362 109.57 326 103.033 291 c 0
 101.482 280 98.5654 265 87.3652 265 c 2
 86.5654 265 l 2
 80.166 265 71.5527 272 75.6436 301 c 0
 85.8008 373 140.194 424 203.395 424 c 0
 276.194 424 334.931 364 322.799 278 c 0
 311.373 197 247.002 149 178.683 73 c 0
 176.658 70 174.776 68 174.494 66 c 0
 173.931 62 174.966 58 182.166 58 c 0
 183.767 58 220.849 60 241.13 62 c 0
 275.153 65 308.563 75 344.838 145 c 0
 347.144 150 350.249 155 355.85 155 c 0
 357.449 155 370.107 154 368.556 143 c 0
 367.851 138 368.133 140 320.9 15 c 0
 314.644 -1 307.726 1 295.585 0 c 0x7c
 220.621 -4 79.3506 -13 72.1504 -13 c 0xbc
EndSplineSet
EndChar

StartChar: three
Encoding: 51 51 20
Width: 319
GlyphClass: 2
Flags: HW
HStem: -182 43<139.261 222.348> 370 73<82.3404 169.795>
VStem: 51.859 28<298.009 363.51> 195.059 7.2<180 273> 259.059 43.2<-79.2107 66.58>
LayerCount: 2
Fore
SplineSet
170.342 443 m 0
 202.342 443 288.085 410 276.236 326 c 0
 267.773 266 209.946 185 209.242 180 c 0
 207.549 168 229.195 174 259.269 149 c 0
 277.952 134 298.38 103 288.788 35 c 0
 284.414 4 268.235 -71 232.946 -117 c 0
 198.457 -163 144.576 -182 101.377 -182 c 0
 37.377 -182 16.4297 -132 19.6748 -109 c 0
 23.0605 -85 42.918 -69 60.5176 -69 c 0
 101.317 -69 83.4424 -139 148.242 -139 c 0
 202.643 -139 230.635 -71 239.24 -10 c 0
 247.985 52 236.12 104 157.721 104 c 0
 138.521 104 131.839 102 125.438 102 c 0
 115.839 102 112.968 110 113.673 115 c 0
 115.083 125 119.602 123 146.75 151 c 0
 177.665 183 208.248 224 215.16 273 c 0
 220.098 308 214.443 370 155.243 370 c 0
 117.643 370 110.822 350 108.283 332 c 0
 107.014 323 106.402 313 106.121 311 c 0
 104.71 301 93.0869 298 89.8867 298 c 0
 81.0869 298 76.7568 307 81.2705 339 c 0
 88.7461 392 121.541 443 170.342 443 c 0
EndSplineSet
EndChar

StartChar: four
Encoding: 52 52 21
Width: 398
GlyphClass: 2
Flags: HW
HStem: 0 74<305.191 366.654> 0 66<128.367 257.167> 409 20G<291.967 297.167>
VStem: 257.167 48<-186 -1.19998e-07 74.157 299.997>
LayerCount: 2
Fore
SplineSet
56.0273 0 m 2x70
 49.6279 0 42.71 2 44.4023 14 c 0
 46.0957 26 55.5059 36 62.5166 46 c 0
 323.273 420 317.204 411 324.074 420 c 0
 327.979 425 332.543 429 338.144 429 c 0
 342.943 429 348.919 426 346.805 411 c 2
 300.018 85 l 2
 299.03 78 300.065 74 306.466 74 c 2
 319.266 74 l 2
 343.266 74 346.749 76 353.149 76 c 0
 365.149 76 368.443 71 367.314 63 c 0
 367.032 61 354.097 9 350.191 4 c 0
 347.369 1 344.827 0 340.027 0 c 2
 295.228 0 l 2xb0
 291.228 0 287.887 -1 287.04 -7 c 2
 263.483 -174 l 2
 262.354 -182 260.99 -186 253.79 -186 c 2
 221.79 -186 l 2
 214.59 -186 214.495 -181 215.483 -174 c 2
 238.617 -10 l 2
 239.464 -4 239.228 0 233.627 0 c 2
 56.0273 0 l 2x70
241.338 66 m 2x70
 247.738 66 250.325 73 251.172 79 c 2
 281.217 292 l 2
 281.782 296 281.547 300 278.347 300 c 0
 275.146 300 273.923 297 272.982 296 c 0
 121.666 74 121.666 74 121.243 71 c 0
 120.961 69 121.338 66 125.338 66 c 2
 241.338 66 l 2x70
EndSplineSet
EndChar

StartChar: five
Encoding: 53 53 22
Width: 349
GlyphClass: 2
Flags: HW
HStem: 191 66<123.284 181.087> 299 88<217.133 292.22> 347 88<135.784 197.764>
VStem: 232.776 48.8<-40.5996 120.982>
LayerCount: 2
Fore
SplineSet
157.631 257 m 2xb0
 230.431 257 290.394 183 273.184 61 c 0
 264.86 2 239.784 -51 214.564 -88 c 0
 177.207 -143 112.412 -194 91.6123 -194 c 0
 85.2119 -194 78.7178 -189 80.1289 -179 c 0
 83.2314 -157 125.772 -156 175.553 -81 c 0
 194.984 -51 214.367 -10 221.139 38 c 0
 234.681 134 189.121 191 136.321 191 c 0
 113.921 191 98.9111 181 94.1104 181 c 0
 86.9111 181 84.6982 188 85.8262 196 c 0
 86.8135 203 167.965 421 168.105 422 c 0
 170.411 427 175.54 435 183.54 435 c 0xb0
 193.141 435 298.369 387 310.369 387 c 0
 324.77 387 343.447 423 350.035 430 c 0
 353.659 433 356.059 433 356.858 433 c 0
 361.659 433 368.953 428 367.684 419 c 0
 367.119 415 367.26 416 315.508 310 c 0
 313.062 304 309.956 299 303.557 299 c 0xd0
 293.956 299 186.186 346 179.927 347 c 1
 179.127 347 l 2
 170.327 347 168.916 337 143.982 268 c 0
 143.842 267 142.76 265 142.478 263 c 0
 142.195 261 143.23 257 147.23 257 c 2
 157.631 257 l 2xb0
EndSplineSet
EndChar

StartChar: six
Encoding: 54 54 23
Width: 434
GlyphClass: 2
Flags: HW
HStem: -28 40<198.153 300.955> 365 36<167.454 258.56>
VStem: 74.4042 51.2<112.246 315.477> 342.404 61.6<76.1476 246.159>
LayerCount: 2
Fore
SplineSet
319.976 142 m 0
 332.389 230 309.032 365 217.032 365 c 0
 151.433 365 123.206 284 113.755 217 c 0
 96.9688 98 142.437 12 209.637 12 c 0
 260.837 12 308.55 61 319.976 142 c 0
225.311 401 m 0
 329.311 401 404.286 303 385.384 169 c 0
 370.432 63 296.795 -28 205.595 -28 c 0
 118.395 -28 40.8311 63 63.9658 227 c 0
 90.9082 418 236.254 592 401.473 629 c 0
 403.214 630 404.813 630 407.214 630 c 0
 417.613 630 421.238 616 419.969 607 c 0
 418.418 596 410.653 592 404.63 589 c 0
 320.916 557 241.487 493 181.451 402 c 0
 181.311 401 180.369 400 180.229 399 c 0
 179.946 397 181.405 396 183.005 396 c 0
 183.805 396 202.91 401 225.311 401 c 0
EndSplineSet
EndChar

StartChar: seven
Encoding: 55 55 24
Width: 413
GlyphClass: 2
Flags: HW
HStem: 330 82<126.438 228.425> 337 75<143.283 332.444>
VStem: 81.2446 26.4<217.026 286.324> 96.4446 31.2<412 469.92>
LayerCount: 2
Fore
SplineSet
107.752 217 m 0xa0
 103.752 217 94.5752 220 96.4082 233 c 0xa0
 97.6777 242 123.691 330 142.36 451 c 0
 143.912 462 147.44 470 159.44 470 c 0
 172.24 470 168.948 458 169.752 424 c 0
 169.8 413 173.659 412 179.259 412 c 2x90
 420.859 412 l 2
 430.459 412 438.035 409 435.92 394 c 2
 435.779 393 l 2
 434.792 386 433.851 385 364.27 215 c 0
 188.648 -219 206.672 -216 187.19 -218 c 0
 182.249 -219 176.648 -219 171.849 -219 c 2
 171.049 -219 l 1
 166.249 -219 l 2
 153.448 -219 143.99 -218 145.824 -205 c 0
 146.67 -199 146.528 -200 281.174 125 c 1
 333.442 246 358.001 301 358.988 308 c 0
 361.669 327 347.691 330 338.373 332 c 0
 312.396 335 287.079 337 259.879 337 c 0x50
 225.479 337 180.915 333 171.691 330 c 0
 155.928 326 156.822 321 122.668 232 c 0
 120.221 226 116.552 217 107.752 217 c 0xa0
EndSplineSet
EndChar

StartChar: eight
Encoding: 56 56 25
Width: 397
GlyphClass: 2
Flags: HW
HStem: -22 47<156.599 272.551> 308 58<180.568 221.318> 621 47<152.664 244.523>
VStem: 52.3929 59.2<81.6211 226.516> 65.9929 55.2<439.759 579.141> 279.593 59.2<442.856 574.658> 313.193 66.4<85.8585 202.16>
LayerCount: 2
Fore
SplineSet
148.136 514 m 0xec
 134.171 415 207.259 366 226.459 366 c 0
 231.259 366 234.882 369 238.646 373 c 0
 270.219 404 297.648 451 304.984 503 c 0
 313.871 566 288.029 621 240.029 621 c 2
 239.229 621 l 1
 195.888 620 156.317 572 148.136 514 c 0xec
173.556 25 m 0
 225.556 25 277.786 72 286.814 136 c 0
 296.266 203 253.388 262 195.03 302 c 0
 191.454 305 187.877 308 183.877 308 c 0
 172.677 308 99.7441 239 87.3301 151 c 0xf2
 76.751 76 118.356 25 173.556 25 c 0
158.127 -22 m 0
 71.7266 -22 15.2939 60 28.4121 153 c 0xf2
 36.7354 212 69.1543 249 101.104 277 c 0
 154.793 323 155.451 322 156.017 326 c 0
 156.299 328 154.98 330 152.862 332 c 0
 111.305 372 81.6504 434 91.2432 502 c 0
 102.387 581 171.459 668 255.459 668 c 0
 324.26 668 380.83 621 367.428 526 c 0xec
 357.836 458 312.385 391 258.789 357 c 0
 257.047 356 255.966 354 255.684 352 c 0
 255.401 350 256.861 349 257.52 348 c 0
 325.994 306 367.32 236 356.741 161 c 0
 343.058 64 248.526 -22 158.127 -22 c 0
EndSplineSet
EndChar

StartChar: nine
Encoding: 57 57 26
Width: 460
GlyphClass: 2
Flags: HW
HStem: -5 39<221.234 335.424> 383 45<177.326 289.438>
VStem: 79.3663 58.4<148.813 316.685> 369.766 61.6<81.1 269.826>
LayerCount: 2
Fore
SplineSet
157.727 250 m 0
 144.184 154 176.057 34 270.457 34 c 0
 322.457 34 344.431 65 360.473 105 c 0
 369.316 128 375.902 152 379.288 176 c 0
 395.511 291 341.287 383 269.287 383 c 0
 227.688 383 171.269 346 157.727 250 c 0
257.756 -5 m 0
 149.756 -5 78.7314 104 96.082 227 c 0
 112.304 342 200.436 428 289.236 428 c 0
 390.036 428 460.918 318 440.747 175 c 0
 419.447 24 296.549 -144 133.685 -204 c 0
 121.12 -208 112.696 -211 107.896 -211 c 0
 95.8965 -211 95.2363 -193 96.083 -187 c 0
 97.4932 -177 103.658 -173 112.08 -170 c 0
 244.593 -121 325.803 1 326.366 5 c 0
 326.648 7 325.989 8 324.39 8 c 0
 322.789 8 292.156 -5 257.756 -5 c 0
EndSplineSet
EndChar

StartChar: colon
Encoding: 58 58 27
Width: 207
GlyphClass: 2
Flags: HW
HStem: -17 118<88.0957 160.636> 293 118<88.0957 160.636>
VStem: 76.908 95.2<-2.99638 86.7526 307.004 396.622>
LayerCount: 2
Fore
SplineSet
154.295 411 m 0
 179.896 411 198.627 385 193.973 352 c 0
 189.6 321 164.851 293 137.65 293 c 0
 112.851 293 93.9766 318 98.9131 353 c 0
 103.71 387 129.495 411 154.295 411 c 0
110.565 101 m 0
 136.166 101 154.898 75 150.243 42 c 0
 145.87 11 121.121 -17 93.9209 -17 c 0
 69.1201 -17 50.2471 8 55.1846 43 c 0
 60.1221 78 85.7656 101 110.565 101 c 0
EndSplineSet
EndChar

StartChar: semicolon
Encoding: 59 59 28
Width: 208
GlyphClass: 2
Flags: HW
HStem: 293 118<90.1067 162.647>
VStem: 78.919 95.2<307.004 396.622> 155.719 40.8<-85.0525 -12.0097>
LayerCount: 2
Fore
SplineSet
121.604 100 m 0xa0
 159.205 100 184.811 49 175.783 -15 c 0
 163.229 -104 93.1631 -147 75.5625 -147 c 0
 68.3623 -147 62.0088 -141 63.5615 -130 c 0
 65.959 -113 82.1006 -112 103.462 -91 c 0
 124.024 -70 129.623 -53 130.893 -44 c 2
 131.033 -43 l 1
 137.286 7 82.5596 -18 67.7793 19 c 1
 63.9668 26 63.6357 35 65.0459 45 c 0
 69.5605 77 96.8047 100 121.604 100 c 0xa0
165.475 411 m 0
 191.075 411 209.807 385 205.152 352 c 0
 200.78 321 176.03 293 148.83 293 c 0
 124.03 293 105.156 318 110.094 353 c 0xc0
 114.89 387 140.675 411 165.475 411 c 0
EndSplineSet
EndChar

StartChar: less
Encoding: 60 60 29
Width: 607
GlyphClass: 2
Flags: HW
LayerCount: 2
Fore
SplineSet
113.177 249 m 2
 114.729 260 123.292 264 130.116 267 c 0
 573.718 457 573.06 458 579.459 458 c 0
 589.06 458 596.307 447 592.498 420 c 0
 590.806 408 582.9 403 574.477 400 c 2
 198.966 239 l 1
 533.715 77 l 2
 539.691 74 542.985 69 541.716 60 c 0
 540.306 50 531.696 23 513.296 23 c 0
 506.896 23 509.296 23 121.558 212 c 0
 114.78 215 108.944 219 110.496 230 c 2
 113.177 249 l 2
EndSplineSet
EndChar

StartChar: equal
Encoding: 61 61 30
Width: 631
GlyphClass: 2
Flags: HW
HStem: 156 58<113.428 589.391> 305 58<112.628 588.525>
LayerCount: 2
Fore
SplineSet
137.445 305 m 2
 125.445 305 119.61 309 122.149 327 c 2
 124.125 341 l 2
 127.086 362 136.828 363 145.628 363 c 2
 587.228 363 l 2
 597.628 363 602.664 359 600.407 343 c 2
 598.572 330 l 2
 595.328 307 583.846 305 574.245 305 c 2
 137.445 305 l 2
116.428 156 m 2
 104.428 156 99.5332 161 101.931 178 c 2
 103.906 192 l 2
 106.868 213 116.609 214 125.41 214 c 2
 567.01 214 l 2
 577.41 214 582.444 210 580.188 194 c 2
 578.213 180 l 2
 574.97 157 563.628 156 554.027 156 c 2
 116.428 156 l 2
EndSplineSet
EndChar

StartChar: greater
Encoding: 62 62 31
Width: 601
GlyphClass: 2
Flags: HW
LayerCount: 2
Fore
SplineSet
562.237 249 m 2
 559.557 230 l 2
 558.005 219 551.041 215 543.418 212 c 0
 104.099 24 103.957 23 98.3564 23 c 0
 79.957 23 78.9658 50 80.376 60 c 0
 81.6455 69 86.3516 74 93.1748 77 c 2
 473.626 239 l 1
 143.537 400 l 2
 135.961 403 129.466 408 131.158 420 c 0
 134.967 447 145.319 458 154.92 458 c 0
 161.319 458 160.378 457 550.377 267 c 0
 556.354 264 563.788 260 562.237 249 c 2
EndSplineSet
EndChar

StartChar: question
Encoding: 63 63 32
Width: 346
GlyphClass: 2
Flags: HW
HStem: -17 118<132.861 205.876> 577 103<67.7025 118.193> 651 38<138.373 213.503>
VStem: 121.348 96<-2.99638 86.7526> 137.348 41.6<192.704 327.862> 243.748 68<470.93 612.194>
LayerCount: 2
Fore
SplineSet
136.198 101 m 0x94
 161.798 101 180.531 75 175.876 42 c 0
 171.502 11 146.753 -17 119.553 -17 c 0
 94.7529 -17 75.0801 8 80.0166 43 c 0
 84.9541 78 111.398 101 136.198 101 c 0x94
219.942 689 m 0xac
 322.342 689 349.129 601 340.807 542 c 0
 323.174 417 186.564 390 166.816 250 c 0
 165.547 241 165.501 235 164.514 228 c 0
 160.704 201 146.635 192 138.635 192 c 0
 129.835 192 118.163 200 124.793 247 c 0
 143.271 378 257.29 432 273.512 547 c 0
 281.553 604 257.782 651 218.582 651 c 0xac
 167.382 651 161.744 577 121.744 577 c 0
 102.544 577 90.9648 597 94.3496 621 c 0
 96.043 633 103.239 667 153.872 680 c 0xcc
 175.52 686 198.342 689 219.942 689 c 0xac
EndSplineSet
EndChar

StartChar: at
Encoding: 64 64 33
Width: 896
GlyphClass: 2
Flags: HW
HStem: -176 38<406.568 584.529> -14 66<402.105 468.2> -8 46<578.25 666.644> 363 33<523.913 574.02> 409 20G<611.315 617.315> 572 39<437.149 617.703>
VStem: 166.515 65.6<70.9096 316.808> 337.715 59.2<57.2769 161.388> 755.315 33.6<176.781 411.103>
LayerCount: 2
Fore
SplineSet
635.419 -71 m 0xbf80
 639.419 -71 644.596 -74 643.326 -83 c 0
 639.94 -107 571.663 -143 537.028 -156 c 0
 499.854 -170 463.007 -176 426.207 -176 c 2
 425.407 -176 l 1
 251.148 -175 130.051 -41 162.071 186 c 2
 162.213 187 l 2
 175.896 284 228.158 456 404.006 557 c 0
 451.015 584 515.623 611 585.223 611 c 0
 742.023 611 824.393 469 799.988 296 c 0
 776.008 126 663.506 -8 569.905 -8 c 0xbf80
 493.105 -8 505.144 66 499.544 66 c 0
 497.943 66 496.862 64 494.979 62 c 0
 466.701 26 421.859 -14 379.46 -14 c 0xdf80
 338.66 -14 310.561 25 318.742 83 c 0
 331.861 176 452.879 325 521.108 372 c 0
 541.483 386 562.895 396 584.495 396 c 0
 598.895 396 603.271 393 607.271 393 c 0
 617.671 393 625.339 419 631.785 425 c 0
 635.408 428 639.55 429 642.749 429 c 0
 651.55 429 660.303 423 658.752 412 c 0
 656.776 398 613.398 306 563.066 125 c 0
 560.197 116 555.54 100 553.564 86 c 0
 548.205 48 569.195 38 585.195 38 c 0
 617.995 38 667.686 67 699.633 112 c 0
 732.522 158 757.078 230 766.952 300 c 2
 767.094 301 l 2
 792.062 478 702.922 572 580.521 572 c 0
 425.321 572 261.386 425 229.364 198 c 0
 201.857 3 287.567 -138 445.967 -138 c 0
 523.567 -138 590.623 -105 618.949 -80 c 0
 623.372 -77 629.819 -71 635.419 -71 c 0xbf80
584.829 353 m 0
 585.675 359 583.039 363 577.439 363 c 0
 547.839 363 457.119 287 400.286 162 c 0
 391.205 143 383.443 122 380.622 102 c 0
 374.979 62 393.569 52 407.169 52 c 0xdf80
 423.169 52 464.108 70 493.045 105 c 0
 508.385 123 510.926 124 515.441 139 c 0
 584.547 351 584.266 349 584.829 353 c 0
EndSplineSet
EndChar

StartChar: A
Encoding: 65 65 34
Width: 727
GlyphClass: 2
Flags: HW
HStem: -6 51<78.5694 148.323 218.315 285.428 505.931 568.398> 300 52<309.208 485.204>
VStem: 568.407 156<9.5 73>
DStem2: 159.607 93 287.607 288 0.33282 0.94299<10.8452 256.855 307.001 496.836> 458.807 668 414.807 565 0.321903 -0.946773<60.8798 288.443 343.161 591.615>
LayerCount: 2
Fore
SplineSet
131.035 0 m 0
 83.835 0 46.1885 -6 43.7891 -6 c 0
 30.9893 -6 29.6221 7 30.751 15 c 0
 34.5596 42 46.4189 41 70.9834 45 c 0
 97.1475 49 106.558 59 123.354 93 c 0
 176.848 200 232.741 307 290.894 413 c 1
 451.096 698 444.086 688 455.096 698 c 0
 461.401 703 468.225 706 475.425 706 c 0
 496.225 706 501.875 678 503.664 668 c 2
 572.031 336 l 1
 621.851 71 619.496 77 623.027 68 c 0
 637.809 31 676.111 53 677.526 29 c 0
 677.762 25 677.574 18 677.292 16 c 0
 675.458 3 668.589 -6 658.189 -6 c 0
 654.989 -6 615.835 0 567.035 0 c 0
 509.435 0 480.589 -6 470.989 -6 c 0
 459.789 -6 455.977 1 457.388 11 c 0
 461.76 42 470.137 39 509.384 45 c 0
 513.523 46 525.665 47 528.062 64 c 0
 530.602 82 518.589 201 499.942 290 c 0
 498.014 299 494.154 300 486.954 300 c 2
 298.954 300 l 2
 290.154 300 285.213 299 278.86 288 c 0
 226.823 197 181.613 92 178.792 72 c 0
 174.842 44 191.783 45 224.678 40 c 0
 231.736 39 241.714 36 238.892 16 c 0
 237.058 3 228.589 -6 218.189 -6 c 0
 209.39 -6 183.835 0 131.035 0 c 0
478.289 352 m 2
 482.289 352 485.63 353 486.477 359 c 0
 487.888 369 453.75 541 445.135 565 c 0
 443.44 570 441.323 572 437.323 572 c 0
 430.123 572 423.912 562 419.725 555 c 0
 353.762 439 310.899 362 310.054 356 c 0
 309.771 354 311.089 352 314.289 352 c 2
 478.289 352 l 2
EndSplineSet
EndChar

StartChar: B
Encoding: 66 66 35
Width: 499
GlyphClass: 2
Flags: HMW
HStem: -6 47<62.5171 123.815 194.511 334.093> 355 43<192.667 326.373> 651 44<194.877 321.074>
VStem: 123.867 68.8<46.989 355 398 639.812> 370.267 71.2<461.932 592.593> 406.267 71.2<121.063 282.491>
LayerCount: 2
Fore
SplineSet
168.84 686 m 0xf4
 217.64 686 261.31 695 309.31 695 c 0
 342.109 695 399.945 691 436.467 655 c 0
 456.705 634 476.661 594 469.045 540 c 0xf8
 460.157 477 418.377 419 371.32 386 c 0
 370.381 385 369.439 384 369.298 383 c 0
 369.156 382 369.815 381 371.275 380 c 0
 430.758 365 470.483 295 457.931 206 c 0
 444.388 110 380.537 43 329.67 17 c 0
 320.164 12 288.024 -6 230.425 -6 c 0
 193.625 -6 158.471 0 121.671 0 c 0
 93.6709 0 66.1885 -2 30.1885 -2 c 2
 28.5889 -2 l 2
 20.5889 -2 13.5303 -1 16.7744 22 c 0
 19.4541 41 29.7139 40 64.8193 45 c 0
 73.9014 47 82.042 48 84.4404 65 c 2
 161.601 612 l 2
 165.55 640 151.292 641 124.515 644 c 0
 116.515 644 110.68 648 113.642 669 c 0
 115.192 680 120.98 687 130.581 687 c 0
 133.78 687 145.64 686 168.84 686 c 0xf4
394.883 519 m 0
 401.652 567 389.502 651 295.902 651 c 0
 279.902 651 247.479 648 238.351 640 c 0
 233.786 636 233.081 631 232.517 627 c 2
 232.235 625 l 1
 202.048 411 l 2
 200.919 403 201.015 398 208.214 398 c 2
 244.214 398 l 1
 254.614 398 l 2
 286.614 398 341.438 401 375.643 462 c 0
 385.382 480 392.061 499 394.883 519 c 0
211.454 41 m 0
 290.654 41 371.214 96 386.024 201 c 0xf4
 394.348 260 379.422 330 312.502 349 c 0
 291.749 355 268.549 355 246.148 355 c 2
 205.349 355 l 2
 194.948 355 193.161 348 192.032 340 c 2
 155.639 82 l 2
 153.24 65 151.924 50 174.419 45 c 0
 186.138 43 198.654 41 211.454 41 c 0
EndSplineSet
EndChar

StartChar: C
Encoding: 67 67 36
Width: 630
GlyphClass: 2
Flags: HW
HStem: -24 51<307.77 470.341> 439 21G<573.904 591.104> 650 46<297.366 459.829>
VStem: 85.904 76.8<225.341 451.697> 561.104 39.2<439.285 545.701>
LayerCount: 2
Fore
SplineSet
165.243 354 m 0
 139.288 170 219.116 27 343.916 27 c 0
 435.916 27 533.978 104 580.505 224 c 0
 581.729 227 584.739 237 594.339 237 c 0
 599.939 237 606.716 234 605.587 226 c 1
 605.587 226 565.981 70 562.594 63 c 1
 557.278 48 546.737 47 542.737 47 c 2
 541.937 47 l 1
 519.537 47 l 2
 500.337 47 497.608 39 478.976 26 c 0
 422.556 -11 368.722 -24 323.922 -24 c 0
 249.521 -24 180.482 14 136.051 79 c 0
 90.9609 145 72.3623 240 85.7627 335 c 0
 100.011 436 150.211 531 211.098 594 c 0
 274.666 659 355.087 696 429.486 696 c 2
 430.286 696 l 2
 527.087 696 569.211 643 579.61 643 c 0
 593.211 643 591.983 674 607.888 679 c 0
 610.288 679 615.229 680 616.829 680 c 0
 624.829 680 625.583 674 625.537 668 c 0
 625.396 667 618.643 466 617.231 456 c 0
 616.244 449 612.434 439 598.834 439 c 0
 578.033 439 580.621 446 582.264 486 c 0
 582.872 513 581.929 529 570.773 552 c 0
 545.309 604 494.998 650 421.396 650 c 0
 311.797 650 191.339 539 165.243 354 c 0
EndSplineSet
EndChar

StartChar: D
Encoding: 68 68 37
Width: 632
GlyphClass: 2
Flags: HW
HStem: 0 48<73.8558 152.886 229.826 400.274> 633 42<74.3515 151.979 226.194 380.068>
VStem: 154.344 71.2<58.0293 626.875> 541.544 80<233.039 436.012>
LayerCount: 2
Fore
SplineSet
264.706 48 m 0
 381.506 48 513.543 139 538.511 316 c 0
 552.054 412 533.36 512 478.481 571 c 1
 432.453 619 370.427 633 320.827 633 c 0
 274.427 633 266.382 627 262.855 602 c 2
 191.055 93 l 2
 187.527 68 194.259 59 214.354 54 c 0
 230.589 50 247.106 48 264.706 48 c 0
118.99 654 m 0
 121.67 673 132.353 675 139.553 675 c 2
 285.152 675 l 2
 363.553 675 445.528 672 510.945 631 c 0
 583.656 585 642.351 485 622.32 343 c 0
 597.352 166 460.85 32 342.782 6 c 0
 318.877 1 294.735 0 270.735 0 c 2
 44.335 0 l 2
 37.1357 0 26.2178 2 29.8857 28 c 0
 33.4121 53 49.6475 49 92.4707 52 c 0
 111.012 53 116.046 66 119.149 88 c 2
 190.526 594 l 2
 196.027 633 177.063 629 130.146 631 c 0
 118.146 631 117.015 640 118.99 654 c 0
EndSplineSet
EndChar

StartChar: E
Encoding: 69 69 38
Width: 515
GlyphClass: 2
Flags: HW
HStem: -12 73<75.5195 135.963> 0 62<211.413 308.825> 0 55<236.75 424.395> 369 58<212.367 379.427> 638 53<65.4437 138.787 212.534 416.764>
VStem: 138.787 71.2<64.3716 365.73 427 636.673> 380.387 44<271.454 368.907 428.208 512.546>
LayerCount: 2
Fore
SplineSet
426.462 513 m 0x9e
 447.262 513 446.322 495 444.771 484 c 2
 418.815 300 l 2
 417.264 289 413.125 271 392.325 271 c 0
 372.325 271 372.559 284 373.828 293 c 2
 381.445 347 l 2
 384.267 367 374.948 369 363.748 369 c 2
 253.349 369 l 2
 234.948 369 213.866 367 208.506 329 c 2
 176.203 100 l 2
 173.664 82 173.807 66 196.442 62 c 0x5e
 220.538 57 245.056 55 269.855 55 c 0
 295.455 55 369.901 61 388.018 76 c 0
 404.393 90 444.101 173 458.312 183 c 0
 461.794 185 464.335 186 466.734 186 c 0
 472.335 186 480.288 180 477.89 163 c 2
 477.749 162 l 2
 476.902 156 475.82 154 432.918 20 c 0
 428.402 5 422.896 0 406.097 0 c 2
 130.896 0 l 2x3e
 70.8965 0 44.4043 -12 30.0049 -12 c 0
 14.8047 -12 14.3311 13 15.0361 18 c 0
 17.5752 36 25.5752 36 81.9014 61 c 0
 98.0889 68 101.899 78 105.003 100 c 2
 178.496 621 l 2
 180.612 636 176.753 637 159.717 641 c 0
 129.364 647 106.776 640 110.867 669 c 0
 113.688 689 121.97 691 129.17 691 c 2
 497.171 691 l 2
 508.37 691 511.524 685 512.514 675 c 0
 513.366 630 517.658 547 516.952 542 c 0
 516.105 536 511.637 527 498.037 527 c 0
 484.437 527 481.188 538 478.176 545 c 0
 450.73 634 453.694 638 428.895 638 c 2
 278.494 638 l 2
 255.295 638 251.014 619 248.335 600 c 2
 227.034 449 l 2
 225.623 439 224.73 427 239.931 427 c 2
 362.33 427 l 2
 375.931 427 392.87 428 397.385 460 c 2
 401.759 491 l 2
 403.169 501 407.262 513 426.462 513 c 0x9e
EndSplineSet
EndChar

StartChar: F
Encoding: 70 70 39
Width: 484
GlyphClass: 2
Flags: HW
HStem: -6 53<60.8923 129.737 206.227 308.413> 360 58<206.959 368.267> 636 51<59.8845 129.697 207.51 405.224>
VStem: 130.027 75.2<49.7348 360 418 634.561> 367.627 44<270.499 360> 374.027 37.6<418.264 503.907>
LayerCount: 2
Fore
SplineSet
431.657 483 m 0xf4
 430.247 473 423.238 446 415.339 390 c 0
 407.299 333 406.548 305 405.278 296 c 0
 402.316 275 388.811 270 380.011 270 c 0
 360.811 270 365.75 288 368.332 346 c 0xf8
 369.083 357 365.508 360 355.907 360 c 2
 225.508 360 l 2
 208.707 360 205.933 346 203.957 332 c 2
 168.974 84 l 2
 166.576 67 164.037 49 196.555 47 c 0
 248.273 45 267.519 51 263.71 24 c 2
 262.441 15 l 2
 260.889 4 256.278 -6 245.878 -6 c 0
 241.878 -6 196.324 0 138.725 0 c 0
 80.3242 0 33.0781 -6 29.8779 -6 c 0
 17.8779 -6 12.748 3 14.7227 17 c 0
 18.8135 46 29.3076 41 64.2725 45 c 0
 85.4951 48 90.2471 59 92.6455 76 c 2
 167.408 606 l 2
 171.922 638 159.499 635 119.78 637 c 0
 115.78 637 101.381 637 104.343 658 c 0
 107.588 681 114.175 688 122.975 688 c 0
 130.175 688 149.61 684 189.61 684 c 0
 220.011 684 276.434 687 319.634 687 c 2
 471.634 687 l 1
 475.634 687 l 2
 485.233 687 497.093 686 498.508 662 c 0
 499.499 635 502.66 561 501.813 555 c 0
 499.84 541 491.37 532 482.57 532 c 0
 466.57 532 464.168 549 443.877 615 c 0
 438.135 631 434.84 636 418.84 636 c 2
 271.641 636 l 2
 250.04 636 246.042 619 243.362 600 c 2
 219.805 433 l 2
 218.394 423 220.088 418 229.688 418 c 2
 363.288 418 l 2
 380.088 418 378.958 427 393.211 477 c 0
 396.645 490 402.619 504 416.22 504 c 0
 426.619 504 433.491 496 431.657 483 c 0xf4
EndSplineSet
EndChar

StartChar: G
Encoding: 71 71 40
Width: 622
GlyphClass: 2
Flags: HW
HStem: -24 53<294.719 451.477> 260 46<408.365 503.993> 441 21G<545.928 567.528> 658 48<270.204 419.645>
VStem: 82.7282 80<226.103 480.292> 505.928 67.2<76.6719 251.789>
LayerCount: 2
Fore
SplineSet
311.241 -24 m 0
 161.641 -24 54.9395 144 84.5615 354 c 0
 113.197 557 255.815 706 403.016 706 c 0
 498.216 706 547.07 644 556.247 641 c 1
 559.446 641 l 2
 574.646 641 590.502 674 600.147 680 c 0
 602.831 682 606.172 683 610.172 683 c 0
 615.771 683 620.947 680 619.396 669 c 2
 615.588 642 l 2
 601.199 540 598.855 461 598.291 457 c 0
 596.88 447 590.435 441 572.835 441 c 0
 547.234 441 574.148 473 543.881 542 c 0
 514.133 609 456.245 658 386.645 658 c 0
 305.845 658 197.007 584 166.396 367 c 0
 129.155 103 244.317 29 327.517 29 c 0
 396.317 29 459.088 77 468.686 94 c 0
 471.933 100 472.778 106 473.483 111 c 2
 489.424 224 l 2
 494.078 257 476.715 253 419.303 260 c 0
 409.844 261 397.608 265 400.146 283 c 0
 401.84 295 408.99 306 420.99 306 c 0
 429.791 306 453.227 302 502.826 302 c 2
 504.427 302 l 2
 555.627 302 582.591 306 590.591 306 c 0
 605.791 306 609.698 294 608.429 285 c 0
 604.056 254 567.866 264 559.54 239 c 0
 558.316 236 557.894 233 557.329 229 c 2
 533.49 60 l 2
 531.938 49 528.27 40 519.469 40 c 0
 509.869 40 505.632 61 498.432 61 c 0
 493.632 61 488.926 56 486.103 53 c 0
 428.885 -1 364.841 -24 311.241 -24 c 0
EndSplineSet
EndChar

StartChar: H
Encoding: 72 72 41
Width: 686
GlyphClass: 2
Flags: HW
HStem: -6 50<88.8699 163.472 235.923 312.493 449.799 529.343 601.44 672.506> 365 62<235.068 529.401> 636 51<88.3944 163.278 235.338 313.488 456.278 527.96 600.948 676.17>
VStem: 163.868 71.2<48.884 365 427 634.922> 530.268 70.4<45.9662 365 427 634.938>
LayerCount: 2
Fore
SplineSet
154.896 0 m 0
 101.296 0 58.8496 -6 55.6494 -6 c 0
 42.8496 -6 41.3428 6 43.458 21 c 0
 46.5615 43 56.5391 40 101.103 44 c 0
 120.585 46 124.019 59 126.417 76 c 2
 201.038 605 l 2
 205.552 637 188.47 635 165.034 639 c 0
 151.058 642 129.693 638 132.797 660 c 0
 133.784 667 139.805 687 155.005 687 c 0
 164.605 687 192.323 685 248.323 685 c 2
 250.723 685 l 2
 308.323 685 337.405 687 347.005 687 c 0
 359.005 687 359.336 678 359.243 666 c 0
 358.819 663 359.196 660 358.773 657 c 0
 355.951 637 344.376 640 295.012 636 c 0
 278.87 635 274.918 624 272.38 606 c 2
 249.104 441 l 2
 247.976 433 248.729 427 257.529 427 c 2
 527.93 427 l 2
 540.729 427 542.939 437 544.068 445 c 2
 564.946 593 l 2
 567.344 610 569.224 629 554.212 636 c 1
 534.963 647 496.706 631 501.22 663 c 0
 503.336 678 511.005 687 523.805 687 c 0
 531.805 687 556.322 685 605.923 685 c 0
 662.723 685 708.087 689 711.287 689 c 0
 720.887 689 725.358 681 723.666 669 c 0
 719.575 640 702.398 643 663.812 636 c 0
 643.388 633 639.954 620 638.119 607 c 2
 564.062 82 l 1
 563.357 77 l 2
 561.665 65 560.726 47 581.243 45 c 0
 611.221 42 630.985 46 627.317 20 c 0
 625.624 8 620.45 -6 607.65 -6 c 0
 604.45 -6 562.896 0 510.896 0 c 0
 458.896 0 416.45 -6 413.25 -6 c 0
 402.85 -6 401.859 4 403.271 14 c 0
 407.644 45 414.938 40 464.443 45 c 1
 486.985 46 490.7 61 493.805 83 c 2
 532.031 354 l 2
 533.301 363 530.384 365 523.184 365 c 2
 250.384 365 l 2
 239.983 365 237.396 358 235.985 348 c 2
 197.757 77 l 2
 195.783 63 193.809 49 231.503 44 c 0
 243.221 42 270.844 45 267.599 22 c 0
 265.201 5 261.25 -6 250.85 -6 c 0
 248.45 -6 206.896 0 154.896 0 c 0
EndSplineSet
EndChar

StartChar: I
Encoding: 73 73 42
Width: 288
GlyphClass: 2
Flags: HW
HStem: -6 52<41.6084 124.398 197.479 274.719> 631 49<54.6568 125.452 197.46 260.389>
VStem: 124.66 72.8<48.0003 628.443>
LayerCount: 2
Fore
SplineSet
120.244 680 m 0
 123.444 680 161.939 675 211.539 675 c 0
 261.939 675 287.303 679 295.303 679 c 0
 301.703 679 308.479 676 306.223 660 c 0
 301.991 630 292.813 633 251.31 628 c 0
 239.968 627 237.24 619 236.11 611 c 2
 159.938 71 l 2
 158.527 61 156.692 48 170.811 46 c 0
 215.046 42 234.152 47 230.768 23 c 0
 229.074 11 224.276 -6 210.676 -6 c 0
 207.476 -6 164.322 0 109.923 0 c 0
 55.5225 0 9.87598 -6 6.67578 -6 c 0
 -5.32422 -6 -4.43164 6 -3.67969 17 c 0
 -4.05664 20 -3.63281 23 -3.20996 26 c 0
 -0.248047 47 10.3877 43 67.0928 48 c 0
 81.6338 49 85.4453 59 87.8428 76 c 2
 161.195 596 l 2
 162.042 602 163.546 607 163.971 610 c 0
 166.932 631 155.31 628 114.132 631 c 0
 104.673 632 96.2969 635 98.6943 652 c 0
 100.388 664 106.645 680 120.244 680 c 0
EndSplineSet
EndChar

StartChar: J
Encoding: 74 74 43
Width: 275
GlyphClass: 2
Flags: HW
HStem: -212 60<1.85631 71.7122> 632 48<34.9193 114.984 191.26 261.695>
VStem: 117.056 72.8<-47.6 625.019>
LayerCount: 2
Fore
SplineSet
216.864 675 m 2
 272.864 675 301.429 679 311.029 679 c 0
 322.229 679 323.218 669 321.808 659 c 0
 317.294 627 304.398 632 266.094 627 c 0
 247.411 625 243.177 612 240.498 593 c 2
 164.747 56 l 2
 153.321 -25 112.623 -98 65.8535 -146 c 0
 56.4424 -156 -2.65723 -212 -41.8574 -212 c 0
 -80.2568 -212 -99.9326 -170 -94.9951 -135 c 0
 -91.3281 -109 -73.6836 -86 -52.084 -86 c 0
 -12.8838 -86 -18.9941 -152 15.4062 -152 c 0
 42.6064 -152 57.3311 -110 64.0107 -91 c 0
 73.1377 -66 76.7129 -52 80.3809 -26 c 2
 167.979 595 l 2
 172.916 630 153.152 626 108.398 632 c 0
 101.34 633 91.3633 636 93.7607 653 c 0
 95.4541 665 101.569 680 115.17 680 c 0
 118.37 680 160.864 675 213.664 675 c 2
 216.864 675 l 2
EndSplineSet
EndChar

StartChar: K
Encoding: 75 75 44
Width: 586
GlyphClass: 2
Flags: HW
HStem: -6 50<75.357 149.548 223.892 303.561> -5 38<533.47 581.76> 315 55<222.974 254.17> 630 57<465.496 556.706> 640 48<73.5098 149.269 224.012 296.074>
VStem: 152.572 70.4<49.4271 312.167 370.007 633.513>
LayerCount: 2
Back
SplineSet
238.823 -6 m 0
 235.624 -6 193.271 0 139.67 0 c 0
 86.8701 0 42.8242 -6 39.624 -6 c 0
 28.4238 -6 27.7168 6 29.2686 17 c 0
 34.2441 52.2725 69.291 40.0459 90.3008 47 c 0
 107.146 53 113.216 62 117.589 93 c 2
 187.696 590 l 2
 194.468 638 179.645 635 137.95 640 c 0
 127.691 641 116.396 646 118.935 664 c 0
 120.205 673 127.921 688 145.521 688 c 0
 154.321 688 180.156 684 232.956 684 c 2
 233.757 684 l 2
 286.557 684 313.521 688 322.321 688 c 0
 340.722 688 342.982 670 341.854 662 c 0
 337.622 632 295.737 647 276.727 637 c 0
 264.54 630 261.482 614 260.071 604 c 2
 229.461 387 l 2
 228.474 380 228.663 370 237.463 370 c 0
 245.463 370 252.615 381 261.226 391 c 0
 319.618 459 430.615 588 435.743 596 c 0
 439.648 601 443.978 609 445.105 617 c 0
 451.171 660 394.14 630 399.218 666 c 0
 401.052 679 409.38 687 420.58 687 c 0
 429.38 687 453.897 685 504.297 685 c 2
 509.098 685 l 2
 557.098 685 581.38 687 589.38 687 c 0
 606.979 687 610.088 675 608.818 666 c 0
 604.867 638 563.456 645 532.54 630 c 0
 505.905 617 486.896 590 466.053 567 c 0
 295.627 374 296.051 377 294.781 368 c 0
 293.935 362 295.771 358 299.065 353 c 0
 480.793 59 472.604 69 483.192 59 c 0
 506.631 38 523.383 49 533.926 33 c 0
 535.762 29 537.314 23 536.61 18 c 0
 535.34 9 526.965 -5 510.165 -5 c 0
 498.965 -5 495.529 -1 473.129 -1 c 0
 414.07 0 414.165 -5 398.256 24 c 0
 238.74 311 240.104 315 230.505 315 c 2
 229.704 315 l 2
 219.305 315 216.812 303 215.684 295 c 2
 185.92 84 l 2
 180.419 45 192.982 49 244.277 44 c 0
 249.735 43 261.454 41 258.774 22 c 0
 256.657 7 251.624 -6 238.823 -6 c 0
EndSplineSet
Fore
SplineSet
238.823 -6 m 0xa4
 235.624 -6 193.271 0 139.67 0 c 0
 86.8701 0 42.8242 -6 39.624 -6 c 0
 28.4238 -6 27.7168 6 29.2686 17 c 0
 33.2188 45 54.3955 42 74.6768 44 c 0
 99.7588 46 112.088 54 117.589 93 c 2
 187.696 590 l 2
 194.468 638 179.645 635 137.95 640 c 0
 127.691 641 116.396 646 118.935 664 c 0
 120.205 673 127.921 688 145.521 688 c 0
 154.321 688 180.156 684 232.956 684 c 2
 233.757 684 l 2
 286.557 684 313.521 688 322.321 688 c 0xac
 340.722 688 342.982 670 341.854 662 c 0
 337.622 632 295.737 647 276.727 637 c 0
 264.54 630 261.482 614 260.071 604 c 2
 229.461 387 l 2
 228.474 380 228.663 370 237.463 370 c 0
 245.463 370 252.615 381 261.226 391 c 0
 319.618 459 430.615 588 435.743 596 c 0
 439.648 601 443.978 609 445.105 617 c 0
 451.171 660 394.14 630 399.218 666 c 0
 401.052 679 409.38 687 420.58 687 c 0
 429.38 687 453.897 685 504.297 685 c 2
 509.098 685 l 2
 557.098 685 581.38 687 589.38 687 c 0
 606.979 687 610.088 675 608.818 666 c 0
 604.867 638 563.456 645 532.54 630 c 0
 505.905 617 486.896 590 466.053 567 c 0
 295.627 374 296.051 377 294.781 368 c 0
 293.935 362 295.771 358 299.065 353 c 0
 480.793 59 472.604 69 483.192 59 c 0
 506.631 38 523.383 49 533.926 33 c 0
 535.762 29 537.314 23 536.61 18 c 0
 535.34 9 526.965 -5 510.165 -5 c 0x74
 498.965 -5 495.529 -1 473.129 -1 c 0
 414.07 0 414.165 -5 398.256 24 c 0
 238.74 311 240.104 315 230.505 315 c 2
 229.704 315 l 2
 219.305 315 216.812 303 215.684 295 c 2
 185.92 84 l 2
 180.419 45 192.982 49 244.277 44 c 0
 249.735 43 261.454 41 258.774 22 c 0
 256.657 7 251.624 -6 238.823 -6 c 0xa4
EndSplineSet
EndChar

StartChar: L
Encoding: 76 76 45
Width: 497
GlyphClass: 2
Flags: HW
HStem: 0 60<195.627 412.052> 0 45<59.108 120.426> 629 49<56.1603 120.864 195.617 278.438>
VStem: 120.895 74.4<60.5237 626.364> 448.895 36<127.281 178.977>
LayerCount: 2
Fore
SplineSet
215.914 675 m 2x78
 273.515 675 303.538 678 313.139 678 c 0
 325.938 678 325.187 667 322.93 651 c 0
 320.108 631 310.885 628 302.085 628 c 0
 247.403 626 237.19 633 232.395 599 c 2
 160.877 92 l 2
 158.479 75 157.962 60 177.162 60 c 2
 329.962 60 l 1
 332.362 60 l 2xb8
 345.962 60 362.903 61 380.171 87 c 0
 390.286 102 419.974 165 425.761 172 c 0
 429.666 177 434.09 180 438.89 180 c 0
 443.689 180 462.466 177 459.646 157 c 0
 458.939 152 435.984 63 423.755 16 c 0
 420.604 5 417.452 -6 399.052 -6 c 0
 387.852 -6 245.498 0 66.2979 0 c 2
 23.8984 0 l 2
 13.498 0 12.2275 8 13.3555 16 c 0
 16.1768 36 25.7764 36 61.4463 45 c 1
 79.8926 51 82.5264 64 84.3604 77 c 2
 84.7832 80 l 1
 158.841 605 l 2
 162.79 633 151.685 628 117.427 629 c 0
 107.167 630 98.1318 634 100.812 653 c 0
 103.492 672 109.938 678 119.538 678 c 0
 128.338 678 155.256 676 210.314 675 c 1
 215.914 675 l 2x78
EndSplineSet
EndChar

StartChar: M
Encoding: 77 77 46
Width: 899
GlyphClass: 2
Flags: HW
HStem: -15 21G<495.495 504.695> -6 59<260.234 333.929> -6 55<117.307 197.812 664.511 745.753 821.218 897.911> 635 40<119.151 180.491>
VStem: 200.695 56<53.3311 334.948> 220.695 40.8<334.948 477.998> 748.695 71.2<51.3681 476.999>
DStem2: 268.695 662 211.895 574 0.43831 -0.898824<-25.8286 61.502 389.322 576.435>
LayerCount: 2
Back
SplineSet
630.897 -6 m 4xd8
 618.897 -6 617.813 9 619.083 18 c 4
 625.432 63 695.365 20 712.488 79 c 4
 714.135 85 715.122 92 715.968 98 c 6
 746.014 311 l 6
 755.747 380 766.561 468 766.185 471 c 4
 766.09 476 763.83 477 761.431 477 c 4
 755.83 477 751.644 470 748.538 465 c 4
 657.308 323 491.225 19 473.721 -3 c 4
 464.97 -14 457.628 -15 454.428 -15 c 4
 439.229 -15 435.132 7 431.507 21 c 4
 376.422 243 293.525 472 287.83 477 c 4
 287.172 478 286.372 478 285.572 478 c 4
 283.172 478 281.948 475 281.667 473 c 4
 268.592 403 257.4 335 247.525 265 c 4
 241.601 223 222.701 72 223.689 62 c 4
 227.035 29 299.312 65 292.543 17 c 4
 291.273 8 286.098 -6 274.897 -6 c 4
 271.697 -6 230.944 0 179.744 0 c 4
 128.545 0 86.0977 -6 82.8975 -6 c 4
 77.2979 -6 69.0615 -2 71.6016 16 c 4
 75.833 46 94.6104 43 135.456 49 c 4
 162.42 53 162.183 74 168.533 102 c 4
 205.642 280 245.239 504 251.587 549 c 4
 253.421 562 249.468 568 246.312 574 c 4
 236.57 590 224.378 634 178.118 635 c 4
 172.659 636 162.26 636 164.657 653 c 4
 167.619 674 176.561 675 182.161 675 c 6
 297.361 675 l 6
 308.561 675 312.138 672 315.527 662 c 6
 422.151 346 l 5
 489.514 160 l 6
 490.55 156 494.221 148 501.421 148 c 4
 507.021 148 510.786 152 514.173 159 c 4
 802.491 666 801.691 666 802.491 666 c 4
 806.679 673 810.961 675 818.161 675 c 6
 934.158 675 l 6xb8
 939.759 675 946.022 674 943.055 653 c 4
 939.246 626 921.039 633 875.438 616 c 4
 862.074 612 854.687 605 852.147 587 c 4
 800.615 199 794.503 150 787.592 101 c 6
 786.604 94 l 6
 783.078 69 781.057 49 807.692 45 c 4
 842.327 41 858.893 45 854.801 16 c 4
 852.968 3 845.298 -6 835.697 -6 c 4
 831.697 -6 788.544 0 733.344 0 c 4
 678.944 0 634.098 -6 630.897 -6 c 4xd8
EndSplineSet
Fore
SplineSet
630.897 -6 m 0x36
 618.897 -6 617.813 9 619.083 18 c 0
 622.045 39 639.127 41 658.61 43 c 0
 687.033 46 709.197 50 715.404 94 c 2
 746.014 311 l 2
 755.747 380 766.561 468 766.185 471 c 0
 766.09 476 763.83 477 761.431 477 c 0
 755.83 477 751.644 470 748.538 465 c 0
 657.308 323 491.225 19 473.721 -3 c 0
 464.97 -14 457.628 -15 454.428 -15 c 0
 439.229 -15 435.132 7 431.507 21 c 0
 376.422 243 293.525 472 287.83 477 c 0
 287.172 478 286.372 478 285.572 478 c 0
 283.172 478 281.948 475 281.667 473 c 0x96
 268.592 403 257.4 335 247.525 265 c 0
 242.87 232 230.506 133 225.477 86 c 0
 224.159 71 221.008 60 227.22 53 c 0
 244.681 35 298.608 60 292.543 17 c 0
 291.273 8 286.098 -6 274.897 -6 c 0x5a
 271.697 -6 230.944 0 179.744 0 c 0
 128.545 0 86.0977 -6 82.8975 -6 c 0
 77.2979 -6 69.0615 -2 71.6016 16 c 0
 75.833 46 94.6104 43 135.456 49 c 0
 162.42 53 162.183 74 168.533 102 c 0x3a
 205.642 280 245.239 504 251.587 549 c 0
 253.421 562 249.468 568 246.312 574 c 0
 236.57 590 224.378 634 178.118 635 c 0
 172.659 636 162.26 636 164.657 653 c 0
 167.619 674 176.561 675 182.161 675 c 2
 297.361 675 l 2
 308.561 675 312.138 672 315.527 662 c 2
 422.151 346 l 1
 489.514 160 l 2
 490.55 156 494.221 148 501.421 148 c 0
 507.021 148 510.786 152 514.173 159 c 0
 802.491 666 801.691 666 802.491 666 c 0
 806.679 673 810.961 675 818.161 675 c 2
 934.158 675 l 2
 939.759 675 946.022 674 943.055 653 c 0
 939.246 626 921.039 633 875.438 616 c 0
 862.074 612 854.687 605 852.147 587 c 0
 800.615 199 794.503 150 787.592 101 c 2
 786.604 94 l 2
 783.078 69 781.057 49 807.692 45 c 0
 842.327 41 858.893 45 854.801 16 c 0
 852.968 3 845.298 -6 835.697 -6 c 0
 831.697 -6 788.544 0 733.344 0 c 0
 678.944 0 634.098 -6 630.897 -6 c 0x36
EndSplineSet
EndChar

StartChar: N
Encoding: 78 78 47
Width: 720
GlyphClass: 2
Flags: HW
HStem: -23 21G<621.47 633.47> -6 52<232.285 313.988> -6 46<98.6265 172.395 265.974 324.489> 633 48<88.8 154.144 522.376 588.021 646.865 714.156>
VStem: 591.87 49.6<360.111 627.882> 599.07 39.2<172.004 504.224>
DStem2: 236.67 662 174.27 590 0.572687 -0.819774<-39.4344 69.9078 173.945 595.799>
LayerCount: 2
Back
SplineSet
134.656 655 m 4xe0
 137.618 676 145.524 681 155.924 681 c 6
 254.324 681 l 6
 271.124 681 276.678 675 283.644 662 c 6
 383.57 480 l 5
 441.982 378 l 5
 559.134 182 564.123 172 569.723 172 c 4xe0
 574.522 172 576.028 177 576.734 182 c 4
 582.612 218 588.35 253 593.428 289 c 4xd0
 607.816 391 619.239 489 628.264 587 c 4
 632.729 630 617.671 631 583.177 636 c 4
 577.718 637 566.141 640 568.538 657 c 4
 569.949 667 577.523 681 595.124 681 c 4
 602.324 681 625.101 678 671.501 678 c 4
 717.101 678 739.924 681 747.124 681 c 4
 755.924 681 763.077 675 760.68 658 c 4
 753.345 606 689.995 673 676.312 576 c 5xe0
 662.018 486 647.58 395 634.886 305 c 4xd0
 611.045 136 602.396 52 598.447 24 c 4
 596.472 10 591.816 -23 575.816 -23 c 4
 567.816 -23 560.427 -13 542.541 19 c 6
 410.231 255 l 5
 280.37 480 270.251 499 267.051 499 c 4
 265.451 499 264.227 496 263.287 495 c 4
 240.382 378 220.02 262 202.81 140 c 6
 198.719 111 l 6
 191.384 59 192.373 49 225.55 46 c 4
 235.95 46 268.045 41 273.362 39 c 4
 276.28 37 283.057 34 280.094 13 c 4
 278.543 2 272.615 -6 263.814 -6 c 4
 260.615 -6 219.061 0 167.061 0 c 4
 114.261 0 71.8145 -6 67.8145 -6 c 4
 58.2148 -6 52.1426 2 53.8359 14 c 4
 54.2588 17 58.5391 36 69.5039 40 c 4
 88.0908 47 124.562 39 142.017 72 c 4
 147.71 84 146.486 81 230.717 542 c 5
 231.14 545 l 5
 231.28 546 l 6
 232.55 555 232.597 561 211.087 590 c 4
 206.475 597 189.389 629 145.953 633 c 4
 137.953 633 131.977 636 134.656 655 c 4xe0
EndSplineSet
Fore
SplineSet
230.717 542 m 1x38
 231.28 546 l 2
 232.55 555 232.597 561 211.087 590 c 0
 206.475 597 189.389 629 145.953 633 c 0
 137.953 633 131.977 636 134.656 655 c 0
 137.618 676 145.524 681 155.924 681 c 2
 254.324 681 l 2
 271.124 681 276.678 675 283.644 662 c 2
 383.57 480 l 1
 441.982 378 l 1
 559.134 182 564.123 172 569.723 172 c 0x38
 574.522 172 576.028 177 576.734 182 c 0
 582.612 218 588.35 253 593.428 289 c 0x34
 607.816 391 619.239 489 628.264 587 c 0
 632.729 630 617.671 631 583.177 636 c 0
 577.718 637 566.141 640 568.538 657 c 0
 569.949 667 577.523 681 595.124 681 c 0
 602.324 681 625.101 678 671.501 678 c 0
 717.101 678 739.924 681 747.124 681 c 0
 755.924 681 763.077 675 760.68 658 c 0
 756.871 631 739.977 636 720.493 634 c 0
 694.471 631 683.319 620 674.62 564 c 0x38
 661.029 479 647.017 391 634.886 305 c 0x34
 611.045 136 602.396 52 598.447 24 c 0
 596.472 10 591.816 -23 575.816 -23 c 0x98
 567.816 -23 560.427 -13 542.541 19 c 2
 410.231 255 l 1
 280.37 480 270.251 499 267.051 499 c 0
 265.451 499 264.227 496 263.287 495 c 0
 240.382 378 220.02 262 202.81 140 c 2
 198.719 111 l 2
 191.384 59 192.373 49 225.55 46 c 0
 235.95 46 268.045 41 273.362 39 c 0
 276.28 37 283.057 34 280.094 13 c 0
 278.543 2 272.615 -6 263.814 -6 c 0x58
 260.615 -6 219.061 0 167.061 0 c 0
 114.261 0 71.8145 -6 67.8145 -6 c 0
 58.2148 -6 52.1426 2 53.8359 14 c 0
 54.2588 17 58.5391 36 69.5039 40 c 0
 88.0908 47 124.562 39 142.017 72 c 0
 147.71 84 146.486 81 230.717 542 c 1x38
EndSplineSet
EndChar

StartChar: O
Encoding: 79 79 48
Width: 700
GlyphClass: 2
Flags: HW
HStem: -24 58<312.054 478.319> 667 53<292.571 458.914>
VStem: 92.1954 76<247.435 473.525> 606.595 79.2<215.912 458.255>
LayerCount: 2
Fore
SplineSet
684.244 337 m 0
 654.62 127 502.12 -24 346.12 -24 c 0
 267.72 -24 194.963 16 147.755 84 c 0
 99.8887 153 79.4531 252 92.9004 353 c 1
 121.536 556 279.07 720 439.87 720 c 0
 611.87 720 713.021 541 684.244 337 c 0
173.273 384 m 0
 148.869 211 199.902 34 351.103 34 c 0
 442.303 34 572.881 109 602.505 319 c 0
 616.046 415 608.928 529 554.144 600 c 0
 521.009 643 472.394 667 419.594 667 c 0
 320.394 667 201.204 582 173.273 384 c 0
EndSplineSet
EndChar

StartChar: P
Encoding: 80 80 49
Width: 512
GlyphClass: 2
Flags: HW
HStem: -6 53<66.1243 137.658 207.601 318.449> 301 35<208.312 331.552> 635 48<72.4139 137.798> 648 45<208.664 355.857>
VStem: 137.866 70.4<48.1758 301 336.165 634.629> 435.466 67.2<428.095 566.357>
LayerCount: 2
Fore
SplineSet
457.259 498 m 0xdc
 468.968 581 413.618 648 300.019 648 c 0
 256.019 648 250.795 645 249.104 633 c 2
 208.9 348 l 2
 207.349 337 209.608 336 236.808 336 c 0
 354.408 336 443.577 401 457.259 498 c 0xdc
157.756 683 m 2xec
 233.756 683 291.967 693 349.566 693 c 0xdc
 415.967 693 464.769 676 497.104 633 c 0
 521.248 600 532.077 552 525.165 503 c 2
 525.023 502 l 1
 513.645 427 468.944 371 420.854 342 c 0
 387.491 321 334.271 301 235.07 301 c 2
 211.07 301 l 2
 203.07 301 199.824 295 198.413 285 c 2
 169.778 82 l 2
 166.675 60 169.922 49 190.44 47 c 0
 265.877 43 277.122 49 272.892 19 c 2
 272.75 18 l 2
 271.057 6 266.965 -6 254.165 -6 c 0
 250.165 -6 203.011 0 144.611 0 c 0
 84.6104 0 36.5645 -6 32.5645 -6 c 0
 19.7646 -6 18.3984 7 19.9502 18 c 0
 23.9004 46 31.3359 42 73.6406 47 c 0
 92.4639 50 97.5918 58 99.8496 74 c 2
 175.316 609 l 2
 177.011 621 178.185 635 161.385 635 c 2
 132.585 635 l 2
 124.585 635 113.525 636 117.053 661 c 0
 119.169 676 125.756 683 137.756 683 c 2
 157.756 683 l 2xec
EndSplineSet
EndChar

StartChar: Q
Encoding: 81 81 50
Width: 681
GlyphClass: 2
Flags: HW
HStem: -203 49<657.171 731.315> -16 48<326.976 477.454> 675 49<299.887 464.035>
VStem: 95.7538 77.6<261.525 474.605> 603.754 71.2<231.95 470.122>
LayerCount: 2
Fore
SplineSet
373.121 32 m 0
 481.121 32 587.603 146 613.416 329 c 0
 626.535 422 621.862 542 564.16 615 c 0
 532.862 654 487.824 675 439.024 675 c 0
 336.624 675 218.282 579 191.903 392 c 0
 167.358 218 230.721 32 373.121 32 c 0
406.256 -11 m 0
 399.855 -11 380.751 -16 351.95 -16 c 0
 269.55 -16 199.757 28 157.067 94 c 0
 112.4 163 95.4014 258 108.943 354 c 0
 122.768 452 169.532 551 236.065 620 c 0
 298.976 686 379.536 724 455.536 724 c 0
 521.937 724 591.964 693 638.229 624 c 0
 685.155 554 702.391 455 688.425 356 c 0
 668.959 218 589.68 87 494.724 15 c 0
 493.782 14 492.041 13 491.618 10 c 0
 491.336 8 491.995 7 493.454 6 c 0
 544.659 -45 558.548 -94 593.893 -127 c 0
 611.495 -144 634.083 -154 658.083 -154 c 0
 668.483 -154 671.825 -153 675.025 -153 c 0
 680.625 -153 684.061 -157 683.214 -163 c 0
 680.957 -179 639.972 -203 606.371 -203 c 0
 542.371 -203 510.176 -142 481.184 -98 c 0
 480.524 -97 423.855 -11 406.256 -11 c 0
EndSplineSet
EndChar

StartChar: R
Encoding: 82 82 51
Width: 617
GlyphClass: 2
Flags: HW
HStem: -13 62<536.203 589.2> -6 55<80.6446 151.085 223.085 314.989> 330 36<222.818 305.583> 640 35<72.1918 142.668> 648 39<221.444 338.184>
VStem: 151.371 71.2<49.7219 330 366.549 627.863> 411.371 62.4<431.776 566.374>
DStem2: 380.171 338 379.371 202 0.500061 -0.86599<-4.06177 347.467>
LayerCount: 2
Fore
SplineSet
433.8 496 m 0x2e
 445.085 576 396.041 648 315.241 648 c 0
 304.841 648 274.018 645 265.83 638 c 0
 261.407 635 259.76 629 258.773 622 c 0
 258.632 621 259.291 620 259.15 619 c 2
 226 384 l 2
 223.461 366 229.061 366 276.261 366 c 0
 305.061 366 327.885 369 351.836 380 c 0
 387.835 397 425.335 436 433.8 496 c 0x2e
336.742 687 m 0
 480.742 687 508.473 583 498.597 513 c 0
 484.49 413 406.991 357 383.981 347 c 0
 382.24 346 379.698 345 379.276 342 c 0
 378.994 340 379.653 339 380.312 338 c 0
 458.398 194 468.007 126 492.059 81 c 0
 501.002 65 513.945 49 530.745 49 c 0
 551.545 49 557.849 71 568.248 71 c 0
 573.048 71 575.543 66 574.696 60 c 0
 572.581 45 541.198 -13 494.799 -13 c 0xae
 452.398 -13 427.64 44 420.296 60 c 2
 360.327 202 l 1
 306.619 326 308.455 322 304.22 326 c 0
 300.783 330 296.783 330 291.184 330 c 2
 232.783 330 l 2
 225.583 330 221.159 327 219.468 315 c 2
 186.883 84 l 1
 186.459 81 l 2
 184.766 69 183.168 52 202.745 49 c 0
 255.499 43 275.263 47 270.89 16 c 0
 269.056 3 262.187 -6 251.787 -6 c 0
 248.587 -6 204.633 0 149.433 0 c 0
 94.2334 0 49.3857 -6 46.1865 -6 c 0
 34.1865 -6 33.9023 9 35.5947 21 c 0
 38.6992 43 51.2168 41 88.5811 45 c 0
 108.203 48 112.297 60 115.117 80 c 2
 188.047 597 l 2
 192.561 629 180.42 628 126.912 640 c 0
 119.194 642 115.759 646 117.169 656 c 0
 119.285 671 123.05 675 130.25 675 c 2
 158.25 675 l 2x76
 229.45 675 283.942 687 336.742 687 c 0
EndSplineSet
EndChar

StartChar: S
Encoding: 83 83 52
Width: 437
GlyphClass: 2
Flags: HW
HStem: -17 56<182.261 306.928> 635 50<154.219 259.373>
VStem: 69.0098 57.6<479.18 595.956> 81.8098 40<112.089 247.636> 361.81 58.4<105.026 250.11>
LayerCount: 2
Fore
SplineSet
94.6836 516 m 0xe8
 107.237 605 177.723 685 261.723 685 c 0
 326.522 685 348.88 645 359.28 645 c 0
 371.28 645 379.322 685 398.522 685 c 0
 405.723 685 410.193 677 408.643 666 c 0
 407.514 658 400.787 633 393.733 583 c 0
 386.822 534 386.636 510 385.508 502 c 0
 384.097 492 377.793 487 369.793 487 c 2
 368.993 487 l 1
 343.533 488 357.411 524 326.77 579 c 0
 309.401 609 281.869 635 246.669 635 c 0
 201.869 635 163.145 593 155.81 541 c 0xe8
 150.591 504 162.076 472 183.773 450 c 0
 221.472 411 279.213 412 326.604 385 c 0
 379.83 354 413.861 289 401.025 198 c 0
 384.239 79 293.896 -17 195.497 -17 c 0
 149.097 -17 107.4 5 81.6562 38 c 0
 74.9258 47 70.0303 52 58.8301 52 c 0
 50.8301 52 44.8076 49 37.6074 49 c 0
 26.4072 49 24.4766 58 25.3232 64 c 0
 27.0156 76 43.4346 113 66.7158 227 c 0
 69.0674 238 73.6787 248 87.2783 248 c 0
 104.078 248 103.609 239 101.497 190 c 1xd8
 97.2227 120 91.9492 145 110.307 105 c 0
 125.511 71 156.996 39 204.196 39 c 0
 267.396 39 328.801 100 339.805 178 c 0
 346.011 222 334.054 262 308.921 288 c 0
 268.445 330 216.822 327 167.03 354 c 0
 105.945 386 85.5137 451 94.6836 516 c 0xe8
EndSplineSet
EndChar

StartChar: T
Encoding: 84 84 53
Width: 630
GlyphClass: 2
Flags: HW
HStem: -6 53<238.741 323.014 398.597 485.401> 622 66<152.967 323.849 398.655 563.751>
VStem: 324.165 74.4<49.375 621.698>
LayerCount: 2
Fore
SplineSet
423.217 -6 m 0
 419.217 -6 373.663 0 315.263 0 c 0
 257.663 0 208.816 -6 205.616 -6 c 0
 192.816 -6 191.31 6 193.284 20 c 0
 196.812 45 205.047 41 255.493 47 c 0
 279.916 50 285.091 64 287.912 84 c 2
 359.431 591 l 2
 361.406 605 363.004 622 342.203 622 c 2
 223.004 622 l 2
 201.403 622 197.357 616 189.782 602 c 0
 145.557 521 143.063 509 127.863 509 c 0
 117.464 509 111.815 520 113.79 534 c 2
 113.931 535 l 2
 114.777 541 116 544 156.598 673 c 0
 160.973 687 169.114 688 175.514 688 c 2
 641.914 688 l 2
 654.714 688 654.902 678 654.669 665 c 0
 656.281 563 656.659 543 655.814 537 c 0
 654.12 525 646.31 515 637.51 515 c 0
 627.11 515 624.003 527 621.79 534 c 0
 595.757 616 598.203 622 573.403 622 c 2
 455.804 622 l 2
 439.004 622 436.229 608 434.395 595 c 2
 360.479 71 l 2
 356.812 45 367.775 49 429.188 42 c 0
 441.706 40 442.459 34 439.638 14 c 0
 438.228 4 433.616 -6 423.217 -6 c 0
EndSplineSet
EndChar

StartChar: U
Encoding: 85 85 54
Width: 691
GlyphClass: 2
Flags: HW
HStem: -15 57<318.435 508.537> 641 48<100.24 154.889 229.764 302.432>
VStem: 155.342 72<149.926 634.586> 580.942 44.8<128.982 634.348>
LayerCount: 2
Fore
SplineSet
726.128 663 m 0
 719.922 619 674.503 677 659.691 572 c 0
 659.269 569 657.903 565 657.481 562 c 2
 625.46 335 l 2
 623.203 319 621.888 304 619.63 288 c 2
 615.116 256 l 2
 605.383 187 587.182 92 512.601 34 c 0
 468.604 0 415.288 -15 354.488 -15 c 0
 163.288 -15 143.509 117 139.41 156 c 0
 135.734 198 140.436 237 147.065 284 c 0
 150.592 309 155.06 335 158.587 360 c 2
 194.134 612 l 2
 197.942 639 185.001 638 164.625 641 c 0
 158.365 642 143.589 645 146.41 665 c 0
 147.68 674 152.996 689 165.796 689 c 0
 173.796 689 197.514 687 246.173 686 c 1
 250.973 686 l 2
 302.172 686 328.195 689 336.995 689 c 0
 348.995 689 350.645 678 348.527 663 c 0
 344.72 636 328.907 643 295.261 637 c 0
 271.495 633 266.698 616 264.724 602 c 2
 220.57 289 l 2
 210.557 218 203.881 148 242.287 97 c 0
 275.798 51 334.528 42 378.528 42 c 0
 408.929 42 492.692 46 537.766 133 c 0
 557.385 170 564.532 215 568.624 244 c 2
 570.598 258 l 2
 573.561 279 575.582 299 578.544 320 c 2
 616.912 592 l 2
 623.825 641 606.884 640 570.789 645 c 0
 562.13 646 553.753 649 556.292 667 c 0
 558.69 684 566.596 689 574.596 689 c 0
 581.796 689 602.173 686 644.572 686 c 0
 686.973 686 708.195 689 715.396 689 c 0
 729.796 689 727.821 675 726.128 663 c 0
EndSplineSet
EndChar

StartChar: V
Encoding: 86 86 55
Width: 759
GlyphClass: 2
Flags: HW
HStem: -20 21G<430.031 442.431> 632 57<113.889 158.125> 639 50<254.284 319.842 555.741 623.88>
VStem: 108.431 145.6<609 673> 625.231 128.8<603 670.5>
LayerCount: 2
Fore
SplineSet
181.637 689 m 0xd8
 190.438 689 217.214 686 270.813 686 c 0
 322.014 686 348.037 689 356.037 689 c 0
 367.237 689 369.026 679 367.757 670 c 0
 364.23 645 355.571 646 318.584 639 c 0
 311.243 638 296.278 634 293.316 613 c 0
 292.188 605 294.26 597 295.295 593 c 0
 345.77 361 413.229 153 417.699 145 c 0
 419.018 143 421.136 141 424.336 141 c 0
 429.936 141 433.181 147 434.264 149 c 0
 514.53 287 588.584 432 655.767 585 c 0
 658.213 591 662.542 599 663.67 607 c 0
 666.209 625 657.079 634 650.302 637 c 0
 631.571 646 597.313 630 602.11 664 c 0
 603.804 676 609.637 689 623.237 689 c 0
 631.237 689 655.614 686 704.414 686 c 0
 754.014 686 778.438 689 786.438 689 c 0xb8
 799.237 689 802.626 679 800.229 662 c 0
 795.433 628 763.478 651 733.08 617 c 0
 704.425 584 636.023 394 409.246 0 c 0
 406.141 -5 398.424 -20 386.424 -20 c 0
 373.624 -20 370.141 -5 368.446 0 c 0
 190.781 561 208.234 611 187.196 632 c 0
 178.866 641 152.513 647 155.616 669 c 0
 156.744 677 163.237 689 181.637 689 c 0xd8
EndSplineSet
EndChar

StartChar: W
Encoding: 87 87 56
Width: 914
GlyphClass: 2
Flags: HW
HStem: -22 21G<364.186 374.186 621.786 636.586> 644 45<354.606 419.578 492.323 551.362 724.193 792.502>
VStem: 792.986 120<605 675>
LayerCount: 2
Fore
SplineSet
193.533 689 m 0
 200.733 689 223.51 686 269.909 686 c 0
 314.71 686 338.334 689 345.533 689 c 0
 359.934 689 357.676 673 356.406 664 c 0
 351.188 627 314.337 655 296.834 633 c 0
 292.929 628 291.281 622 291 620 c 0
 290.295 615 290.53 611 291.566 607 c 0
 311.916 428 319.309 384 353.875 164 c 0
 355.147 156 358.536 146 363.336 146 c 0
 372.136 146 369.736 146 484.202 396 c 0
 485.566 400 486.931 404 487.495 408 c 2
 487.635 409 l 2
 488.765 417 488.104 418 462.625 606 c 0
 457.586 644 458.763 641 411.985 644 c 0
 403.985 644 398.949 648 401.489 666 c 0
 403.604 681 411.934 689 423.134 689 c 0
 431.134 689 455.51 686 505.109 686 c 2
 505.909 686 l 2
 554.71 686 579.934 689 587.934 689 c 0
 599.134 689 600.264 680 598.43 667 c 0
 595.608 647 587.75 648 560.785 644 c 0
 547.702 642 535.139 638 532.459 619 c 0
 531.895 615 532.131 611 532.225 606 c 0
 558.461 395 603.053 161 610.914 143 c 0
 612.749 139 615.243 134 619.243 134 c 2
 620.043 134 l 2
 627.243 134 632.936 146 635.383 152 c 0
 744.064 361 829.732 594 832.835 616 c 0
 836.362 641 817.68 639 783.985 644 c 0
 769.868 646 769.537 655 771.229 667 c 0
 772.923 679 776.733 689 788.733 689 c 0
 796.733 689 820.31 686 869.109 686 c 2
 869.91 686 l 2
 917.113 686 941.529 689 949.529 689 c 0
 957.529 689 962.426 684 959.89 666 c 0
 954.386 627 917.162 658 895 620 c 0
 887.566 607 798.699 374 619.209 26 c 0
 604.719 -3 593.237 -22 579.638 -22 c 0
 563.638 -22 557.188 6 553.515 31 c 0
 500.773 332 501.856 334 497.856 334 c 0
 496.256 334 495.174 332 494.092 330 c 0
 335.638 -22 343.449 -12 330.462 -19 c 0
 327.779 -21 325.237 -22 322.838 -22 c 0
 305.237 -22 304.294 11 299.538 34 c 0
 237.711 367 217.778 600 214.341 621 c 0
 208.313 652 180.41 630 171.608 647 c 0
 170.949 648 168.455 653 169.583 661 c 0
 171.135 672 177.533 689 193.533 689 c 0
EndSplineSet
EndChar

StartChar: X
Encoding: 88 88 57
Width: 598
GlyphClass: 2
Flags: HW
HStem: -6 48<70.4983 139.126 200.308 270.891 358.531 423.689 516.217 592.439> 641 48<80.8893 150.103 380.517 444.19>
VStem: 70.3042 129.6<8.5 74> 294.304 71.2<326.776 370.875> 444.704 148<597 676.5>
LayerCount: 2
Fore
SplineSet
239.7 686 m 2
 294.1 686 320.923 689 329.723 689 c 0
 339.322 689 344.358 685 340.832 660 c 0
 336.178 627 284.69 659 278.767 617 c 0
 277.074 605 282.582 593 284.135 587 c 0
 344.908 411 345.285 408 348.485 408 c 0
 350.085 408 351.025 409 351.967 410 c 0
 463.854 568 478.771 583 482.721 611 c 0
 487.233 643 466.952 641 443.233 643 c 0
 430.575 644 423.421 650 426.525 672 c 0
 427.654 680 431.322 689 441.723 689 c 0
 450.522 689 478.1 686 533.3 686 c 0
 589.3 686 617.723 689 627.322 689 c 0
 636.923 689 640.735 682 639.185 671 c 0
 631.849 619 598.009 657 559.095 625 c 0
 542.861 612 506.208 562 499.057 551 c 0
 370.043 368 369.384 369 368.537 363 c 0
 367.69 357 369.149 356 467.204 87 c 0
 482.221 46 485.044 49 529.797 43 c 0
 539.915 41 549.609 36 546.648 15 c 0
 543.968 -4 534.886 -6 530.086 -6 c 0
 526.886 -6 483.731 0 427.731 0 c 0
 373.331 0 327.686 -6 324.485 -6 c 0
 314.086 -6 310.555 3 312.248 15 c 0
 315.915 41 327.774 40 364.621 46 c 0
 380.244 49 384.055 59 385.323 68 c 2
 385.605 70 l 2
 387.299 82 385.181 84 312.733 285 c 0
 312.875 286 312.357 288 310.757 288 c 0
 307.557 288 308.357 288 173.933 95 c 0
 168.945 88 162.875 79 161.465 69 c 0
 158.361 47 173.561 47 207.256 42 c 0
 216.574 40 228.151 37 225.188 16 c 0
 223.919 7 219.686 -6 207.686 -6 c 0
 205.286 -6 167.731 0 121.332 0 c 0
 74.1318 0 36.4854 -6 33.2852 -6 c 0
 23.6855 -6 22.6953 4 23.9648 13 c 0
 28.0566 42 34.1748 40 67.9609 47 c 0
 99.3486 54 106.124 68 146.022 124 c 0
 292.683 330 292.399 328 293.105 333 c 0
 293.952 339 291.975 342 202.299 591 c 0
 184.411 640 175.987 637 142.952 641 c 0
 133.493 642 123.657 646 126.62 667 c 0
 128.172 678 132.923 689 145.723 689 c 0
 154.522 689 182.101 686 237.3 686 c 2
 239.7 686 l 2
EndSplineSet
EndChar

StartChar: Y
Encoding: 89 89 58
Width: 612
GlyphClass: 2
Flags: HW
HStem: -6 51<211.684 296.757 364.969 470.456> 642 47<224.348 296.759 422.006 495.163>
VStem: 296.895 68<49.9095 315.178> 495.295 110.4<610 673>
DStem2: 355.295 353 448.095 427 0.527137 0.849781<-8.8333 291.714>
LayerCount: 2
Back
SplineSet
425.284 21 m 6
 424.156 13 l 6
 422.886 4 419.076 -6 408.677 -6 c 4
 404.677 -6 356.723 0 296.723 0 c 4
 235.122 0 185.477 -6 182.276 -6 c 4
 172.677 -6 163.122 0 166.226 22 c 4
 170.035 49 178.93 44 232.293 48 c 4
 243.635 49 255.493 48 258.597 70 c 6
 287.797 277 l 6
 291.182 301 287.229 307 278.755 332 c 4
 173.169 627 176.181 620 173.169 627 c 4
 161.354 651 140.273 632 134.436 653 c 4
 133.259 656 132.364 661 133.211 667 c 4
 134.48 676 140.313 689 156.313 689 c 4
 165.113 689 191.091 686 243.891 686 c 4
 296.69 686 322.713 689 331.514 689 c 4
 343.514 689 344.504 679 343.093 669 c 4
 338.86 639 328.225 643 286.86 639 c 4
 280.319 638 265.638 636 262.815 616 c 6
 262.534 614 l 6
 261.124 604 263.759 600 340.445 361 c 4
 343.835 351 344.871 347 349.671 347 c 4
 353.671 347 355.977 352 356.917 353 c 4
 505.035 558 530.208 589 534.157 617 c 4
 541.069 666 460.698 618 467.893 669 c 4
 469.021 677 474.713 689 487.514 689 c 4
 494.713 689 515.891 686 558.29 686 c 6
 560.69 686 l 5
 604.032 687 625.113 689 632.313 689 c 4
 649.113 689 653.021 677 651.893 669 c 4
 648.93 648 626.107 645 602.534 614 c 6
 460.156 427 l 5
 358.008 287 358.478 296 354.104 265 c 6
 326.597 70 l 6
 323.212 46 334.176 50 411.07 45 c 4
 425.329 44 427.26 35 425.284 21 c 6
EndSplineSet
Fore
SplineSet
500.084 642 m 4
 481.024 643 464.366 644 467.893 669 c 4
 469.021 677 474.713 689 487.514 689 c 4
 494.713 689 515.891 686 558.29 686 c 6
 560.69 686 l 5
 604.032 687 625.113 689 632.313 689 c 4
 649.113 689 653.021 677 651.893 669 c 4
 648.93 648 626.107 645 602.534 614 c 6
 460.156 427 l 5
 358.008 287 358.478 296 354.104 265 c 6
 326.597 70 l 6
 323.212 46 334.176 50 411.07 45 c 4
 425.329 44 427.26 35 425.284 21 c 6
 424.156 13 l 6
 422.886 4 419.076 -6 408.677 -6 c 4
 404.677 -6 356.723 0 296.723 0 c 4
 235.122 0 185.477 -6 182.276 -6 c 4
 172.677 -6 163.122 0 166.226 22 c 4
 170.035 49 178.93 44 232.293 48 c 4
 243.635 49 255.493 48 258.597 70 c 6
 287.797 277 l 6
 291.182 301 287.229 307 278.755 332 c 4
 173.169 627 176.181 620 173.169 627 c 4
 161.354 651 140.273 632 134.436 653 c 4
 133.259 656 132.364 661 133.211 667 c 4
 134.48 676 140.313 689 156.313 689 c 4
 165.113 689 191.091 686 243.891 686 c 4
 296.69 686 322.713 689 331.514 689 c 4
 343.514 689 344.504 679 343.093 669 c 4
 338.86 639 328.225 643 286.86 639 c 4
 280.319 638 265.638 636 262.815 616 c 6
 262.534 614 l 6
 261.124 604 263.759 600 340.445 361 c 4
 343.835 351 344.871 347 349.671 347 c 4
 353.671 347 355.977 352 356.917 353 c 4
 448.432 480 492.896 540 514.492 574 c 4
 522.867 588 532.324 604 534.016 616 c 4
 537.402 640 526.202 640 500.084 642 c 4
EndSplineSet
EndChar

StartChar: Z
Encoding: 90 90 59
Width: 562
GlyphClass: 2
Flags: HW
HStem: 0 81<209.899 477.181> 600 75<120.671 427.341> 706 20G<91.7422 101.742>
VStem: 72.1422 32.8<486.018 580.65> 78.5422 37.6<681.217 725.616> 520.942 34.4<149.472 255.763>
LayerCount: 2
Fore
SplineSet
93.0195 511 m 0xf4
 95.1348 526 107.883 571 120.579 661 c 2
 125.798 698 l 2
 128.901 720 139.348 726 146.548 726 c 0
 159.348 726 162.031 711 163.961 702 c 1xec
 165.705 686 181.753 675 204.153 675 c 2
 552.953 675 l 2
 568.953 675 570.602 664 569.614 657 c 0
 568.204 647 561.616 640 479.841 531 c 1
 338.167 349 l 1
 281.893 279 226.137 207 178.852 127 c 0
 176.828 124 173.582 118 172.735 112 c 0
 169.632 90 187.892 89 248.786 84 c 0
 274.104 82 300.362 81 326.762 81 c 2
 343.562 81 l 2
 401.962 81 442.245 83 470.567 142 c 0
 484.259 171 496.863 232 504.438 246 c 0
 506.461 249 512.249 256 521.049 256 c 0
 528.249 256 539.121 248 536.299 228 c 2
 536.158 227 l 2
 530.232 185 521.812 165 511.888 123 c 0
 496.131 51 496.042 5 463.337 0 c 1
 44.9365 0 l 1
 43.3369 0 l 2
 37.7363 0 21.0781 1 23.8994 21 c 0xf4
 25.0273 29 29.0742 35 32.9795 40 c 0xec
 162.935 224 301.502 401 444.919 567 c 0
 458.376 583 458.658 585 459.223 589 c 0
 459.787 593 459.174 600 449.573 600 c 2
 191.174 600 l 2
 151.174 600 152.399 586 125.396 508 c 0
 122.668 500 117.493 486 105.493 486 c 0
 99.0928 486 90.3389 492 93.0195 511 c 0xf4
EndSplineSet
EndChar

StartChar: bracketleft
Encoding: 91 91 60
Width: 345
GlyphClass: 2
Flags: HW
HStem: -185 25<148.991 164.377> 223 77<64.0498 103.44> 233 60<85.7111 106.742>
VStem: 61.9908 81.6<233.178 292.875> 107.591 36<-159.999 232.998 293.002 678.999> 197.191 33.6<-138.954 654.033>
LayerCount: 2
Fore
SplineSet
84.7686 -155 m 2x8c
 84.3447 -158 84.8623 -160 87.2627 -160 c 0
 91.2627 -160 104.861 -143 137.708 -137 c 0
 141.049 -136 141.331 -134 141.753 -131 c 2
 251.781 649 l 2
 253.615 662 234.745 653 207.731 677 c 0
 207.072 678 206.413 679 204.813 679 c 0
 203.213 679 202.132 677 201.708 674 c 2
 84.7686 -155 l 2x8c
194.782 744 m 0
 213.182 744 222.504 708 284.104 708 c 0
 336.904 708 380.995 737 384.995 737 c 0
 390.595 737 393.043 726 392.338 721 c 0
 390.646 709 346.087 654 289.945 653 c 0
 285.945 653 284.863 651 284.159 646 c 2
 175.918 -127 l 2
 173.097 -147 191.118 -127 229.805 -159 c 1
 247.547 -175 262.044 -197 260.633 -207 c 0
 259.787 -213 254.8 -220 249.199 -220 c 0
 242 -220 210.137 -185 149.336 -185 c 0
 94.1357 -185 62.6094 -210 53.8096 -210 c 0
 43.4092 -210 42.4209 -200 44.1133 -188 c 2
 102.513 226 l 2
 103.077 230 102.7 233 100.3 233 c 0xac
 97.1006 233 90.8887 223 79.6895 223 c 0
 61.2891 223 59.7334 246 62.2725 264 c 0
 66.3633 293 80.9512 300 90.5508 300 c 0xd4
 100.951 300 104.764 293 107.964 293 c 0xb4
 110.363 293 111.587 296 112.151 300 c 2xd4
 169.986 710 l 2
 171.82 723 176.382 744 194.782 744 c 0
EndSplineSet
EndChar

StartChar: backslash
Encoding: 92 92 61
Width: 211
GlyphClass: 2
Flags: HW
HStem: -226 21G<180.788 186.788>
VStem: 25.9883 183.2
LayerCount: 2
Fore
SplineSet
153.328 -200 m 0
 151.354 -214 129.66 -226 124.86 -226 c 0
 117.66 -226 117.33 -217 117.611 -215 c 0
 86.2832 493 81.8486 592 82.4131 596 c 0
 84.1055 608 103.916 618 110.316 618 c 0
 119.116 618 119.588 610 120.2 603 c 0
 129.053 144 156.008 -181 153.328 -200 c 0
EndSplineSet
EndChar

StartChar: bracketright
Encoding: 93 93 62
Width: 334
GlyphClass: 2
Flags: HW
HStem: -185 25<213.651 229.038> 223 77<274.589 313.979> 233 60<271.287 292.318>
VStem: 147.238 33.6<-138.954 654.033> 234.438 81.6<233.178 292.875> 234.438 36<-159.999 232.998 293.002 678.999>
LayerCount: 2
Fore
SplineSet
175.615 -155 m 2x94
 292.555 674 l 2
 292.979 677 292.46 679 290.86 679 c 0
 289.261 679 288.319 678 287.379 677 c 0
 253.593 653 237.263 662 235.429 649 c 2
 125.4 -131 l 2
 124.978 -134 124.695 -136 127.755 -137 c 0
 158.908 -143 167.71 -160 171.71 -160 c 0
 174.11 -160 175.191 -158 175.615 -155 c 2x94
319.229 744 m 0
 337.629 744 336.268 723 334.433 710 c 2
 276.598 300 l 2xd4
 276.034 296 276.411 293 278.811 293 c 0xb4
 282.011 293 287.798 300 298.198 300 c 0
 307.798 300 320.411 293 316.32 264 c 0
 313.781 246 305.736 223 287.336 223 c 0xd8
 276.137 223 272.747 233 269.548 233 c 0xb8
 267.147 233 265.924 230 265.359 226 c 2
 206.96 -188 l 2
 205.268 -200 201.456 -210 191.057 -210 c 0
 182.256 -210 157.783 -185 102.583 -185 c 0
 41.7832 -185 0.046875 -220 -7.15332 -220 c 0
 -12.7539 -220 -15.7656 -213 -14.9199 -207 c 0
 -13.5088 -197 7.19434 -175 29.4512 -159 c 1
 77.165 -127 89.543 -147 92.3652 -127 c 2
 202.206 646 l 2
 202.911 651 202.393 653 198.393 653 c 0
 142.534 654 113.492 709 115.186 721 c 0
 115.89 726 121.441 737 127.042 737 c 0
 131.042 737 166.951 708 219.752 708 c 0
 281.352 708 300.829 744 319.229 744 c 0
EndSplineSet
EndChar

StartChar: asciicircum
Encoding: 94 94 63
Width: 377
GlyphClass: 2
Flags: HW
HStem: 606 110<189.872 226.528>
VStem: 79.5306 257.6<472 492>
LayerCount: 2
Fore
SplineSet
79.3574 462 m 0
 68.957 462 63.167 472 64.8604 484 c 0
 65.9883 492 70.1758 499 73.2812 504 c 0
 191.707 697 192.552 703 211.563 713 c 0
 215.846 715 219.986 716 223.986 716 c 0
 243.187 716 251.66 691 258.203 675 c 0
 320.717 500 324.436 498 322.318 483 c 0
 320.345 469 310.274 460 299.875 460 c 0
 283.074 460 273.801 485 265.8 502 c 0
 216.329 605 218.069 606 210.87 606 c 1
 204.329 605 207.951 608 122.317 500 c 0
 105.896 480 94.5576 462 79.3574 462 c 0
EndSplineSet
EndChar

StartChar: underscore
Encoding: 95 95 64
Width: 474
GlyphClass: 2
Flags: HW
HStem: -76 55<74.3947 453.519>
LayerCount: 2
Fore
SplineSet
74.1543 -50 m 2
 74.7188 -46 l 2
 76.4121 -34 79.0449 -21 89.4453 -21 c 2
 446.246 -21 l 2
 455.846 -21 455.612 -34 453.918 -46 c 2
 453.637 -48 l 2
 451.803 -61 449.688 -76 438.487 -76 c 2
 81.6875 -76 l 2
 70.4873 -76 72.4619 -62 74.1543 -50 c 2
EndSplineSet
EndChar

StartChar: grave
Encoding: 96 96 65
Width: 202
GlyphClass: 2
Flags: HW
HStem: 474 227
VStem: 27.4805 158.4
LayerCount: 2
Fore
SplineSet
38.2715 664 m 0
 41.375 686 57.8906 701 73.0908 701 c 2
 73.8906 701 l 2
 96.291 701 106.741 673 111.966 659 c 0
 170.948 510 174.525 507 172.691 494 c 0
 171.28 484 163.47 474 154.67 474 c 2
 153.07 474 l 2
 143.47 474 143.894 477 51.9238 619 c 0
 47.3115 626 35.168 642 38.2715 664 c 0
EndSplineSet
EndChar

StartChar: a
Encoding: 97 97 66
Width: 378
GlyphClass: 2
Flags: HW
HStem: -12 59<307.26 352.376> 193 37<169.273 247.502> 387 47<139.374 223.587>
VStem: 66.7498 59.2<48.7656 154.201> 248.35 56<76.3281 192.996 230.096 353.167>
LayerCount: 2
Fore
SplineSet
83.0166 345 m 0
 88.0947 381 152.37 434 218.771 434 c 0
 249.171 434 325.078 422 319.254 324 c 0
 318.361 312 317.468 300 315.775 288 c 2
 287.986 91 l 2
 282.485 52 300.98 47 308.98 47 c 0
 333.78 47 336.835 80 348.835 80 c 0
 352.034 80 355.471 76 354.201 67 c 0
 350.957 44 323.058 -12 281.458 -12 c 0
 245.458 -12 231.9 28 230.441 29 c 0
 229.641 29 229.782 30 228.981 30 c 0
 224.981 30 226.676 25 204.278 8 c 0
 183.763 -7 155.529 -20 125.929 -20 c 0
 70.7285 -20 41.9229 31 50.5283 92 c 2
 50.6689 93 l 2
 56.0293 131 74.9424 163 96.8232 182 c 0
 146.089 225 242.653 229 244.395 230 c 0
 250.276 232 251.782 237 252.769 244 c 2
 257.848 280 l 2
 262.361 312 262.688 337 249.933 360 c 0
 242.167 373 228.141 387 207.341 387 c 0
 161.741 387 131.254 324 129.09 320 c 0
 126.126 316 120.338 309 109.938 309 c 0
 94.7383 309 79.7715 322 83.0166 345 c 0
152.888 35 m 0
 192.087 35 220.083 69 225.07 76 c 0
 230.059 83 231.846 90 233.115 99 c 2
 236.5 123 l 1
 242.284 164 l 2
 245.669 188 245.574 193 238.375 193 c 0
 223.975 193 168.869 188 138.097 157 c 0
 126.145 146 114.806 128 111.279 103 c 0
 109.022 87 109.496 62 120.321 48 c 0
 128.369 37 142.487 35 152.888 35 c 0
EndSplineSet
EndChar

StartChar: b
Encoding: 98 98 67
Width: 435
GlyphClass: 2
Flags: HW
HStem: -19 41<167.805 310.05> 377 53<193.546 305.706> 693 20G<149.782 153.782>
VStem: 101.782 55.2<2.73671 330.126> 104.182 56<65.0945 353.728 389.001 621.937> 377.782 50.4<104.331 284.133>
LayerCount: 2
Fore
SplineSet
167.094 395 m 0xec
 166.389 390 167.848 389 169.447 389 c 0
 176.647 389 216.031 430 284.031 430 c 0
 377.631 430 427.477 341 408.856 209 c 0
 399.969 146 367.84 43 273.115 1 c 0
 237.259 -15 198.295 -19 180.694 -19 c 0
 142.295 -19 129.774 0 105.774 0 c 0
 81.7744 0 74.8125 -21 62.8125 -21 c 0
 51.6123 -21 52.2695 -5 54.2441 9 c 0xf4
 70.748 126 122.66 477 139.165 594 c 0
 140.857 606 139.022 610 132.668 616 c 0
 101.277 643 92.3828 648 93.5107 656 c 0
 94.6396 664 101.462 667 105.744 669 c 0
 192.188 709 199.951 713 203.151 713 c 0
 207.811 712 213.787 709 211.53 693 c 0
 203.207 634 171.325 425 167.094 395 c 0xec
356.059 192 m 0
 371.857 304 317.354 377 248.555 377 c 0
 211.755 377 158.205 349 155.242 328 c 2
 119.131 72 l 2
 118.849 70 117.625 67 117.344 65 c 0
 115.65 53 116.263 46 125.158 41 c 0
 146.665 29 170.478 22 196.078 22 c 0
 277.678 22 341.812 91 356.059 192 c 0
EndSplineSet
EndChar

StartChar: c
Encoding: 99 99 68
Width: 344
GlyphClass: 2
Flags: HW
HStem: -18 64<173.5 279.161> 376 52<153.489 240.754>
VStem: 53.2133 52.8<134.62 305.205>
LayerCount: 2
Fore
SplineSet
175.356 -18 m 0
 83.3564 -18 34.7344 74 52.085 197 c 0
 71.2695 333 153.47 428 255.87 428 c 0
 313.47 428 352.392 392 347.031 354 c 0
 343.787 331 326.471 316 309.671 316 c 0
 272.871 316 267.735 376 221.335 376 c 0
 172.535 376 120.261 306 108.412 222 c 0
 95.293 129 136.385 46 209.984 46 c 0
 272.385 46 296.802 100 315.201 100 c 0
 322.401 100 327.814 93 326.403 83 c 0
 325.558 77 322.311 71 319.347 67 c 0
 287.54 23 235.356 -18 175.356 -18 c 0
EndSplineSet
EndChar

StartChar: d
Encoding: 100 100 69
Width: 443
GlyphClass: 2
Flags: HW
HStem: -21 52<192.729 309.216> 383 40<175.692 303.196> 694 20G<377.42 382.22>
VStem: 61.4196 53.6<127.427 307.105> 331.82 56.8<69.2324 354.672 408.003 610.663>
LayerCount: 2
Fore
SplineSet
243.862 383 m 0
 162.262 383 111.352 317 97.1045 216 c 0
 79.6133 92 155.009 31 210.208 31 c 0
 240.608 31 281.406 48 291.474 74 c 0
 294.203 82 295.99 89 297.119 97 c 2
 328.717 321 l 2
 329.703 328 330.691 335 324.102 345 c 0
 304.052 373 273.462 383 243.862 383 c 0
251.104 423 m 2
 303.104 423 331.389 408 335.389 408 c 0
 339.389 408 341.553 412 342.258 417 c 2
 365.956 585 l 2
 368.777 605 363.177 605 323.739 626 c 0
 318.422 628 309.387 632 310.797 642 c 0
 311.643 648 316.867 651 319.549 653 c 0
 411.684 705 428.153 714 431.354 714 c 0
 437.753 714 440.106 708 438.979 700 c 0
 434.323 667 418.24 570 390.874 376 c 0
 376.909 277 352.271 91 351.803 82 c 0
 350.486 67 358.909 70 387.428 68 c 0
 388.228 68 402.628 68 400.652 54 c 0
 398.536 39 383.336 39 348.093 16 c 1
 307.766 -9 294.686 -28 286.686 -28 c 0
 284.286 -28 280.427 -27 281.696 -18 c 2
 286.352 15 l 2
 286.634 17 285.974 18 285.174 18 c 0
 282.774 18 246.873 -21 184.474 -21 c 0
 79.6738 -21 24.4619 81 42.2354 207 c 0
 56.9053 311 123.904 423 250.305 423 c 2
 251.104 423 l 2
EndSplineSet
EndChar

StartChar: e
Encoding: 101 101 70
Width: 369
GlyphClass: 2
Flags: HW
HStem: -19 57<174.875 289.576> 376 55<146.666 241.268>
VStem: 59.8915 56.8<115.769 316.359> 274.291 77.6<292.942 337.386>
LayerCount: 2
Fore
SplineSet
59.8916 206 m 0
 79.6396 346 159.631 431 239.631 431 c 0
 294.831 431 341.283 386 363.688 335 c 0
 366.183 330 368.255 322 366.985 313 c 2
 366.844 312 l 2
 362.611 282 319.602 272 294.99 262 c 0
 119.376 191 114.717 192 113.447 183 c 0
 111.754 171 110.593 38 211.394 38 c 0
 246.593 38 284.474 57 313.506 87 c 0
 318.21 92 325.88 101 333.88 101 c 0
 341.079 101 345.834 95 344.564 86 c 0
 344 82 341.553 76 336.707 70 c 0
 296.431 17 239.353 -19 182.553 -19 c 0
 116.952 -19 35.7695 35 59.8916 206 c 0
288.962 310 m 0
 290.654 322 259.072 376 214.272 376 c 0
 167.872 376 129.854 322 117.3 233 c 0
 116.454 227 118.713 226 120.312 226 c 0
 122.712 226 278.328 297 280.069 298 c 0
 285.292 301 288.397 306 288.962 310 c 0
EndSplineSet
EndChar

StartChar: f
Encoding: 102 102 71
Width: 272
GlyphClass: 2
Flags: HW
HStem: -6 45<53.7357 103.147 161.682 223.272> 359 52<47.9407 105.209 161.73 264.205> 653 67<218.827 315.217>
VStem: 106.482 55.2<38.7292 358.944 411.182 564.612>
LayerCount: 2
Fore
SplineSet
14.4756 -6 m 0
 4.07617 -6 4.45117 8 6.00293 19 c 0
 8.25977 35 15.9775 33 46.4238 39 c 0
 58.7061 41 59.3164 51 61.8096 63 c 0
 66.9365 88 78.1279 156 105.494 350 c 0
 107.187 362 102.764 359 64.5049 360 c 0
 59.7051 360 47.7051 360 50.2441 378 c 0
 53.4883 401 60.875 408 71.2754 408 c 0
 111.558 410 111.793 406 113.486 418 c 2
 113.628 419 l 1
 119.929 458 136.343 546 175.111 611 c 1
 216.703 679 288.087 720 336.887 720 c 0
 380.087 720 390.114 689 387.152 668 c 0
 384.471 649 369.65 629 348.051 629 c 0
 325.65 629 309.835 653 285.035 653 c 0
 228.235 653 188.53 553 172.025 436 c 2
 170.756 427 l 2
 168.922 414 169.298 411 176.498 411 c 2
 254.898 411 l 2
 264.498 411 271.935 407 269.678 391 c 2
 269.536 390 l 2
 268.267 381 263.563 359 244.364 359 c 2
 169.164 359 l 2
 164.364 359 161.823 358 160.835 351 c 2
 120.351 64 l 1
 119.928 61 l 2
 118.517 51 117.483 38 132.541 37 c 0
 168.777 33 178.424 39 175.179 16 c 0
 173.487 4 168.876 -6 159.276 -6 c 0
 156.876 -6 126.522 0 88.1221 0 c 0
 48.9219 0 16.876 -6 14.4756 -6 c 0
EndSplineSet
EndChar

StartChar: g
Encoding: 103 103 72
Width: 398
GlyphClass: 2
Flags: HW
HStem: -234 47<161.194 319.884> -30 44<152.956 308.236> 112 35<169.56 249.092> 351 101<337.169 368.926> 399 34<158.049 236.34>
VStem: 64.5907 62.4<200.871 354.327> 68.5907 44.8<-139.464 -47.0017> 82.1907 40.8<19.8401 100.604> 280.591 57.6<197.295 342.215> 345.391 46.4<-158.727 -67.4462>
LayerCount: 2
Fore
SplineSet
237.499 399 m 0xecc0
 197.499 399 161.691 355 152.382 289 c 0
 141.803 214 165.15 147 214.751 147 c 0
 257.951 147 292.863 196 301.608 258 c 0
 311.482 328 288.699 399 237.499 399 c 0xecc0
85.6016 -88 m 0xe2c0
 77.1377 -148 128.438 -187 202.037 -187 c 0
 284.438 -187 309.843 -143 313.934 -114 c 0
 319.013 -78 298.352 -60 290.256 -55 c 0
 257.501 -32 206.632 -41 124.982 -30 c 1
 122.583 -30 l 2
 116.982 -30 114.019 -34 107.432 -41 c 0
 96.1387 -53 87.999 -71 85.6016 -88 c 0xe2c0
88.2891 277 m 0xf4c0
 100.139 361 165.495 433 239.895 433 c 0xecc0
 297.495 433 318.017 397 335.616 397 c 0
 350.816 397 368.65 410 381.73 429 c 0
 386.858 437 395.375 452 408.175 452 c 0
 423.375 452 435.612 431 432.792 411 c 0
 427.29 372 374.915 358 366.728 351 c 0
 364.845 349 362.822 346 362.399 343 c 0
 361.553 337 367.673 318 362.312 280 c 0
 349.335 188 281.014 112 205.813 112 c 0
 179.414 112 171.084 121 160.684 121 c 0
 146.283 121 120.593 92 117.489 70 c 0xf1c0
 109.025 10 246.435 37 305.59 14 c 0
 353.451 -4 368.938 -53 362.732 -97 c 0
 354.974 -152 309.007 -234 177.007 -234 c 0
 45.8066 -234 31.4912 -154 37.9805 -108 c 0xf2c0
 46.585 -47 90.9121 -22 91.8525 -21 c 0
 92.7939 -20 93.7344 -19 94.0176 -17 c 0
 94.8633 -11 66.5332 -2 72.8809 43 c 0xf1c0
 80.0752 94 130.8 136 131.741 137 c 0
 132.681 138 132.822 139 132.964 140 c 0
 134.374 150 108.397 153 93.1914 204 c 0
 85.8945 226 84.6211 251 88.2891 277 c 0xf4c0
EndSplineSet
EndChar

StartChar: h
Encoding: 104 104 73
Width: 450
GlyphClass: 2
Flags: HW
HStem: -6 42<56.6035 104.281 274.19 334.134 395.433 438.17> 371 51<193.425 283.85> 699 20G<151.382 157.382>
VStem: 109.382 52.8<39.8055 348.283 385.001 609.081> 335.782 59.2<38.0009 293.71>
LayerCount: 2
Fore
SplineSet
225.022 8 m 2
 226.01 15 l 2
 228.972 36 238.808 32 274.854 38 c 0
 291.277 41 292.405 49 303.127 125 c 0
 323.438 269 310.541 308 294.35 335 c 1
 281.17 355 260.228 371 234.628 371 c 0
 200.228 371 164.937 342 158.115 322 c 0
 156.751 318 156.187 314 155.481 309 c 0
 154.635 303 121.627 69 122.239 62 c 0
 122.573 19 180.688 51 175.609 15 c 0
 174.34 6 171.047 -6 163.847 -6 c 0
 161.447 -6 130.294 0 91.0938 0 c 0
 50.2939 0 17.4473 -6 15.0469 -6 c 0
 5.44727 -6 6.99902 5 8.26855 14 c 0
 10.667 31 17.7256 30 40.9717 36 c 0
 59.9355 40 62.1934 56 64.9678 70 c 0
 80.2051 161 94.7822 253 107.761 345 c 2
 108.324 349 l 2
 119.75 430 139.638 588 139.685 594 c 0
 139.211 619 85.1416 610 88.8086 636 c 0
 90.502 648 102.548 654 104.289 655 c 0
 198.634 717 199.718 719 205.317 719 c 2
 206.117 719 l 2
 210.917 719 217.694 716 215.437 700 c 2
 171.19 392 l 2
 170.343 386 172.603 385 174.202 385 c 0
 179.002 385 219.422 422 273.822 422 c 0
 326.622 422 357.262 384 368.186 331 c 0
 377.556 284 377.182 253 354.004 66 c 0
 350.054 38 359.513 37 379.09 34 c 0
 385.349 33 392.126 30 390.151 16 c 0
 387.611 -2 383.047 -6 376.646 -6 c 0
 374.247 -6 344.694 0 304.694 0 c 0
 266.294 0 234.247 -6 231.847 -6 c 0
 224.646 -6 224.034 1 225.022 8 c 2
EndSplineSet
EndChar

StartChar: i
Encoding: 105 105 74
Width: 217
GlyphClass: 2
Flags: HW
HStem: -6 44<37.7961 97.7339 154.262 206.48> 421 20<142.887 148.087> 571 94<112.9 176.622>
VStem: 98.4873 53.6<39.1511 336.573> 106.487 76.8<579.719 656.984>
LayerCount: 2
Fore
SplineSet
147.184 618 m 0xe8
 150.852 644 171.413 665 192.213 665 c 0
 213.013 665 227.651 644 224.125 619 c 0
 220.316 592 198.954 571 178.153 571 c 0
 157.354 571 143.374 591 147.184 618 c 0xe8
EndSplineSet
Refer: 203 305 S 1 0 0 1 0 0 2
EndChar

StartChar: j
Encoding: 106 106 75
Width: 203
GlyphClass: 2
Flags: HW
HStem: -231 77<-5.96517 61.431> 422 20<140.048 144.448> 558 93<107.399 171.383>
VStem: 94.0482 56.8<-117.424 346.052> 101.248 76.8<566.659 643.248>
LayerCount: 2
Fore
SplineSet
156.826 604 m 0xe8
 160.635 631 181.057 651 201.856 651 c 0
 222.656 651 237.435 631 233.768 605 c 0
 230.1 579 208.737 558 187.937 558 c 0
 167.137 558 153.159 578 156.826 604 c 0xe8
EndSplineSet
Refer: 262 567 S 1 0 0 1 0 0 2
EndChar

StartChar: k
Encoding: 107 107 76
Width: 401
GlyphClass: 2
Flags: HW
HStem: -4 38<146.593 199.937 339.191 394.404> 370 45<293.221 375.023> 698 20G<136.01 141.61>
VStem: 92.0098 54.4<37.2274 171.859 225.001 625.327> 232.81 142.4<335 403.957>
LayerCount: 2
Fore
SplineSet
169.085 12 m 2
 174.445 50 208.095 22 212.326 52 c 0
 215.43 74 151.322 198 150.663 199 c 0
 150.805 200 149.345 201 147.745 201 c 0
 142.945 201 122.618 176 121.255 172 c 0
 120.031 169 119.467 165 118.902 161 c 2
 104.373 58 l 2
 101.552 38 108.094 39 137.788 34 c 0
 144.706 32 153.883 29 151.626 13 c 0
 149.65 -1 142.827 -4 138.027 -4 c 0
 132.428 -4 114.592 0 76.9922 0 c 0
 39.3916 0 20.4277 -4 14.0273 -4 c 0
 3.62793 -4 1.97949 7 2.9668 14 c 0
 7.7627 48 42.3545 21 49.6914 56 c 1
 125.725 595 l 2
 127.558 608 125.862 613 119.509 619 c 0
 108.261 630 87.8818 650 87.2227 651 c 0
 84.5869 655 85.1514 659 85.1514 659 c 1
 86.7031 670 98.4678 674 103.55 676 c 0
 185.474 718 185.474 718 188.674 718 c 0
 196.674 718 196.063 708 195.076 701 c 2
 128.494 229 l 2
 128.213 227 127.931 225 130.331 225 c 0
 131.931 225 134.613 227 135.694 229 c 0
 219.731 320 228.155 323 231.54 347 c 0
 235.631 376 214.69 375 216.664 389 c 2
 218.075 399 l 2
 219.486 409 227.909 412 236.709 412 c 2
 283.109 412 l 2
 335.909 412 362.732 415 371.532 415 c 0
 380.332 415 382.545 408 380.853 396 c 0
 377.185 370 362.595 380 330.785 370 c 0
 293.092 358 259.731 320 198.28 253 c 0
 194.517 249 191.834 247 191.41 244 c 0
 190.706 239 190.988 241 264.181 102 c 0
 280.607 71 298.353 38 335.906 32 c 0
 341.364 31 348.282 29 346.308 15 c 0
 344.615 3 340.146 -6 330.546 -6 c 0
 328.146 -6 296.192 0 254.592 0 c 0
 213.792 0 179.346 -6 176.946 -6 c 0
 172.946 -6 166.827 -4 168.943 11 c 2
 169.085 12 l 2
EndSplineSet
EndChar

StartChar: l
Encoding: 108 108 77
Width: 209
GlyphClass: 2
Flags: HW
HStem: -5 43<32.2067 86.3967 146.365 200.128> 703 20G<132.603 139.403>
VStem: 87.4026 58.4<39.238 609.091>
LayerCount: 2
Fore
SplineSet
151.606 14 m 0
 149.914 2 147.186 -6 139.186 -6 c 0
 136.786 -6 104.832 0 64.832 0 c 0
 26.4326 0 -5.47363 -5 -7.87305 -5 c 0
 -18.2734 -5 -17.5215 6 -16.5342 13 c 2
 -16.1104 16 l 2
 -13.4307 35 -7.97168 34 19.792 38 c 0
 41.0156 41 44.7314 56 47.5527 76 c 2
 119.353 585 l 2
 121.469 600 116.669 600 104.48 610 c 0
 75.8652 634 66.0293 638 67.5811 649 c 2
 67.7217 650 l 2
 68.8506 658 70.168 656 175.854 719 c 0
 178.538 721 182.02 723 186.02 723 c 0
 195.619 723 195.809 713 194.539 704 c 2
 105.247 71 l 2
 100.733 39 109.816 41 140.828 34 c 0
 150.146 32 153.441 27 151.606 14 c 0
EndSplineSet
EndChar

StartChar: m
Encoding: 109 109 78
Width: 644
GlyphClass: 2
Flags: HMW
HStem: -6 43<178.271 231.57 259.671 322.655 375.775 430.059 473.428 526.819 584.178 633.243> 371 51<207.098 295.356 400.274 493.227> 414 20G<166.863 172.463>
VStem: 128.463 49.6<36.1465 331.765> 323.663 52.8<38.0512 337.462> 526.863 56.8<37.4201 324.172>
LayerCount: 2
Fore
SplineSet
202.798 378 m 0xdc
 206.798 378 247.404 422 295.404 422 c 0
 347.404 422 372.587 368 374.047 367 c 0
 374.705 366 375.505 366 377.104 366 c 0
 383.505 366 381.011 371 414.513 393 c 0
 452.44 418 481.004 422 496.204 422 c 0
 537.004 422 581.995 395 588.828 313 c 0
 592.269 275 586.767 236 581.124 196 c 2
 563.21 69 l 2
 558.695 37 567.118 40 596.39 32 c 0
 606.508 30 606.038 21 605.051 14 c 0
 603.781 5 600.63 -6 590.229 -6 c 0
 583.83 -6 563.876 0 523.876 0 c 0
 483.076 0 461.43 -6 455.029 -6 c 0
 450.229 -6 442.794 -2 444.628 11 c 0
 447.449 31 452.768 29 485.896 37 c 0
 502.318 40 503.729 50 505.704 64 c 2
 525.312 203 l 2
 532.646 255 538.852 316 513.106 349 c 0
 506.235 357 491.41 371 466.61 371 c 0
 431.41 371 389.437 340 387.321 325 c 0
 387.18 324 388.736 301 382.671 258 c 2
 355.445 65 l 2
 355.021 62 353.94 60 353.517 57 c 2
 353.376 56 l 2
 350.695 37 357.378 39 389.472 34 c 0
 399.59 32 403.544 26 401.992 15 c 0
 400.723 6 397.43 -6 388.63 -6 c 0
 386.229 -6 355.076 0 315.076 0 c 0
 275.076 0 241.43 -6 239.83 -6 c 0
 230.229 -6 229.899 3 231.733 16 c 0
 233.99 32 243.309 30 277.896 37 c 0
 296.06 41 300.671 51 304.056 75 c 2
 330.152 260 l 2
 334.808 293 336.263 326 316.824 347 c 0
 305.059 360 286.61 371 264.211 371 c 0xdc
 229.011 371 204.26 343 197.909 332 c 0
 195.604 327 193.157 321 191.041 306 c 2
 157.046 65 l 2
 152.954 36 160.437 38 194.649 31 c 0
 205.567 29 204.298 20 202.887 10 c 0
 201.617 1 197.43 -6 190.229 -6 c 0
 187.83 -6 159.876 0 123.076 0 c 0
 87.876 0 69.7119 -4 64.1113 -4 c 0
 54.5117 -4 54.3223 6 55.7324 16 c 0
 60.1064 47 97.8975 20 106.74 60 c 1
 141.724 308 l 2
 144.545 328 142.003 327 116.354 355 c 0
 114.235 357 109.999 361 110.846 367 c 0
 112.115 376 111.692 373 183.827 425 c 0
 193.474 431 195.497 434 200.297 434 c 0xbc
 206.697 434 206.51 427 205.804 422 c 2
 200.444 384 l 2
 200.021 381 200.397 378 202.798 378 c 0xdc
EndSplineSet
EndChar

StartChar: n
Encoding: 110 110 79
Width: 442
GlyphClass: 2
Flags: HW
HStem: -6 42<51.7878 103.098 159.351 219.514 278.126 332.429 384.69 434.076> 384 49<202.345 296.7>
VStem: 103.697 55.2<38.2075 347.206> 332.497 52<36.1777 339.27>
LayerCount: 2
Fore
SplineSet
178.549 377 m 0
 178.126 374 179.584 373 180.384 373 c 2
 181.184 373 l 2
 184.384 373 230.308 432 299.248 433 c 1
 300.848 433 l 2
 336.848 433 403.627 413 394.135 289 c 0
 393.338 272 390.939 255 388.542 238 c 0
 386.144 221 382.804 203 363.338 65 c 2
 363.055 63 l 2
 359.105 35 369.788 37 397.082 32 c 0
 407.201 30 406.731 21 405.744 14 c 0
 403.346 -3 395.722 -6 390.922 -6 c 0
 383.722 -6 364.568 0 324.568 0 c 0
 289.369 0 259.722 -6 258.121 -6 c 0
 248.521 -6 248.333 4 249.744 14 c 0
 252.282 32 261.601 30 294.588 37 c 0
 305.271 39 308.375 44 310.773 61 c 2
 332.639 216 l 2
 335.178 234 342.841 294 337.473 324 c 0
 327.066 375 284.336 384 265.936 384 c 0
 219.536 384 180.106 337 174.367 319 c 0
 173.003 315 172.298 310 171.733 306 c 2
 138.302 69 l 1
 137.879 66 l 2
 136.327 55 135.152 41 151.528 38 c 0
 184.142 31 194.023 33 190.92 11 c 0
 189.51 1 185.181 -7 177.98 -7 c 0
 175.581 -7 143.769 0 104.568 0 c 0
 66.1689 0 35.7217 -6 33.3213 -6 c 0
 28.5215 -6 21.0869 -2 23.0615 12 c 0
 25.8828 32 32.1416 31 57.6465 36 c 0
 78.2109 40 80.8447 53 83.2432 70 c 2
 116.957 309 l 2
 120.342 333 120.06 331 88.8564 365 c 0
 86.8799 368 84.9023 371 85.4658 375 c 2
 85.6074 376 l 2
 86.7354 384 88.1953 383 169.648 433 c 0
 172.33 435 175.013 437 178.213 437 c 0
 185.413 437 186.825 430 185.696 422 c 2
 180.195 383 l 2
 179.913 381 178.689 378 178.549 377 c 0
EndSplineSet
EndChar

StartChar: o
Encoding: 111 111 80
Width: 420
GlyphClass: 2
Flags: HW
HStem: -19 49<180.318 290.883> 385 47<179.192 284.044>
VStem: 63.4515 62.4<107.025 304.389> 349.051 54.4<109.681 295.193>
LayerCount: 2
Fore
SplineSet
63.0996 204 m 0
 82.7061 343 178.461 432 268.062 432 c 0
 363.261 432 422.001 338 403.1 204 c 0
 382.928 61 290.842 -19 201.242 -19 c 0
 99.6426 -19 45.748 81 63.0996 204 c 0
210.554 30 m 0
 278.554 30 335.58 111 348.135 200 c 0
 363.229 307 316.632 385 255.831 385 c 0
 214.231 385 145.105 343 126.204 209 c 0
 111.533 105 144.954 30 210.554 30 c 0
EndSplineSet
EndChar

StartChar: p
Encoding: 112 112 81
Width: 440
GlyphClass: 2
Flags: HW
HStem: -228 46<56.1727 118.91> -220 42<178.453 258.911> -7 34<191.745 298.121> 372 59<207.723 302.448> 421 20G<153.105 157.505>
VStem: 119.905 58.4<-177.901 -1.00293> 119.905 52<45.2268 333.699> 371.905 53.6<117.256 282.885>
LayerCount: 2
Fore
SplineSet
234.291 27 m 0x33
 299.091 27 370.283 95 384.389 195 c 0
 398.072 292 349.356 372 285.356 372 c 0
 274.956 372 253.216 371 229.595 351 c 0
 209.738 335 201.739 318 197.649 289 c 2
 167.321 74 l 2
 166.052 65 164.641 55 183.748 43 c 0
 198.337 33 215.891 27 234.291 27 c 0x33
320.079 431 m 0
 408.88 431 457.173 331 440.811 215 c 0
 422.049 82 330.295 -7 219.095 -7 c 0
 191.895 -7 170.341 -1 168.741 -1 c 0
 163.941 -1 162.577 -5 161.589 -12 c 2
 142.264 -149 l 1
 141.841 -152 l 2
 140.43 -162 139.256 -176 155.773 -178 c 0
 202.927 -184 219.773 -178 215.4 -209 c 0
 214.271 -217 210.884 -224 203.685 -224 c 0
 196.484 -224 173.849 -220 129.049 -220 c 0x75
 70.6484 -220 25.5195 -228 21.5195 -228 c 0
 16.7197 -228 9.14355 -225 11.541 -208 c 0
 14.0801 -190 23.3984 -192 61.6094 -182 c 0
 74.832 -179 80.7607 -171 83.1582 -154 c 2xa5
 148.329 308 l 1
 148.611 310 l 2
 149.317 315 149.927 325 141.032 330 c 0
 93.123 359 91.3828 358 92.3691 365 c 2
 92.5107 366 l 2
 93.3564 372 94.8164 371 187.562 433 c 0
 196.267 438 198.29 441 202.29 441 c 0xab
 207.09 441 207.985 436 207.139 430 c 2
 198.816 371 l 2
 198.393 368 198.77 365 200.369 365 c 0
 204.369 365 237.588 419 301.539 430 c 0
 308.079 431 313.68 431 320.079 431 c 0
EndSplineSet
EndChar

StartChar: q
Encoding: 113 113 82
Width: 473
GlyphClass: 2
Flags: HW
HStem: -235 45<285.748 349.82> -225 36<415.712 465.895> -9 61<203.562 322.174> 401 33<201.452 321.072> 426 20G<396.947 404.947>
VStem: 66.1473 57.6<150.894 302.179> 352.547 58.4<-182.941 28.9978 78.3765 371.626>
LayerCount: 2
Fore
SplineSet
302.23 401 m 0x36
 227.03 401 154.993 327 141.732 233 c 0
 127.344 131 185 52 264.2 52 c 0
 293.8 52 330.175 66 342.268 78 c 0
 349.797 86 352.007 96 353.699 108 c 0
 356.944 131 360.33 155 384.449 343 c 0
 386.564 358 385.012 364 377.34 372 c 0
 356.821 391 330.23 401 302.23 401 c 0x36
81.3115 213 m 0
 94.7119 308 168.486 434 326.087 434 c 0xb6
 375.687 434 404.252 421 415.452 421 c 0
 438.652 421 440.578 446 449.379 446 c 0
 456.578 446 456.486 434 450.421 391 c 0
 449.15 382 448.682 373 447.411 364 c 2
 376.458 -139 l 2
 370.251 -183 382.91 -184 413.404 -189 c 0
 420.322 -191 423.759 -195 422.631 -203 c 0
 421.361 -212 416.326 -225 405.127 -225 c 0x6e
 400.326 -225 387.808 -223 361.408 -223 c 0
 300.608 -223 254.916 -235 251.716 -235 c 0
 242.916 -235 238.304 -228 239.855 -217 c 0
 242.676 -197 257.076 -197 287.664 -190 c 0xa6
 310.91 -184 314.249 -166 316.506 -150 c 2
 340.768 22 l 2
 341.333 26 340.156 29 336.956 29 c 0
 329.756 29 292.396 -9 228.396 -9 c 0
 131.596 -9 63.9609 90 81.3115 213 c 0
EndSplineSet
EndChar

StartChar: r
Encoding: 114 114 83
Width: 322
GlyphClass: 2
Flags: HW
HStem: -6 44<46.2071 96.3268 154.285 232.287> 346 100<234.488 300.68>
VStem: 96.3268 57.6<38.4622 329.719>
LayerCount: 2
Fore
SplineSet
174.474 377 m 0
 177.674 377 243.832 432 266.843 442 c 0
 274.466 445 281.807 446 290.606 446 c 0
 316.207 446 350.749 430 346.801 402 c 2
 346.659 401 l 1
 343.461 384 327.51 373 320.122 366 c 1
 310.335 359 298.101 346 284.5 346 c 0
 264.5 346 267.227 371 240.827 371 c 0
 215.227 371 178.712 339 172.644 330 c 0
 168.597 324 167.892 319 166.904 312 c 2
 133.049 72 l 1
 132.485 68 l 2
 130.934 57 129.336 40 148.253 38 c 0
 195.549 33 206.513 37 203.269 14 c 0
 202.14 6 199.646 -6 189.247 -6 c 0
 186.847 -6 152.493 0 109.293 0 c 0
 64.4932 0 29.2471 -6 26.8467 -6 c 0
 18.8467 -6 15.0342 1 16.4443 11 c 0
 19.8311 35 33.3838 29 55.9717 36 c 0
 67.5947 39 71.6406 45 73.7568 60 c 2
 111.139 325 l 2
 113.96 345 107.418 344 74.6143 378 c 0
 73.9561 379 72.6377 381 72.4014 385 c 1
 73.1074 390 73.625 388 164.019 439 c 0
 166.561 440 169.243 442 171.643 442 c 0
 180.442 442 179.69 431 178.421 422 c 2
 172.778 382 l 2
 172.355 379 172.874 377 174.474 377 c 0
EndSplineSet
EndChar

StartChar: s
Encoding: 115 115 84
Width: 301
GlyphClass: 2
Flags: HW
HStem: -19 54<116.482 224.048> 380 47<110.474 201.032> 412 20G<226.738 236.338>
VStem: 52.3377 32.8<71.0105 155.78> 56.3377 43.2<283.553 367.539> 215.538 44<295.352 359.134> 241.138 53.6<56.0454 149.045>
LayerCount: 2
Fore
SplineSet
70.7959 309 m 0xca
 79.2607 369 130.642 427 202.642 427 c 0xca
 226.642 427 237.937 422 241.937 422 c 0
 249.136 422 253.747 432 263.348 432 c 0
 272.947 432 273.372 418 273.467 413 c 0
 273.33 378 274.42 312 273.855 308 c 0xac
 272.021 295 259.599 292 253.198 292 c 0xa2
 236.398 292 242.889 321 234.511 341 c 0
 226.649 359 200.812 380 174.412 380 c 0
 147.212 380 121.05 359 116.535 327 c 0xcc
 114.561 313 113.342 276 169.579 255 c 0
 208.404 241 245.582 238 269.116 195 c 0
 285.685 165 284.229 132 281.972 116 c 0
 272.944 52 220.528 -19 141.328 -19 c 0
 104.528 -19 56.3857 -3 37.9814 31 c 0
 31.5332 42 31.0615 50 33.1777 65 c 0
 36.9863 92 38.8662 111 40.8408 125 c 0
 44.5088 151 47.6143 156 59.6143 156 c 0
 79.6143 156 62.0186 122 69.2686 94 c 0xd2
 74.3057 73 105.745 35 152.146 35 c 0
 188.146 35 220.755 62 226.396 102 c 0
 235.706 168 166.718 178 142.388 187 c 0
 80.8311 210 63.8848 260 70.7959 309 c 0xca
EndSplineSet
EndChar

StartChar: t
Encoding: 116 116 85
Width: 303
GlyphClass: 2
Flags: HW
HStem: -19 65<162.265 229.798> 363 54<161.599 269.444>
VStem: 96.7947 56<56.8354 362.954>
LayerCount: 2
Fore
SplineSet
84.7344 365 m 2
 77.5342 365 68.876 366 70.5684 378 c 0
 72.9668 395 115.506 413 171.683 505 c 0
 174.788 510 181.422 523 190.222 523 c 0
 195.021 523 200.199 520 198.365 507 c 0
 196.391 493 189.666 451 187.69 437 c 0
 185.293 420 191.27 417 200.87 417 c 2
 272.87 417 l 2
 275.27 417 276.729 416 279.129 416 c 0
 286.329 416 299.929 416 297.248 397 c 0
 296.402 391 290.805 374 285.958 368 c 0
 282.194 364 278.053 363 270.853 363 c 2
 177.252 363 l 2
 171.652 363 168.971 361 167.982 354 c 0
 140.805 167 137.561 144 134.175 120 c 0
 129.238 85 130.937 46 164.536 46 c 0
 202.937 46 242.6 106 260.199 106 c 0
 269 106 273.33 97 272.061 88 c 0
 270.933 80 266.086 74 264.062 71 c 0
 230.42 31 184.168 -19 140.168 -19 c 0
 108.167 -19 68.917 9 76.5771 103 c 0
 77.3281 114 78.7383 124 80.291 135 c 0
 86.4971 179 111.562 334 114.665 356 c 0
 115.37 361 115.135 365 110.335 365 c 2
 84.7344 365 l 2
EndSplineSet
EndChar

StartChar: u
Encoding: 117 117 86
Width: 454
GlyphClass: 2
Flags: HW
HStem: -14 21G<346.6 353.001> 377 38<56.2684 101.723 272.287 335.852>
VStem: 101.801 54.4<95.1389 375.136> 337.001 56.8<69.1563 373.706>
LayerCount: 2
Fore
SplineSet
314.031 33 m 0
 310.031 33 262.037 -18 195.638 -18 c 0
 130.837 -18 90.3135 35 93.6914 127 c 0
 94.9131 147 96.9346 167 99.8955 188 c 0
 104.41 220 121.149 333 123.406 349 c 0
 124.676 358 125.945 367 105.757 377 c 1
 92.4854 385 81.5205 381 83.9189 398 c 2
 84.3418 401 l 2
 85.3291 408 86.9766 414 95.1172 415 c 0
 162.222 420 171.164 421 179.164 421 c 0
 185.563 421 186.458 416 185.471 409 c 2
 156.553 204 l 2
 152.321 174 147.103 137 156.424 101 c 0
 164.851 70 189.372 34 231.772 34 c 0
 262.173 34 287.912 52 304.851 70 c 1
 319.249 87 320.99 88 322.683 100 c 2
 357.384 346 l 2
 361.333 374 349.192 373 309.662 382 c 0
 301.944 384 298.509 388 299.919 398 c 0
 301.753 411 306.977 414 313.518 415 c 0
 392.341 418 402.082 419 412.482 419 c 0
 423.682 419 423.071 409 421.66 399 c 2
 377.508 86 l 2
 375.815 74 381.038 77 413.276 56 c 0
 418.452 53 418.829 50 417.983 44 c 0
 413.751 14 405.796 37 330.366 -10 c 0
 327.684 -12 324.202 -14 321.002 -14 c 0
 311.402 -14 311.213 -4 312.623 6 c 2
 315.868 29 l 2
 316.432 33 314.832 33 314.031 33 c 0
EndSplineSet
EndChar

StartChar: v
Encoding: 118 118 87
Width: 447
GlyphClass: 2
Flags: HW
HStem: -25 21G<257.859 267.06> 374 41<170.264 231.047 294.311 353.448>
VStem: 57.4595 112.8<349.5 406> 353.46 90.4<351 401>
LayerCount: 2
Fore
SplineSet
322.612 396 m 2
 323.318 401 l 2
 324.306 408 327.693 415 334.894 415 c 0
 341.293 415 360.07 412 398.47 412 c 0
 436.87 412 456.493 415 462.894 415 c 0
 472.493 415 473.623 406 472.212 396 c 0
 467.558 363 437.484 388 423.981 366 c 0
 420.734 360 420.452 358 416.359 346 c 0
 348.1 157 260.729 -3 249.296 -16 c 0
 245.39 -21 239.226 -25 232.826 -25 c 0
 220.826 -25 215.602 -11 210.799 6 c 0
 140.42 233 127.419 345 118.758 363 c 0
 106.284 388 81.1582 363 86.6592 402 c 0
 87.7881 410 91.6934 415 98.0928 415 c 0
 106.093 415 128.069 412 173.67 412 c 0
 220.07 412 242.894 415 250.894 415 c 0
 260.493 415 260.823 406 259.272 395 c 0
 255.745 370 239.556 380 211.509 374 c 1
 201.769 373 194.381 366 192.971 356 c 0
 191.137 343 210.635 209 250.226 87 c 0
 250.884 86 252.296 79 256.296 79 c 0
 258.696 79 260.86 83 261.002 84 c 0
 340.562 217 374.337 343 376.594 359 c 0
 379.273 378 362.191 376 332.215 379 c 0
 328.355 380 320.355 380 322.612 396 c 2
EndSplineSet
EndChar

StartChar: w
Encoding: 119 119 88
Width: 684
GlyphClass: 2
Flags: HW
HStem: -25 109<270.529 294.908 495.047 519.744> 376 39<397.999 462.73 534.805 597.836 640.983 682.619>
LayerCount: 2
Fore
SplineSet
701.765 415 m 0
 709.765 415 712.777 408 711.366 398 c 0
 707.699 372 690.805 377 683.463 376 c 0
 647.794 367 664.743 300 493.624 0 c 0
 482.944 -19 476.498 -25 467.698 -25 c 0
 452.498 -25 447.225 0 421.897 87 c 1
 388.707 209 389.647 210 386.447 210 c 0
 384.048 210 384.048 210 343.304 131 c 1
 270.66 -4 270.237 -7 262.567 -16 c 0
 258.662 -21 253.298 -25 246.897 -25 c 0
 237.298 -25 232.167 -16 227.366 1 c 0
 170.401 204 150.196 350 146.288 362 c 0
 137.438 390 111.512 365 116.167 398 c 0
 117.437 407 120.965 415 132.965 415 c 0
 138.565 415 156.542 412 191.742 412 c 2
 194.142 412 l 2
 228.542 412 246.565 415 252.165 415 c 0
 257.765 415 261.06 410 259.366 398 c 0
 254.148 361 208.92 392 204.688 362 c 0
 203.983 357 205.255 349 206.809 343 c 0
 220.937 256 239.486 172 261.002 92 c 0
 261.52 90 263.074 84 267.874 84 c 0
 272.674 84 276.861 91 277.002 92 c 0
 316.666 152 371.572 252 374.487 267 c 1
 374.629 268 l 2
 375.757 276 358.432 346 356.078 352 c 0
 341.58 391 297.207 360 301.72 392 c 0
 303.695 406 307.365 415 317.765 415 c 0
 325.765 415 350.142 412 399.742 412 c 0
 449.342 412 474.565 415 482.565 415 c 0
 491.365 415 492.636 407 491.649 400 c 2
 490.803 394 l 2
 488.546 378 487.369 381 441.863 376 c 0
 433.723 375 422.758 371 420.501 355 c 0
 417.821 336 446.919 202 484.389 99 c 0
 487.119 90 490.415 85 495.215 85 c 0
 501.614 85 504.861 91 506.084 94 c 0
 581.599 221 618.809 343 620.36 354 c 0
 623.746 378 608.923 375 574.945 378 c 0
 567.087 379 561.109 382 563.366 398 c 0
 564.495 406 566.565 415 575.365 415 c 0
 580.965 415 599.601 411 637.201 411 c 0
 675.601 411 695.365 415 701.765 415 c 0
EndSplineSet
EndChar

StartChar: x
Encoding: 120 120 89
Width: 397
GlyphClass: 2
Flags: HW
HStem: -4 42<239.394 288.798 352.802 390.374> -4 30<138.87 183.861> 376 39<52.0405 92.8993 163.205 204.13 318.532 381.481>
VStem: 187.999 54.4<202.618 231.317>
DStem2: 94.3993 53 146.399 76 0.527816 0.849359<27.826 172.485 245.517 362.192> 174.399 338 184.799 216 0.545178 -0.83832<-25.1381 88.7919 140.77 289.491>
LayerCount: 2
Fore
SplineSet
92.0215 415 m 0x70
 98.4219 415 117.999 412 157.199 412 c 0
 197.199 412 217.622 415 224.021 415 c 0
 232.021 415 232.635 408 231.648 401 c 2
 231.365 399 l 2
 230.801 395 231.318 393 230.896 390 c 0
 229.203 378 223.744 379 200.121 376 c 0
 194.38 375 186.756 372 185.347 362 c 0
 184.217 354 190.148 345 193.16 338 c 0
 229.122 264 227.381 263 230.581 263 c 0
 232.181 263 233.122 264 235.004 266 c 0
 295.229 347 303.982 358 304.828 364 c 0
 307.932 386 265.91 366 269.295 390 c 0
 271.693 407 275.222 415 283.222 415 c 0
 288.821 415 305.199 412 339.6 412 c 2
 341.999 412 l 2
 377.199 412 395.222 415 400.821 415 c 0
 408.821 415 410.094 407 409.106 400 c 0
 406.145 379 400.685 380 376.121 376 c 0
 352.356 372 345.628 364 330.148 345 c 1
 246.35 233 246.631 235 246.067 231 c 0
 245.645 228 245.784 229 331.499 54 c 0
 340.678 34 342.561 36 357.995 32 c 0
 361.854 31 365.714 30 364.304 20 c 0
 362.328 6 360.117 -4 348.917 -4 c 0
 342.517 -4 323.882 0 284.682 0 c 0
 245.481 0 225.717 -4 219.316 -4 c 0
 210.517 -4 210.986 5 212.116 13 c 0
 215.501 37 231.313 30 255.643 38 c 0xb0
 263.265 41 266.37 46 267.076 51 c 0
 267.64 55 265.804 59 265.286 61 c 0
 207.768 175 208.427 174 207.108 176 c 0
 206.309 176 205.648 177 204.849 177 c 0
 200.849 177 201.509 176 128.202 76 c 0
 115.404 59 114.322 57 113.476 51 c 0
 109.949 26 150.982 39 157.149 26 c 0
 158.325 23 157.762 19 157.339 16 c 0
 155.646 4 152.917 -4 144.117 -4 c 0
 138.517 -4 122.281 0 87.0811 0 c 0
 52.6816 0 34.377 -5 28.7764 -5 c 0
 20.7764 -5 22.3281 6 23.7383 16 c 0
 27.4062 42 50.5137 30 64.2061 42 c 0
 67.8301 45 69.9941 49 72.958 53 c 0
 188.141 206 187.717 203 188.563 209 c 0
 188.986 212 187.669 214 186.351 216 c 0
 101.391 385 111.557 372 90.5215 376 c 0
 78.0029 378 77.3906 385 79.2246 398 c 0
 81.3398 413 88.0215 415 92.0215 415 c 0x70
EndSplineSet
EndChar

StartChar: y
Encoding: 121 121 90
Width: 426
GlyphClass: 2
Flags: HW
HStem: -223 21G<116.762 137.162> 376 39<160.767 202.294 273.614 327.127 376.027 422.358>
LayerCount: 2
Fore
SplineSet
80.5645 -223 m 0
 62.9639 -223 51.6211 -207 54.4424 -187 c 0
 60.084 -147 102.577 -135 137.113 -100 c 0
 161.3 -76 202.986 -13 206.937 15 c 0
 210.04 37 195.586 99 153.119 263 c 0
 143.516 297 124.686 362 123.508 365 c 0
 113.67 386 93.1074 365 97.7637 398 c 0
 99.1738 408 102.561 415 111.361 415 c 0
 116.961 415 135.738 412 173.339 412 c 0
 210.938 412 230.561 415 236.961 415 c 0
 245.761 415 246.232 407 245.104 399 c 0
 242.001 377 236.683 379 212.259 376 c 0
 206.519 375 199.837 373 198.285 362 c 0
 197.016 353 214.44 244 250.783 116 c 0
 250.502 114 251.538 110 255.538 110 c 0
 260.338 110 263.065 118 264.947 120 c 1
 324.04 244 359.042 322 363.697 355 c 0
 367.082 379 354.519 375 328.542 378 c 0
 321.482 379 313.906 382 316.021 397 c 0
 317.573 408 324.161 415 333.761 415 c 0
 339.361 415 358.139 412 395.738 412 c 2
 396.538 412 l 2
 433.339 412 452.161 415 457.761 415 c 0
 467.361 415 466.091 406 464.54 395 c 0
 462.282 379 456.824 380 430.659 376 c 0
 413.437 373 423.037 373 342.492 199 c 1
 291.116 90 222.567 -50 148.51 -161 c 0
 124.091 -198 103.764 -223 80.5645 -223 c 0
EndSplineSet
EndChar

StartChar: z
Encoding: 122 122 91
Width: 325
GlyphClass: 2
Flags: HW
HStem: 0 65<121.016 268.763> 355 62<103.317 224.205>
VStem: 67.4107 28<294.02 354.03> 269.011 37.6<-92.6147 -3.0012e-08> 283.411 32.8<65.8229 140.75>
LayerCount: 2
Fore
SplineSet
126.792 454 m 2xf0
 131.592 454 l 2
 149.991 454 128.771 417 148.771 417 c 2
 323.172 417 l 2
 332.771 417 340.207 413 338.656 402 c 0
 337.81 396 334.045 392 331.881 388 c 0
 107.774 81 107.258 83 106.271 76 c 0
 104.859 66 111.118 65 117.518 65 c 2
 233.518 65 l 2
 238.318 65 242.978 64 245.377 64 c 0
 260.577 64 260.388 74 275.582 125 c 0
 276.805 128 280.238 141 291.438 141 c 0
 297.039 141 310.216 138 308.24 124 c 0xe8
 307.677 120 288.954 61 277.668 -19 c 0
 273.155 -51 271.698 -67 270.852 -73 c 0
 268.735 -88 260.03 -93 244.03 -93 c 0
 232.83 -93 231.56 -85 232.969 -75 c 2
 241.434 -15 l 2
 243.408 -1 237.149 0 229.949 0 c 2
 44.3486 0 l 2
 23.5488 0 22.3242 14 23.5938 23 c 0
 25.2861 35 33.0967 45 38.2256 53 c 2
 240.217 328 l 2
 243.04 331 246.146 336 246.852 341 c 0
 248.402 352 240.827 355 232.827 355 c 2
 137.627 355 l 2
 126.427 355 126.38 349 113.678 310 c 0
 112.455 307 109.021 294 97.8213 294 c 0
 93.8213 294 83.8447 297 85.2549 307 c 0
 85.6777 310 99.4619 351 107.644 409 c 2
 111.875 439 l 2
 113.567 451 120.392 454 126.792 454 c 2xf0
EndSplineSet
EndChar

StartChar: braceleft
Encoding: 123 123 92
Width: 230
GlyphClass: 2
Flags: HW
HStem: 700 20G<160.133 181.333>
VStem: 66.1331 61.6<240.115 270.308> 88.5331 51.2<-147.001 59.8049 494.524 665.89> 114.133 48<24.5381 215.922 297.492 513.796>
LayerCount: 2
Fore
SplineSet
65.4277 256 m 0xc0
 66.415 263 114.744 271 127.157 359 c 0
 138.019 436 126.151 505 137.579 586 c 0
 152.389 691 207.681 720 242.08 720 c 0
 250.08 720 261.14 719 260.575 715 c 0
 260.011 711 225 701 203.406 650 c 0
 197.29 635 193.575 620 191.317 604 c 0
 183.136 546 196.554 488 185.692 411 c 0
 172.15 315 128.016 263 126.746 254 c 0xc0
 125.335 244 154.375 206 142.243 120 c 0x90
 133.075 55 101.929 -7 93.042 -70 c 0
 80.0645 -162 127.032 -192 126.609 -195 c 0
 126.327 -197 123.786 -198 113.386 -198 c 0
 77.3867 -198 28.1592 -167 43.6758 -57 c 0xa0
 54.5371 20 89.165 84 98.1934 148 c 0x90
 109.619 229 67.9219 251 65.9453 254 c 0
 65.2871 255 65.2871 255 65.4277 256 c 0xc0
EndSplineSet
EndChar

StartChar: bar
Encoding: 124 124 93
Width: 137
GlyphClass: 2
Flags: HW
HStem: 698 20G<70.1077 84.5077>
VStem: 55.3077 42.4<-197.934 717.913>
LayerCount: 2
Fore
SplineSet
12.3018 -198 m 2
 9.10156 -198 l 2
 1.10156 -198 -9.15723 -197 -7.46484 -185 c 2
 118.08 705 l 2
 119.772 717 130.314 718 139.114 718 c 2
 140.714 718 l 2
 157.514 718 161.891 715 160.48 705 c 2
 34.9355 -185 l 2
 33.8066 -193 30.7012 -198 12.3018 -198 c 2
EndSplineSet
EndChar

StartChar: braceright
Encoding: 125 125 94
Width: 221
GlyphClass: 2
Flags: HW
HStem: 700 20G<73.4374 94.2374>
VStem: 92.2374 48<24.5381 215.905 296.882 513.796> 114.637 51.2<-147.001 59.8049 494.524 666.135> 126.637 61.6<240.03 269.121>
LayerCount: 2
Fore
SplineSet
208.483 586 m 0x90
 197.056 505 165.723 436 154.861 359 c 0
 142.871 274 184.379 262 187.155 259 c 0
 187.814 258 187.814 258 187.674 257 c 0x90
 187.391 255 186.31 253 183.768 252 c 0
 154.829 234 131.633 200 124.298 148 c 0xc0
 115.27 84 131.842 20 120.979 -57 c 0
 105.463 -167 47.4902 -198 11.4902 -198 c 0
 1.09082 -198 -1.16895 -197 -0.886719 -195 c 0
 -0.462891 -192 54.9688 -162 67.9463 -70 c 0xa0
 76.833 -7 63.1787 55 72.3477 120 c 0xc0
 84.6201 207 124.239 244 125.65 254 c 0
 126.214 258 124.379 262 123.86 264 c 0
 105.314 314 104.789 367 110.997 411 c 0
 121.858 488 151.64 546 159.821 604 c 0
 172.376 693 121.174 710 121.88 715 c 0
 122.443 719 134.585 720 141.784 720 c 0
 176.185 720 223.293 691 208.483 586 c 0x90
EndSplineSet
EndChar

StartChar: asciitilde
Encoding: 126 126 95
Width: 405
GlyphClass: 2
Flags: HW
HStem: 183 71<234.181 319.26> 242 70<119.473 196.031>
LayerCount: 2
Fore
SplineSet
67.0527 173 m 0x40
 63.0527 173 56.2275 187 57.0742 193 c 0
 57.6377 197 95.9844 259 116.688 281 c 0
 130.004 296 150.66 312 173.86 312 c 0x40
 221.061 312 238.479 254 285.679 254 c 0
 330.479 254 364.637 309 372.543 314 c 0
 374.283 315 376.024 316 377.624 316 c 0
 381.624 316 395.696 308 394.286 298 c 0
 393.298 291 325.264 183 258.063 183 c 0x80
 203.663 183 194.387 242 151.187 242 c 0
 123.187 242 99.8008 218 73.3584 178 c 0
 72.2764 176 70.2529 173 67.0527 173 c 0x40
EndSplineSet
EndChar

StartChar: exclamdown
Encoding: 161 161 97
Width: 292
GlyphClass: 2
Flags: HW
HStem: -16 21G<134.723 140.323> 572 102<127.032 193.735>
VStem: 119.123 82.4<582.181 664.265> 130.323 76<20.366 289.904> 165.523 26.4<367.851 461.971>
LayerCount: 2
Fore
SplineSet
89.6562 -16 m 0xd0
 82.4561 -16 82.6436 -9 85.1826 9 c 2
 88.4277 32 l 2xd0
 118.614 246 174.265 425 182.026 446 c 0
 184.473 452 189.884 462 197.884 462 c 0
 209.084 462 208.286 445 206.029 429 c 2
 204.195 416 l 1xc8
 176.738 193 166.543 47 166.402 46 c 0
 164.569 33 159.863 28 152.899 24 c 0
 92.8564 -16 93.6562 -16 89.6562 -16 c 0xd0
195.001 572 m 0
 172.602 572 156.646 595 160.595 623 c 0
 164.403 650 185.389 674 208.589 674 c 0
 230.189 674 247.227 653 242.995 623 c 0xe0
 238.622 592 216.602 572 195.001 572 c 0
EndSplineSet
EndChar

StartChar: dieresis
Encoding: 168 168 98
Width: 229
GlyphClass: 2
Flags: HW
HStem: 571 94<41.7768 105.456 149.777 213.457>
VStem: 35.1112 76.8<579.068 656.984> 143.111 76.8<579.068 656.984>
LayerCount: 2
Fore
SplineSet
143.111 618 m 0
 146.779 644 168.141 665 188.141 665 c 0
 209.741 665 223.579 644 220.053 619 c 0
 216.243 592 195.682 571 174.882 571 c 0
 154.082 571 139.303 591 143.111 618 c 0
35.1113 618 m 0
 38.7793 644 60.1406 665 80.1406 665 c 0
 101.741 665 115.579 644 112.053 619 c 0
 108.243 592 87.6816 571 66.8818 571 c 0
 46.0811 571 31.3027 591 35.1113 618 c 0
EndSplineSet
EndChar

StartChar: copyright
Encoding: 169 169 99
Width: 694
GlyphClass: 2
Flags: HW
HStem: -24 51<299.945 472.721> 88 38<334.047 453.96> 520 34<330.735 443.205> 637 52<297.473 474.14>
VStem: 101.17 40.8<221.604 443.858> 197.97 52.8<234.315 415.614> 524.37 20<222.277 259.891> 629.97 40.8<218.952 443.657>
LayerCount: 2
Fore
SplineSet
342.875 27 m 0
 472.476 27 605.214 157 630.04 333 c 0
 652.893 495 568.122 637 428.123 637 c 0
 291.322 637 165.315 498 141.899 332 c 0
 117.637 160 211.676 27 342.875 27 c 0
101.1 332 m 0
 128.324 525 275.458 689 436.258 689 c 0
 595.458 689 698.064 526 670.699 332 c 0
 643.756 141 498.082 -24 334.882 -24 c 0
 181.281 -24 72.7451 131 101.1 332 c 0
524.435 384 m 0
 500.435 384 524.194 422 506.873 458 c 0
 490.587 490 458.819 520 412.419 520 c 0
 345.22 520 267.485 451 250.699 332 c 0
 234.336 216 285.641 126 364.041 126 c 0
 419.241 126 482.529 172 512.732 250 c 0
 516.12 257 521.344 260 525.344 260 c 0
 530.943 260 533.578 256 532.732 250 c 2
 532.732 250 509.824 167 506.908 152 c 0
 504.556 141 501.169 134 489.969 134 c 2
 475.569 134 l 2
 464.369 134 466.346 131 450.535 121 c 0
 414.35 97 378.68 88 350.68 88 c 0
 245.88 88 178.433 194 196.207 320 c 0
 214.121 447 313.215 554 418.815 554 c 0
 486.016 554 504.56 521 514.959 521 c 0
 521.359 521 521.404 544 537.404 544 c 0
 541.404 544 545.264 543 545.594 534 c 0
 543.627 452 542.688 417 540.432 401 c 0
 539.021 391 537.234 384 524.435 384 c 0
EndSplineSet
EndChar

StartChar: guillemotleft
Encoding: 171 171 100
Width: 330
GlyphClass: 2
Flags: HW
HStem: 52 282<182.653 192.253 294.653 305.053>
VStem: 56.2534 64<171.745 215.713> 169.053 63.2<171.745 215.713>
LayerCount: 2
Fore
SplineSet
206.543 334 m 0
 212.943 334 218.45 322 217.463 315 c 0
 216.616 309 216.758 310 123.781 201 c 0
 122.7 199 120.817 197 120.395 194 c 0
 119.548 188 121.666 186 180.172 79 c 0
 181.49 77 182.668 74 182.244 71 c 0
 181.115 63 172.364 52 165.964 52 c 0
 161.964 52 162.764 52 59.7842 184 c 0
 57.666 186 55.6895 189 56.2529 193 c 0
 56.959 198 60.582 201 63.4053 204 c 0
 203.343 334 202.543 334 206.543 334 c 0
319.343 334 m 0
 325.743 334 331.25 322 330.263 315 c 0
 329.417 309 329.558 310 236.581 201 c 0
 234.7 199 232.817 197 232.395 194 c 0
 231.548 188 234.466 186 292.172 79 c 0
 294.29 77 294.668 74 294.244 71 c 0
 293.115 63 285.164 52 278.764 52 c 0
 273.964 52 275.563 52 172.584 184 c 0
 170.466 186 168.489 189 169.054 193 c 0
 169.759 198 172.581 201 176.205 204 c 0
 316.143 334 314.543 334 319.343 334 c 0
EndSplineSet
EndChar

StartChar: logicalnot
Encoding: 172 172 101
Width: 634
GlyphClass: 2
Flags: HW
HStem: 231 57<116.149 547.349>
VStem: 547.349 45.6<41.0781 231>
LayerCount: 2
Fore
SplineSet
143.93 231 m 2
 131.93 231 126.094 235 128.633 253 c 2
 130.467 266 l 2
 133.429 287 143.97 288 152.771 288 c 2
 603.97 288 l 2
 609.57 288 609.946 285 609.101 279 c 2
 578.349 61 l 2
 576.516 48 573.128 41 560.328 41 c 2
 549.128 41 l 2
 532.328 41 531.621 53 533.597 67 c 2
 556.729 231 l 1
 143.93 231 l 2
EndSplineSet
EndChar

StartChar: registered
Encoding: 174 174 102
Width: 467
GlyphClass: 2
Flags: HW
HStem: 335 37<200.092 319.535> 419 27<168.69 194.276 331.672 359.3> 542 18<224.771 254.489> 657 19<165.962 192.142 222.278 265.626> 719 36<200.092 317.605>
VStem: 91.876 28<471.505 618.161> 194.276 28.8<445.157 542 560 650 651 652.047> 284.676 29.6<568.344 643.871> 398.276 28.8<471.505 618.161>
DStem2: 280.676 548 253.476 537 0.50186 -0.864949<0 123.169>
LayerCount: 2
Fore
SplineSet
263.955 676 m 0
 316.755 676 327.254 637 323.444 610 c 0
 318.227 573 289.663 552 281.1 548 c 1
 298.985 516 305.904 497 316.215 468 c 0
 319.462 457 325.911 446 333.911 446 c 0
 340.312 446 341.439 454 347.839 454 c 0
 349.439 454 352.216 451 351.652 447 c 0
 350.946 442 338.103 419 320.502 419 c 0
 307.702 419 298.194 431 292.312 446 c 2
 252.348 537 l 2
 251.312 541 251.453 542 246.652 542 c 2
 225.853 542 l 2
 224.253 542 224.253 542 223.829 539 c 2
 212.121 456 l 2
 211.98 455 211.039 454 211.039 454 c 1
 208.642 437 245.439 454 242.336 432 c 0
 241.349 425 237.585 421 232.785 421 c 0
 227.984 421 218.666 423 196.267 423 c 0
 173.866 423 162.385 421 159.185 421 c 0
 152.785 421 152.03 427 152.877 433 c 0
 154.288 443 158.946 442 173.77 445 c 1
 180.17 445 180.733 449 181.581 455 c 2
 207.818 641 l 2
 209.228 651 201.888 650 187.252 654 c 0
 184.052 654 181.275 657 181.979 662 c 0
 182.826 668 184.85 671 189.649 671 c 2
 199.25 671 l 2
 224.85 671 244.755 676 263.955 676 c 0
292.998 604 m 0
 296.949 632 283.675 657 254.875 657 c 0
 239.675 657 237.511 653 237.228 651 c 1
 237.888 650 l 1
 225.757 564 l 2
 225.192 560 226.792 560 241.192 560 c 0
 282.792 560 290.6 587 292.998 604 c 0
233.872 372 m 0
 310.672 372 385.016 451 398.135 544 c 0
 411.677 640 359.621 719 282.82 719 c 0
 208.421 719 133.276 640 119.734 544 c 0
 106.616 451 159.472 372 233.872 372 c 0
228.653 335 m 0
 136.653 335 75.6543 430 91.7344 544 c 0
 108.239 661 195.898 755 287.898 755 c 0
 381.498 755 443.439 661 426.935 544 c 0
 410.854 430 322.254 335 228.653 335 c 0
EndSplineSet
EndChar

StartChar: degree
Encoding: 176 176 103
Width: 190
GlyphClass: 2
Flags: HW
HStem: 496 38<75.065 138.664> 653 37<75.2307 137.657>
VStem: 30.7973 32<548.199 639.382> 150.797 30.4<548.7 637.058>
LayerCount: 2
Fore
SplineSet
119.681 690 m 0
 162.08 690 188.532 645 181.197 593 c 0
 173.721 540 133.914 496 92.3145 496 c 0
 51.5146 496 23.1797 539 30.7969 593 c 0
 38.4141 647 78.8799 690 119.681 690 c 0
114.461 653 m 0
 89.6611 653 67.4521 626 62.9385 594 c 0
 58.2832 561 73.6748 534 98.4746 534 c 0
 124.875 534 146.565 563 150.797 593 c 0
 155.17 624 140.062 653 114.461 653 c 0
EndSplineSet
EndChar

StartChar: plusminus
Encoding: 177 177 104
Width: 627
GlyphClass: 2
Flags: HW
HStem: -12 57<108.937 585.696> 280 58<108.937 324.137 369.737 585.696>
VStem: 324.137 45.6<71 280 338 546.977>
LayerCount: 2
Fore
SplineSet
129.101 280 m 2
 117.101 280 111.406 285 113.804 302 c 2
 115.779 316 l 2
 118.6 336 129.282 338 138.082 338 c 2
 334.082 338 l 1
 361.307 531 l 2
 363.282 545 369.964 547 379.563 547 c 2
 390.764 547 l 2
 406.764 547 408.036 539 406.201 526 c 2
 379.683 338 l 1
 579.683 338 l 2
 589.282 338 595.118 334 592.86 318 c 2
 590.887 304 l 2
 587.643 281 576.301 280 565.9 280 c 2
 371.501 280 l 1
 344.558 89 l 2
 342.301 73 335.619 71 325.219 71 c 2
 314.02 71 l 2
 298.819 71 297.406 78 299.099 90 c 2
 325.9 280 l 1
 129.101 280 l 2
87.9111 -12 m 2
 76.7109 -12 69.9336 -9 72.6143 10 c 2
 74.4473 23 l 2
 77.4102 44 87.9512 45 96.752 45 c 2
 538.352 45 l 2
 547.952 45 553.928 42 551.671 26 c 2
 549.696 12 l 2
 546.452 -11 535.111 -12 524.711 -12 c 2
 87.9111 -12 l 2
EndSplineSet
EndChar

StartChar: acute
Encoding: 180 180 105
Width: 204
GlyphClass: 2
Flags: HW
HStem: 474 227
VStem: 34.4304 157.6
LayerCount: 2
Fore
SplineSet
178.44 701 m 0
 194.44 701 205.925 686 202.821 664 c 0
 200.282 646 189.648 633 177.274 619 c 0
 133.844 572 50.8896 483 46.3252 479 c 0
 42.7021 476 38.4199 474 33.6201 474 c 0
 24.0205 474 19.8301 484 21.2412 494 c 0
 23.0752 507 24.6748 507 128.516 659 c 0
 137.691 673 155.241 701 178.44 701 c 0
EndSplineSet
EndChar

StartChar: paragraph
Encoding: 182 182 106
Width: 682
GlyphClass: 2
Flags: HW
HStem: -204 53<567.678 629.708> -18 36<322.873 410.68> 679 31<355.186 432.228> 694 39<556.792 617.932>
VStem: 103.028 137.6<173.297 423.162> 374.228 20.8<175.738 468.644> 437.428 29.6<128.563 491.261> 618.228 43.2<640.104 693.031>
LayerCount: 2
Fore
SplineSet
444.552 315 m 0xcf
 470.366 498 527.014 599 528.143 607 c 0
 529.977 620 517.831 653 509.831 653 c 0
 508.23 653 507.148 651 505.267 649 c 0
 456.712 560 422.183 457 403.28 323 c 0
 385.366 196 393.053 52 402.652 52 c 0
 407.452 52 425.239 76 432.154 91 c 1
 431.961 135 431.856 225 444.552 315 c 0xcf
489.924 665 m 0
 491.193 674 467.898 679 457.499 679 c 0xef
 388.699 679 327.77 576 296.248 500 c 0
 273.009 443 257.204 382 248.599 321 c 2
 248.457 320 l 2
 224.054 147 257.856 18 334.656 18 c 0
 351.456 18 378.468 28 380.019 39 c 0
 381.288 48 356.948 142 381.07 313 c 0
 413.231 541 488.23 653 489.924 665 c 0
651.811 633 m 0
 654.49 652 673.736 658 675.993 674 c 0
 677.121 682 673.214 694 656.414 694 c 0xdf
 618.814 694 580.703 645 566.494 618 c 0
 510.082 513 487.553 410 474.999 321 c 2
 474.434 317 l 1
 448.15 125 467.133 -24 491.562 -89 c 0
 502.813 -117 519.146 -143 529.217 -151 c 0
 540.748 -160 571.617 -151 567.949 -177 c 0
 565.692 -193 549.741 -204 533.741 -204 c 2
 530.541 -204 l 2
 521.741 -204 506.823 -202 488.231 -175 c 0
 471.617 -151 463.19 -120 454.622 -90 c 0
 438.285 -30 436.966 -11 432.443 42 c 1
 405.716 17 384.166 -11 304.92 -17 c 0
 299.319 -17 294.379 -18 288.779 -18 c 0
 153.578 -18 82.9268 122 107.331 295 c 0
 141.468 537 322.672 710 457.071 710 c 0xef
 530.672 710 551.854 656 557.454 656 c 0
 564.654 656 573.121 682 615.612 711 c 0
 634.246 724 653.916 733 673.916 733 c 0xdf
 710.716 733 722.86 700 719.052 673 c 0
 713.833 636 684.047 612 667.247 612 c 0
 657.646 612 649.977 620 651.811 633 c 0
EndSplineSet
EndChar

StartChar: periodcentered
Encoding: 183 183 107
Width: 204
GlyphClass: 2
Flags: HW
HStem: 201 117<77.0817 149.84>
VStem: 65.8941 95.2<214.578 303.753>
LayerCount: 2
Fore
SplineSet
121.346 318 m 0
 146.946 318 165.678 292 161.023 259 c 0
 156.65 228 132.842 201 105.642 201 c 0
 80.8418 201 61.0273 225 65.9648 260 c 0
 70.9023 295 96.5459 318 121.346 318 c 0
EndSplineSet
EndChar

StartChar: cedilla
Encoding: 184 184 108
Width: 177
GlyphClass: 2
Flags: HW
HStem: -199 36<40.5577 113.173>
VStem: 55.2257 37.6<-77.5 -20.3329> 116.026 48.8<-160.177 -95.2734>
LayerCount: 2
Fore
SplineSet
84.8369 -199 m 0
 59.2373 -199 26.9072 -190 23.4707 -186 c 0
 22.1533 -184 21.6348 -182 22.0586 -179 c 0
 22.2002 -178 27.8447 -155 36.6445 -155 c 0
 37.4443 -155 61.1152 -163 76.3154 -163 c 0
 94.7158 -163 108.549 -150 111.371 -130 c 0
 115.038 -104 94.9414 -82 61.7646 -79 c 0
 60.9648 -79 57.7646 -79 58.1885 -76 c 0
 58.4707 -74 82.6055 -22 95.2139 5 c 1
 120.014 5 l 1
 113.757 -11 100.442 -43 100.303 -44 c 0
 100.02 -46 99.8789 -47 103.078 -47 c 2
 104.679 -47 l 2
 143.078 -47 168.211 -73 161.157 -123 c 0
 156.503 -156 137.638 -199 84.8369 -199 c 0
EndSplineSet
EndChar

StartChar: guillemotright
Encoding: 187 187 109
Width: 326
GlyphClass: 2
Flags: HW
HStem: 52 282<60.0319 70.4319 173.632 183.232>
VStem: 132.832 63.2<171.321 215.498> 244.832 63.2<171.129 215.713>
LayerCount: 2
Fore
SplineSet
198.321 334 m 0
 203.121 334 200.722 334 304.783 204 c 0
 307.56 201 308.737 198 308.032 193 c 0
 307.468 189 305.444 186 301.962 184 c 1
 162.542 52 163.343 52 158.542 52 c 0
 153.742 52 147.012 61 148.281 70 c 0
 149.128 76 149.786 75 241.304 185 c 0
 243.326 188 244.409 190 244.832 193 c 0
 245.114 195 244.737 198 243.56 201 c 0
 181.336 310 180.396 309 181.241 315 c 0
 182.511 324 191.922 334 198.321 334 c 0
86.3213 334 m 0
 90.3213 334 92.8164 329 191.184 204 c 0
 195.419 200 196.455 196 196.032 193 c 0
 195.608 190 193.586 187 189.962 184 c 0
 50.542 52 51.3418 52 46.542 52 c 0
 40.1416 52 35.0117 61 36.2812 70 c 0
 37.1279 76 39.0098 78 127.704 185 c 0
 130.526 188 132.55 191 132.974 194 c 0
 133.255 196 132.737 198 131.56 201 c 2
 71.0312 305 l 2
 69.8535 308 68.6768 311 69.2412 315 c 0
 70.5107 324 79.9219 334 86.3213 334 c 0
EndSplineSet
EndChar

StartChar: questiondown
Encoding: 191 191 110
Width: 332
GlyphClass: 2
Flags: HW
HStem: -16 38<138.497 213.627> -7 103<233.807 284.298> 572 118<146.124 219.139>
VStem: 40.2522 68<60.8065 202.07> 134.652 96<586.247 675.996> 173.052 41.6<345.138 480.296>
LayerCount: 2
Fore
SplineSet
215.802 572 m 0x38
 190.202 572 171.469 598 176.124 631 c 0
 180.498 662 205.247 690 232.446 690 c 0
 257.247 690 276.92 665 271.983 630 c 0
 267.046 595 240.602 572 215.802 572 c 0x38
132.058 -16 m 0xb4
 29.6582 -16 2.87109 72 11.1934 131 c 0
 28.8262 256 165.436 283 185.184 423 c 0
 186.453 432 186.499 438 187.486 445 c 0
 191.296 472 205.365 481 213.365 481 c 0
 222.165 481 233.836 473 227.207 426 c 0
 208.729 295 94.71 241 78.4883 126 c 0
 70.4473 69 94.2178 22 133.418 22 c 0xb4
 184.618 22 190.256 96 230.256 96 c 0
 249.456 96 261.035 76 257.649 52 c 0
 255.957 40 248.761 6 198.127 -7 c 0x74
 176.48 -13 153.658 -16 132.058 -16 c 0xb4
EndSplineSet
EndChar

StartChar: AE
Encoding: 198 198 117
Width: 900
GlyphClass: 2
Flags: HMW
HStem: -6 45<89.3072 155.774 237.965 308.437> 0 62<578.339 676.897> 0 55<604.023 791.945> 300 52<350.524 506.06> 369 58<579.562 746.542> 638 54<579.736 790.146>
VStem: 506.06 71.2<65 300 352 366.058 427 630.512> 747.66 43.2<271.329 368.925 428.417 512.682> 819.66 35.2<525.207 582.383>
LayerCount: 2
Back
SplineSet
499.494 352 m 6x3980
 502.694 352 506.977 354 507.965 361 c 6
 544.358 619 l 5
 544.687 627 542.051 631 538.051 631 c 4
 534.851 631 531.369 629 528.546 626 c 4
 486.998 581 351.87 366 350.459 356 c 4
 349.895 352 353.895 352 357.095 352 c 6
 499.494 352 l 6x3980
385.058 675 m 4
 385.764 680 391.126 701 399.926 701 c 4xb380
 407.126 701 428.961 697 508.396 693 c 4x3980
 548.914 691 863.597 693 870.515 691 c 4
 877.291 688 878.045 682 877.857 675 c 4
 877.25 631 883.144 548 882.578 544 c 4
 881.027 533 869.498 525 859.898 525 c 4
 853.498 525 848.321 528 846.109 535 c 4
 842.202 547 825.816 618 821.769 629 c 4
 818.238 638 812.639 638 797.438 638 c 6
 644.639 638 l 6
 619.839 638 617.017 618 613.914 596 c 6
 593.178 449 l 6
 591.768 439 590.875 427 606.074 427 c 6
 728.475 427 l 6
 757.274 427 760.709 440 765.363 473 c 6
 767.902 491 l 6
 769.312 501 773.405 513 792.605 513 c 4
 813.405 513 811.666 495 810.114 484 c 6
 784.159 300 l 6
 782.608 289 779.269 271 758.469 271 c 4
 737.669 271 738.702 284 739.973 293 c 6
 745.474 332 l 6
 749.847 363 748.293 369 729.893 369 c 6
 619.493 369 l 6
 600.293 369 580.011 367 574.65 329 c 6
 543.477 108 l 6
 539.243 78 538.352 66 562.587 62 c 4
 586.682 57 612 55 636.8 55 c 4
 692.8 55 742.352 66 754.162 76 c 4
 770.537 90 810.244 173 824.455 183 c 4
 827.138 185 830.479 186 832.879 186 c 4
 840.078 186 846.149 178 844.034 163 c 4
 843.047 156 840.317 148 799.062 20 c 4
 793.042 0 784.242 0 768.242 0 c 6
 500.242 0 l 6x7580
 413.042 0 400.994 -6 389.795 -6 c 4
 380.994 -6 377.746 5 379.157 15 c 4
 385.505 60 442.968 25 463.011 65 c 4
 467.339 73 468.749 83 470.301 94 c 6
 498.09 291 l 5
 498.419 299 493.76 300 490.56 300 c 6
 357.76 300 l 6
 315.359 300 316.818 299 310.608 289 c 4
 252.454 200 200.277 91 197.598 72 c 4
 193.647 44 214.73 46 250.543 39 c 4
 256.802 38 264.378 35 261.698 16 c 4
 260.429 7 256.194 -6 244.994 -6 c 4xb180
 241.795 -6 200.242 0 149.041 0 c 4x7180
 97.041 0 55.3945 -6 52.1943 -6 c 4
 43.3945 -6 40.9473 5 42.3574 15 c 4
 43.627 24 47.2959 33 54.1191 36 c 4
 66.8252 41 94.0254 41 113.364 59 c 4
 134.585 79 156.79 140 296.623 360 c 4
 436.457 580 469.348 609 471.604 625 c 4
 474.144 643 453.203 642 397.954 653 c 4xb380
 385.437 655 383.646 665 385.058 675 c 4
EndSplineSet
Fore
SplineSet
506.694 352 m 1x1f80
 546.051 631 l 1
 542.851 631 531.369 629 528.546 626 c 0
 486.998 581 351.306 362 349.895 352 c 1
 506.694 352 l 1x1f80
385.058 675 m 0
 385.764 680 391.126 701 399.926 701 c 0
 407.126 701 428.961 697 508.396 693 c 0
 528.255 692 617.056 692 701.855 692 c 0
 786.655 692 866.655 692 870.515 691 c 0
 877.291 688 878.045 682 877.857 675 c 0
 877.25 631 883.144 548 882.578 544 c 0
 881.027 533 869.498 525 859.898 525 c 0
 853.498 525 848.321 528 846.109 535 c 0
 842.202 547 827.087 627 823.038 638 c 1
 644.639 638 l 2
 619.839 638 617.017 618 613.914 596 c 2
 593.178 449 l 2
 591.768 439 590.875 427 606.074 427 c 2
 728.475 427 l 2
 757.274 427 760.709 440 765.363 473 c 2
 767.902 491 l 2
 769.312 501 773.405 513 792.605 513 c 0
 813.405 513 811.666 495 810.114 484 c 2
 784.159 300 l 2
 782.608 289 779.269 271 758.469 271 c 0
 737.669 271 738.702 284 739.973 293 c 2
 745.474 332 l 2
 749.847 363 748.293 369 729.893 369 c 2
 619.493 369 l 2
 600.293 369 580.011 367 574.65 329 c 2
 543.477 108 l 2
 539.243 78 538.352 66 562.587 62 c 0x5f80
 586.682 57 612 55 636.8 55 c 0
 692.8 55 742.352 66 754.162 76 c 0
 770.537 90 810.244 173 824.455 183 c 0
 827.138 185 830.479 186 832.879 186 c 0
 840.078 186 846.149 178 844.034 163 c 0
 843.047 156 840.317 148 799.062 20 c 0
 793.042 0 784.242 0 768.242 0 c 2
 390.642 0 l 2x3f80
 381.842 0 377.746 5 379.157 15 c 0
 385.505 60 446.168 25 466.211 65 c 1
 499.359 300 l 1
 357.76 300 l 2
 315.359 300 316.818 299 310.608 289 c 0
 252.454 200 200.277 91 197.598 72 c 0
 193.647 44 214.73 46 250.543 39 c 0
 256.802 38 264.378 35 261.698 16 c 0
 260.429 7 256.194 -6 244.994 -6 c 0x9f80
 241.795 -6 200.242 0 149.041 0 c 0x3f80
 97.041 0 55.3945 -6 52.1943 -6 c 0x9f80
 43.3945 -6 40.9473 5 42.3574 15 c 0
 43.627 24 47.2959 33 54.1191 36 c 0
 66.8252 41 94.0254 41 113.364 59 c 0
 134.585 79 156.79 140 296.623 360 c 0
 436.457 580 469.348 609 471.604 625 c 0
 474.144 643 453.203 642 397.954 653 c 0
 385.437 655 383.646 665 385.058 675 c 0
EndSplineSet
EndChar

StartChar: Ccedilla
Encoding: 199 199 118
Width: 633
GlyphClass: 2
Flags: HW
HStem: -195 36<333.816 406.688> -23 50<314.135 364.102 385.703 472.894> 439 21G<576.902 594.102> 650 46<300.364 462.827>
VStem: 88.9019 76.8<229.101 451.697> 409.702 48.8<-156.256 -91.5187> 564.102 39.2<439.285 545.701>
LayerCount: 2
Fore
SplineSet
325.521 -23 m 1
 169.99 -14 74.3018 147 100.821 335 c 0
 115.069 436 165.27 531 226.156 594 c 0
 289.725 659 370.146 696 444.545 696 c 2
 445.345 696 l 2
 542.146 696 584.269 643 594.668 643 c 0
 608.269 643 607.042 674 622.946 679 c 0
 625.347 679 630.287 680 631.888 680 c 0
 639.888 680 640.642 674 640.595 668 c 0
 640.454 667 633.7 466 632.29 456 c 0
 631.303 449 627.491 439 613.892 439 c 0
 593.092 439 595.68 446 597.322 486 c 0
 597.931 513 596.987 529 585.831 552 c 0
 560.367 604 510.056 650 436.455 650 c 0
 326.855 650 206.397 539 180.302 354 c 0
 154.347 170 234.175 27 358.975 27 c 0
 450.975 27 549.036 104 595.563 224 c 0
 596.787 227 599.797 237 609.397 237 c 0
 614.997 237 621.774 234 620.646 226 c 1
 620.646 226 581.04 70 577.652 63 c 1
 572.337 48 561.796 47 557.796 47 c 2
 556.995 47 l 1
 534.596 47 l 2
 515.396 47 512.668 39 494.034 26 c 0
 448.202 -4 399.403 -21 351.781 -24 c 1
 345.946 -37 344.864 -39 344.724 -40 c 0
 344.441 -42 345.101 -43 347.5 -43 c 2
 349.9 -43 l 2
 388.3 -43 413.433 -69 406.38 -119 c 2
 406.238 -120 l 2
 401.725 -152 382.059 -195 330.059 -195 c 0
 304.459 -195 271.328 -186 268.692 -182 c 0
 266.574 -180 266.057 -178 266.48 -175 c 0
 266.621 -174 272.266 -151 281.065 -151 c 0
 281.866 -151 306.337 -159 321.537 -159 c 0
 339.137 -159 353.771 -146 356.451 -127 c 0
 360.26 -100 340.163 -78 306.986 -75 c 0
 305.386 -75 302.986 -75 303.41 -72 c 0
 303.551 -71 317.523 -40 325.521 -23 c 1
EndSplineSet
EndChar

StartChar: multiply
Encoding: 215 215 133
Width: 496
GlyphClass: 2
Flags: HW
DStem2: 105.784 86 276.984 219 0.624695 0.780869<20.8764 222.188 274.054 474.396> 276.984 300 244.984 259 0.624695 -0.780869<-199.618 0.0277137 52.5057 253.818>
LayerCount: 2
Fore
SplineSet
71.6416 69 m 0
 72.6289 76 76.5342 81 81.2393 86 c 2
 244.843 259 l 1
 131.646 432 123.034 439 124.586 450 c 0
 125.715 458 145.101 482 156.3 482 c 2
 157.101 482 l 2
 165.9 482 166.136 478 282.627 300 c 1
 457.523 485 452.441 483 460.582 484 c 1
 461.382 484 l 2
 467.782 484 484.02 463 482.186 450 c 2
 482.045 449 l 2
 480.494 438 477.152 437 309.643 259 c 1
 429.569 77 430.793 80 429.241 69 c 0
 427.831 59 407.786 36 398.187 36 c 0
 392.587 36 389.15 40 385.856 45 c 2
 271.201 219 l 1
 99.9268 37 102.187 36 93.3867 36 c 0
 85.3867 36 69.9492 57 71.6416 69 c 0
EndSplineSet
EndChar

StartChar: Oslash
Encoding: 216 216 134
Width: 700
GlyphClass: 2
Flags: HW
HStem: -24 58<311.82 478.217> 667 53<292.469 461.198>
VStem: 92.0941 76<244.676 473.525> 606.494 79.2<215.912 457.417>
DStem2: 224.094 44 234.494 -39 0.403044 0.915181<-76.325 0 67.6858 636.869 703.117 771.172>
LayerCount: 2
Fore
SplineSet
683.789 337 m 0
 654.167 127 501.667 -24 345.667 -24 c 0
 297.667 -24 252.582 -9 213.19 18 c 1
 180.35 -39 182.374 -36 179.55 -39 c 0
 176.868 -41 172.445 -44 163.646 -44 c 0
 148.445 -44 136.728 -42 138.279 -31 c 2
 138.42 -30 l 2
 138.844 -27 139.502 -28 180.859 44 c 1
 109.792 113 75.8965 230 92.4463 353 c 1
 121.082 556 278.615 720 439.416 720 c 0
 480.216 720 519.465 709 554.244 689 c 1
 586.143 745 583.743 745 598.143 745 c 0
 622.143 745 625.532 735 624.687 729 c 0
 623.84 723 617.911 715 588.316 664 c 1
 666.584 595 702.41 469 683.789 337 c 0
172.819 384 m 0
 159.982 293 165.644 180 216.805 106 c 1
 521.544 633 l 1
 491.847 655 456.74 667 419.141 667 c 0
 319.94 667 200.749 582 172.819 384 c 0
350.647 34 m 0
 441.848 34 572.428 109 602.05 319 c 0
 616.156 419 607.155 531 552.372 602 c 1
 244.949 73 l 1
 272.105 50 306.647 34 350.647 34 c 0
EndSplineSet
EndChar

StartChar: germandbls
Encoding: 223 223 140
Width: 466
GlyphClass: 2
Flags: HW
HStem: -19 56<309.748 397.923> -6 45<58.1271 108.02 165.412 218.02> 360 47<51.3486 109.159> 659 60<214.616 296.905>
VStem: 109.224 56.8<38.5658 359.712 410.048 563.25> 245.224 45.6<345.337 432.51> 250.024 32.8<68.2012 148.863> 315.624 64.8<533.904 634.935> 411.624 48.8<54.6943 152.155>
LayerCount: 2
Fore
SplineSet
17.4053 -6 m 0x7d80
 11.8057 -6 8.51074 -1 10.4863 13 c 0
 13.7305 36 20.6475 34 51.7529 39 c 0
 67.2354 41 66.8564 61 74.0996 101 c 0
 78.4258 126 103.912 301 110.965 351 c 0
 112.517 362 106.493 359 69.835 360 c 1
 69.0342 360 l 2
 64.2344 360 52.375 361 54.9141 379 c 0
 55.6201 384 59.9004 403 70.0645 407 c 0
 77.6875 410 111.805 408 115.288 410 c 0
 117.828 411 118.252 414 118.675 417 c 2
 118.957 419 l 1
 134.146 521 168.629 618 224.764 670 c 0
 262.359 704 306.875 719 338.875 719 c 0
 392.475 719 426.27 675 416.677 607 c 0
 401.865 502 308.174 473 297.735 399 c 0x7d80
 289.131 338 339.486 315 393.19 225 c 0
 409.382 198 432.635 153 424.735 97 c 0
 415.002 28 363.572 -19 309.173 -19 c 0
 249.973 -19 217.591 18 210.812 38 c 0
 208.082 47 208.271 54 209.821 65 c 2
 219.132 131 l 2
 221.529 148 221.247 146 223.271 149 c 0
 224.211 150 229.058 156 236.258 156 c 0
 256.258 156 235.885 125 246.288 91 c 0
 250.854 78 275.472 37 311.472 37 c 0xbb80
 341.071 37 370.998 62 376.358 100 c 0
 384.681 159 333.289 186 268.478 288 c 0
 252.664 312 243.248 336 247.763 368 c 0
 258.061 441 335.372 490 347.363 575 c 0
 353.851 621 335.212 659 299.212 659 c 0
 282.412 659 225.66 648 192.311 508 c 0
 182.81 469 177.309 430 171.666 390 c 2
 170.256 380 l 2
 135.132 131 129.817 99 125.443 68 c 0
 123.328 53 122.013 38 146.39 35 c 0
 168.507 33 173.447 34 171.05 17 c 0
 169.499 6 167.806 -6 159.006 -6 c 0
 157.406 -6 127.052 0 89.4521 0 c 0
 51.0518 0 19.8057 -6 17.4053 -6 c 0x7d80
EndSplineSet
EndChar

StartChar: ae
Encoding: 230 230 147
Width: 581
GlyphClass: 2
Flags: HW
HStem: -22 54<162.335 247.284 397.572 498.81> 191 37<193.526 271.972> 376 56<361.758 455.031> 385 47<165.135 248.523>
VStem: 91.2204 59.2<46.7656 152.973> 272.82 59.2<115.787 190.367 228.097 337.5> 488.82 78.4<298.142 339.608>
LayerCount: 2
Fore
SplineSet
428.942 376 m 0xee
 383.342 376 344.384 321 331.971 233 c 0
 331.266 228 332.583 226 334.982 226 c 0
 337.383 226 492.058 296 495.539 298 c 0
 500.763 301 503.067 306 503.633 310 c 0
 505.606 324 472.942 376 428.942 376 c 0xee
135.75 101 m 0
 131.8 73 135.616 32 176.416 32 c 0
 194.816 32 217.027 42 232.603 56 c 0
 251.801 73 254.624 76 260.125 115 c 2
 264.216 144 l 2
 270.846 191 270.045 191 262.846 191 c 2
 261.245 191 l 1
 214.281 187 145.906 173 135.75 101 c 0
455.241 432 m 0
 530.441 432 586.687 343 582.455 313 c 2
 582.314 312 l 1
 577.282 282 534.271 272 509.661 262 c 0
 334.846 191 330.187 192 328.917 183 c 0
 327.225 171 326.063 38 426.863 38 c 0
 462.063 38 499.003 56 528.975 87 c 0
 532.881 92 540.55 101 549.35 101 c 0
 556.55 101 560.504 95 559.375 87 c 0
 558.67 82 556.224 76 552.178 70 c 0
 507.996 12 449.223 -19 397.223 -19 c 0
 313.223 -19 291.521 54 286.721 54 c 0
 282.721 54 219.199 -22 150.399 -22 c 0
 95.999 -22 66.3936 29 74.999 90 c 2
 75.1387 91 l 2
 80.5 129 99.4131 161 121.294 180 c 0
 168.818 222 268.865 228 268.865 228 c 2
 274.747 230 276.394 236 278.368 250 c 2
 282.318 278 l 2
 286.832 310 287.159 335 274.403 358 c 0
 264.142 376 248.611 385 231.812 385 c 0
 186.212 385 157.606 324 153.561 318 c 0
 147.772 311 140.809 307 133.608 307 c 0
 119.209 307 104.384 321 107.487 343 c 0
 112.425 378 174.441 432 244.041 432 c 0xde
 326.441 432 329.602 375 341.602 375 c 0
 344.001 375 346.683 377 349.506 380 c 0
 364.422 395 404.841 432 455.241 432 c 0
EndSplineSet
EndChar

StartChar: ccedilla
Encoding: 231 231 148
Width: 347
GlyphClass: 2
Flags: HW
HStem: -195 36<149.24 222.112> -18 64<202.671 282.106> 376 52<156.602 243.866>
VStem: 56.3256 52.8<132.437 305.205> 225.126 48.8<-156.256 -91.5187>
LayerCount: 2
Fore
SplineSet
240.564 -120 m 2
 236.051 -152 216.385 -195 164.385 -195 c 0
 138.785 -195 105.654 -186 103.019 -182 c 0
 100.9 -180 100.383 -178 100.806 -175 c 0
 100.947 -174 106.592 -151 115.392 -151 c 0
 116.192 -151 140.663 -159 155.863 -159 c 0
 173.463 -159 188.097 -146 190.776 -127 c 0
 194.586 -100 174.489 -78 141.312 -75 c 0
 139.712 -75 137.312 -75 137.736 -72 c 0
 137.876 -71 155.096 -34 163.517 -14 c 1
 90.5742 2 51.7412 84 67.6807 197 c 0
 86.8652 333 169.066 428 271.467 428 c 0
 329.066 428 367.988 392 362.628 354 c 0
 359.383 331 342.068 316 325.268 316 c 0
 288.468 316 283.331 376 236.932 376 c 0
 188.131 376 135.856 306 124.008 222 c 0
 110.889 129 151.98 46 225.581 46 c 0
 287.98 46 312.398 100 330.799 100 c 0
 337.998 100 343.41 93 342 83 c 0
 341.153 77 337.908 71 334.942 67 c 0
 303.137 23 250.953 -18 190.953 -18 c 2
 188.553 -18 l 1
 181.214 -36 179.332 -38 179.05 -40 c 0
 178.768 -42 179.427 -43 181.826 -43 c 2
 184.227 -43 l 2
 222.626 -43 247.759 -69 240.706 -119 c 2
 240.564 -120 l 2
EndSplineSet
EndChar

StartChar: divide
Encoding: 247 247 163
Width: 630
GlyphClass: 2
Flags: HW
HStem: 67 103<311.937 379.54> 231 57<112.538 588.502> 349 103<306.626 374.74>
VStem: 298.138 84.8<359.248 440.996> 303.738 84<76.9539 159.752>
CounterMasks: 1 e0
LayerCount: 2
Fore
SplineSet
126.918 231 m 2xe0
 114.118 231 109.082 235 111.621 253 c 2
 113.456 266 l 2
 116.417 287 126.159 288 134.959 288 c 2
 576.559 288 l 2
 586.958 288 592.135 285 589.879 269 c 2
 587.904 255 l 2
 584.659 232 573.318 231 563.719 231 c 2
 126.918 231 l 2xe0
317.957 400 m 0xf0
 322.049 429 345.293 452 368.493 452 c 0
 391.692 452 406.849 429 402.898 401 c 0
 398.808 372 376.363 349 353.163 349 c 0
 329.963 349 313.866 371 317.957 400 c 0xf0
318.984 67 m 0
 296.584 67 279.688 89 283.919 119 c 0
 288.011 148 309.514 170 332.714 170 c 0
 355.914 170 371.869 147 367.778 118 c 0xe8
 363.688 89 342.184 67 318.984 67 c 0
EndSplineSet
EndChar

StartChar: oslash
Encoding: 248 248 164
Width: 420
GlyphClass: 2
Flags: HW
HStem: -19 49<185.571 290.636> 385 47<178.946 282.023>
VStem: 63.205 62.4<108.789 304.389> 348.805 54.4<109.681 294.771>
DStem2: 130.405 23 163.205 -1 0.405791 0.913966<-40.4974 1.88808 63.3719 364.321 424.509 480.945>
LayerCount: 2
Fore
SplineSet
401.936 204 m 0
 381.764 61 289.679 -19 200.078 -19 c 0
 176.078 -19 153.725 -13 133.018 -1 c 1
 123.42 -18 117.304 -33 106.104 -33 c 0
 80.5039 -33 78.9502 -27 79.9375 -20 c 0
 80.6436 -15 86.7129 -6 103.604 23 c 1
 69.623 60 50.792 125 61.9355 204 c 0
 81.543 343 177.297 432 266.896 432 c 0
 290.097 432 312.31 425 332.357 414 c 1
 351.555 448 355.506 459 365.906 459 c 0
 382.706 459 394.283 456 392.309 442 c 0
 391.462 436 384.31 425 362.291 388 c 1
 401.025 345 411.669 273 401.936 204 c 0
209.391 30 m 0
 277.391 30 334.417 111 346.972 200 c 0
 352.613 240 350.349 292 329.591 332 c 1
 161.388 47 l 1
 177.155 34 194.19 30 209.391 30 c 0
254.667 385 m 0
 213.067 385 143.943 343 125.041 209 c 0
 119.681 171 118.887 120 137.385 81 c 1
 303.847 365 l 1
 291.798 376 275.468 385 254.667 385 c 0
EndSplineSet
EndChar

StartChar: dotlessi
Encoding: 305 305 203
Width: 212
GlyphClass: 2
Flags: HW
HStem: -6 44<33.0219 92.9597 149.488 201.706> 421 20G<138.113 143.313>
VStem: 93.7132 53.6<39.1511 336.573>
LayerCount: 2
Fore
SplineSet
80.1006 121 m 2
 96.4639 237 105.445 295 108.126 314 c 0
 110.383 330 107.041 329 59.5088 355 c 0
 55.791 357 50.6152 360 51.7432 368 c 0
 53.4355 380 66.7998 384 76.3057 389 c 0
 166.559 439 167.641 441 171.641 441 c 2
 172.44 441 l 2
 177.24 441 183.076 437 181.384 425 c 0
 180.255 417 161.771 320 144.562 198 c 2
 139.907 165 l 2
 122.697 43 123.075 40 140.252 37 c 0
 165.946 32 175.688 33 173.289 16 c 0
 172.161 8 169.386 -6 160.586 -6 c 0
 158.186 -6 127.031 0 87.832 0 c 0
 47.832 0 15.7861 -6 13.3857 -6 c 0
 5.38574 -6 2.37305 1 3.78418 11 c 0
 7.02832 34 9.94629 32 46.793 38 c 0
 67.3564 42 70.9316 56 73.4707 74 c 2
 80.1006 121 l 2
EndSplineSet
EndChar

StartChar: OE
Encoding: 338 338 224
Width: 917
GlyphClass: 2
Flags: HW
HStem: -24 58<339.289 505.784> 0 55<617.453 829.653> 369 58<614.953 782.308> 638 53<614.57 819.005> 667 53<318.339 484.924>
VStem: 117.668 75.2<249.63 473.331> 541.668 72<67.3145 365.5 427 617.33> 783.268 44<271.316 368.907 428.208 513.367>
LayerCount: 2
Fore
SplineSet
578.262 97 m 2x37
 574.452 70 578.736 55 671.536 55 c 0
 697.137 55 771.584 61 790.499 76 c 0
 796.945 82 803.438 94 849.218 169 c 0
 855.569 180 863.616 186 869.217 186 c 0
 877.217 186 881.546 177 879.571 163 c 2
 879.43 162 l 2
 878.584 156 877.36 153 835.399 20 c 0
 828.719 1 820.579 0 806.979 0 c 2
 584.579 0 l 2x77
 463.779 0 413.192 -24 371.593 -24 c 0
 203.593 -24 89.3145 147 118.373 353 c 0
 146.867 555 303.743 720 464.543 720 c 0xaf
 514.942 720 546.05 708 576.262 701 c 0
 610.334 693 656.451 691 656.451 691 c 1
 900.451 691 l 2
 913.252 691 913.58 682 914.195 675 c 2
 918.819 549 l 1
 918.396 546 l 2
 916.42 532 905.836 525 896.235 525 c 0
 881.035 525 882.069 538 880.656 545 c 2
 856.554 618 l 2
 850.951 635 848.176 638 835.376 638 c 2
 680.176 638 l 2
 664.176 638 653.683 626 651.99 614 c 2
 628.715 449 l 2
 627.727 442 628.012 427 637.611 427 c 2
 764.012 427 l 2
 777.611 427 794.553 428 799.066 460 c 2
 803.439 491 l 2
 805.555 506 817.084 514 827.484 514 c 0
 845.885 514 848.709 500 846.451 484 c 2
 820.496 300 l 2
 817.957 282 810.806 271 794.806 271 c 0
 776.406 271 773.676 280 775.509 293 c 2
 783.126 347 l 2
 785.948 367 776.63 369 765.43 369 c 2
 675.83 369 l 2
 624.63 369 616.066 365 610.986 329 c 2
 578.262 97 l 2x37
445.066 667 m 2xaf
 444.266 667 l 2
 345.866 667 225.876 582 197.946 384 c 0
 173.542 211 225.375 34 376.575 34 c 0
 412.575 34 451.584 44 490.594 71 c 0
 502.922 79 503.722 79 507.249 104 c 2
 577.355 601 l 1
 541.586 648 493.066 667 445.066 667 c 2xaf
EndSplineSet
EndChar

StartChar: oe
Encoding: 339 339 225
Width: 688
GlyphClass: 2
Flags: HW
HStem: -19 57<495.597 609.938> -19 49<211.637 323.463> 376 55<467.589 562.545> 385 47<210.512 316.755>
VStem: 94.7711 62.4<107.025 304.389> 380.371 57.6<117.554 196.704 226.001 294.23> 595.571 77.6<292.942 337.386>
LayerCount: 2
Fore
SplineSet
560.839 431 m 0x2e
 616.039 431 662.491 386 684.098 335 c 0
 686.592 330 689.464 322 688.194 313 c 2
 688.054 312 l 1
 683.021 282 640.011 272 615.399 262 c 0
 440.585 191 435.926 192 434.656 183 c 0
 432.963 171 431.803 38 532.603 38 c 0
 567.803 38 605.683 57 634.714 87 c 0
 638.62 92 647.089 101 655.089 101 c 0
 662.289 101 667.043 95 665.773 86 c 0
 665.209 82 662.763 76 657.917 70 c 0
 617.64 17 559.762 -19 503.762 -19 c 0xae
 443.762 -19 403.663 20 386.998 72 c 1
 348.417 14 289.361 -19 232.562 -19 c 0
 130.962 -19 77.0684 81 94.4189 204 c 0
 114.025 343 209.78 432 299.381 432 c 0x5e
 352.98 432 401.926 399 424.38 337 c 1
 453.691 386 502.439 431 560.839 431 c 0x2e
610.171 310 m 0
 611.864 322 580.281 376 535.481 376 c 0
 489.081 376 451.063 322 438.51 233 c 0
 437.662 227 439.922 226 441.521 226 c 0
 443.121 226 599.537 297 601.278 298 c 0
 606.502 301 609.607 306 610.171 310 c 0
241.873 30 m 0x5e
 309.873 30 366.899 111 379.454 200 c 0
 394.548 307 347.951 385 287.151 385 c 0
 245.551 385 176.426 343 157.523 209 c 0
 142.854 105 176.273 30 241.873 30 c 0x5e
EndSplineSet
EndChar

StartChar: Scedilla
Encoding: 350 350 236
Width: 440
GlyphClass: 2
Flags: HW
HStem: -195 36<197.863 270.735> -16 55<186.558 229.748 250.164 308.712> 635 50<157.358 262.512>
VStem: 72.1483 57.6<479.18 595.956> 84.9483 40<112.089 247.636> 273.748 48.8<-156.256 -91.5187> 364.948 58.4<105.358 250.11>
LayerCount: 2
Fore
SplineSet
271.062 -120 m 2xf6
 266.547 -152 246.881 -195 194.881 -195 c 0
 169.281 -195 136.15 -186 133.515 -182 c 0
 131.397 -180 130.88 -178 131.302 -175 c 0
 131.443 -174 137.088 -151 145.889 -151 c 0
 146.688 -151 171.159 -159 186.359 -159 c 0
 203.96 -159 218.594 -146 221.273 -127 c 0
 225.082 -100 204.986 -78 171.809 -75 c 0
 170.208 -75 167.809 -75 168.231 -72 c 0
 168.372 -71 184.651 -35 192.932 -16 c 1
 124.46 -8 97.7715 41 86.7598 48 c 0
 83.1826 51 78.5234 52 74.5234 52 c 0
 66.5234 52 60.5 49 53.2998 49 c 0
 42.0996 49 40.1699 58 41.0166 64 c 0
 42.709 76 59.1279 113 82.4092 227 c 0
 84.7607 238 89.3721 248 102.972 248 c 0
 119.771 248 119.303 239 117.189 190 c 1xee
 112.916 120 107.643 145 126 105 c 0
 141.203 71 172.689 39 219.89 39 c 0
 283.09 39 344.495 100 355.498 178 c 0
 361.703 222 349.747 262 324.614 288 c 0
 284.139 330 232.516 327 182.725 354 c 0
 121.638 386 101.207 451 110.376 516 c 0
 122.931 605 193.416 685 277.416 685 c 0
 342.216 685 364.573 645 374.973 645 c 0
 386.973 645 395.016 685 414.216 685 c 0
 421.416 685 425.887 677 424.335 666 c 0
 423.207 658 416.48 633 409.428 583 c 0
 402.516 534 402.33 510 401.201 502 c 0
 399.791 492 393.485 487 385.485 487 c 2
 384.686 487 l 1
 359.227 488 373.104 524 342.464 579 c 0
 325.095 609 297.562 635 262.362 635 c 0
 217.562 635 178.837 593 171.502 541 c 0
 166.283 504 177.77 472 199.466 450 c 0
 237.165 411 294.905 412 342.297 385 c 0
 395.524 354 429.556 289 416.719 198 c 0
 401.343 89 319.896 -12 219.19 -17 c 1
 211.71 -36 209.828 -38 209.546 -40 c 0
 209.265 -42 209.923 -43 212.322 -43 c 2
 214.723 -43 l 2
 253.123 -43 278.256 -69 271.202 -119 c 2
 271.062 -120 l 2xf6
EndSplineSet
EndChar

StartChar: scedilla
Encoding: 351 351 237
Width: 305
GlyphClass: 2
Flags: HW
HStem: -195 36<115.575 188.447> -19 54<119.461 147.461 167.464 225.812> 380 47<113.597 204.155> 412 20G<229.861 239.461>
VStem: 56.2608 32<71.0105 155.76> 59.4608 43.2<283.553 367.539> 191.461 48.8<-156.256 -91.5187> 218.661 44<295.352 359.134> 244.261 53.6<56.0454 149.045>
LayerCount: 2
Back
SplineSet
54.2158 104 m 6x9f
 59.4346 141 59.1504 156 75.1504 156 c 4x9f
 95.1504 156 77.5547 122 84.8047 94 c 4
 89.8428 73 121.281 35 167.682 35 c 4
 203.682 35 236.29 62 241.934 102 c 4
 251.244 168 182.254 178 157.923 187 c 4
 96.3682 210 79.4209 260 86.333 309 c 4
 94.7969 369 146.178 427 218.178 427 c 4
 242.178 427 253.474 422 257.474 422 c 4
 264.674 422 269.283 432 278.883 432 c 4
 288.483 432 288.909 418 289.004 413 c 4
 288.866 378 289.956 312 289.392 308 c 4
 287.559 295 275.135 292 268.735 292 c 4
 251.936 292 258.426 321 250.046 341 c 4
 242.186 359 216.348 380 189.948 380 c 4
 162.748 380 136.586 359 132.073 327 c 4
 130.098 313 128.878 276 185.115 255 c 4
 223.94 241 261.117 238 284.652 195 c 4
 301.22 165 299.766 132 297.509 116 c 4
 288.479 52 236.064 -19 156.865 -19 c 6
 153.665 -19 l 5
 146.467 -36 145.385 -38 145.103 -40 c 4
 144.82 -42 145.479 -43 147.879 -43 c 6
 150.279 -43 l 6
 188.679 -43 213.812 -69 206.759 -119 c 6
 206.617 -120 l 6
 202.104 -152 182.438 -195 130.438 -195 c 4xaf
 104.838 -195 71.708 -186 69.0713 -182 c 4
 66.9541 -180 66.4355 -178 66.8594 -175 c 4
 67.001 -174 72.6445 -151 81.4443 -151 c 4x4f
 82.2441 -151 106.716 -159 121.916 -159 c 4
 139.516 -159 154.149 -146 156.83 -127 c 4
 160.64 -100 140.542 -78 107.365 -75 c 4
 105.766 -75 103.365 -75 103.789 -72 c 4
 103.93 -71 120.208 -35 128.488 -16 c 5
 98.7939 -11 52.2969 11 47.7744 47 c 4
 47.0205 53 47.8682 59 48.7139 65 c 6
 54.2158 104 l 6x9f
EndSplineSet
Fore
SplineSet
57.3184 126 m 2xea80
 60.2812 147 63.1504 156 75.1504 156 c 0
 95.1504 156 77.5547 122 84.8047 94 c 0xea80
 89.8428 73 121.281 35 167.682 35 c 0
 203.682 35 236.29 62 241.934 102 c 0
 251.244 168 182.254 178 157.923 187 c 0
 96.3682 210 79.4209 260 86.333 309 c 0
 94.7969 369 146.178 427 218.178 427 c 0xe480
 242.178 427 253.474 422 257.474 422 c 0
 264.674 422 269.283 432 278.883 432 c 0
 288.483 432 288.909 418 289.004 413 c 0
 288.866 378 289.956 312 289.392 308 c 0xd5
 287.559 295 275.135 292 268.735 292 c 0xd080
 251.936 292 258.426 321 250.046 341 c 0
 242.186 359 216.348 380 189.948 380 c 0
 162.748 380 136.586 359 132.073 327 c 0xe5
 130.098 313 128.878 276 185.115 255 c 0
 223.94 241 261.117 238 284.652 195 c 0
 301.22 165 299.766 132 297.509 116 c 0
 288.479 52 236.064 -19 156.865 -19 c 1
 149.667 -36 145.385 -38 145.103 -40 c 0
 144.82 -42 145.479 -43 147.879 -43 c 0
 186.279 -43 213.812 -69 206.759 -119 c 2
 206.617 -120 l 2
 202.104 -152 182.438 -195 130.438 -195 c 0
 104.838 -195 71.708 -186 69.0713 -182 c 0
 66.9541 -180 66.4355 -178 66.8594 -175 c 0
 67.001 -174 72.6445 -151 81.4443 -151 c 0
 82.2441 -151 106.716 -159 121.916 -159 c 0
 139.516 -159 154.149 -146 156.83 -127 c 0
 160.64 -100 140.542 -78 107.365 -75 c 0
 105.766 -75 103.365 -75 103.789 -72 c 0
 103.93 -71 120.208 -35 128.488 -16 c 1
 105.853 -12 72.627 2 56.6719 25 c 0
 49.4229 36 45.8926 45 48.7139 65 c 2
 57.3184 126 l 2xea80
EndSplineSet
EndChar

StartChar: Tcommaaccent
Encoding: 354 354 240
Width: 633
GlyphClass: 2
Flags: HW
HStem: -195 36<308.412 381.284> -6 53<242.074 326.347 401.93 488.734> 622 66<156.299 327.182 401.987 567.083>
VStem: 327.498 74.4<49.375 621.698> 384.298 48.8<-156.256 -91.5187>
LayerCount: 2
Fore
SplineSet
381.398 -120 m 2xe8
 376.884 -152 357.219 -195 305.219 -195 c 0
 279.618 -195 246.488 -186 243.853 -182 c 0
 241.735 -180 241.217 -178 241.641 -175 c 0
 241.781 -174 247.426 -151 256.226 -151 c 0
 257.025 -151 281.497 -159 296.697 -159 c 0
 314.297 -159 328.932 -146 331.611 -127 c 0xe8
 335.419 -100 315.323 -78 282.146 -75 c 0
 280.547 -75 278.146 -75 278.569 -72 c 0
 278.711 -71 299.741 -24 311.126 0 c 1
 258.185 -1 231.08 -6 222.28 -6 c 0
 209.48 -6 207.973 6 209.947 20 c 0
 213.474 45 221.71 41 272.156 47 c 0
 296.579 50 301.754 64 304.575 84 c 2
 376.093 591 l 2
 378.068 605 379.667 622 358.866 622 c 2
 239.667 622 l 2
 218.066 622 214.02 616 206.445 602 c 0
 162.219 521 159.727 509 144.526 509 c 0
 134.127 509 128.479 520 130.453 534 c 2
 130.594 535 l 2
 131.44 541 132.663 544 173.26 673 c 0
 177.636 687 185.777 688 192.177 688 c 2
 658.577 688 l 2
 671.377 688 671.565 678 671.332 665 c 0
 672.944 563 673.322 543 672.477 537 c 0
 670.783 525 662.973 515 654.173 515 c 0
 643.773 515 640.666 527 638.453 534 c 0
 612.419 616 614.866 622 590.066 622 c 2
 472.467 622 l 2
 455.667 622 452.892 608 451.058 595 c 2
 377.142 71 l 2xf0
 373.474 45 384.438 49 445.851 42 c 0
 458.369 40 459.122 34 456.301 14 c 0
 454.89 4 450.28 -6 439.88 -6 c 0
 435.88 -6 391.926 0 336.726 0 c 1
 330.751 -14 320.024 -39 319.884 -40 c 0
 319.602 -42 320.26 -43 322.66 -43 c 2
 325.061 -43 l 2
 363.46 -43 388.593 -69 381.54 -119 c 2
 381.398 -120 l 2xe8
EndSplineSet
EndChar

StartChar: tcommaaccent
Encoding: 355 355 241
Width: 304
GlyphClass: 2
Flags: HW
HStem: -195 36<129.071 201.943> -18 64<181.467 232.022> 363 54<163.362 271.207>
VStem: 99.3571 55.2<55.2482 362.954> 204.957 48.8<-156.256 -91.5187>
LayerCount: 2
Fore
SplineSet
213.695 -120 m 2
 209.181 -152 189.516 -195 137.516 -195 c 0
 111.916 -195 78.7852 -186 76.1504 -182 c 0
 74.0322 -180 73.5137 -178 73.9375 -175 c 0
 74.0781 -174 79.7227 -151 88.5225 -151 c 0
 89.3223 -151 113.795 -159 128.995 -159 c 0
 146.595 -159 161.229 -146 163.907 -127 c 0
 167.716 -100 147.62 -78 114.443 -75 c 0
 112.843 -75 110.443 -75 110.866 -72 c 0
 111.008 -71 127.286 -35 136.366 -16 c 1
 99.7998 -3 86.0059 41 90.752 103 c 0
 91.5039 114 92.915 124 94.4668 135 c 0
 100.673 179 125.738 334 128.84 356 c 0
 129.546 361 129.31 365 124.51 365 c 2
 98.9102 365 l 2
 91.71 365 83.0518 366 84.7441 378 c 0
 87.1426 395 129.681 413 185.859 505 c 0
 188.964 510 195.599 523 204.398 523 c 0
 209.198 523 214.375 520 212.541 507 c 0
 210.566 493 203.841 451 201.867 437 c 0
 199.469 420 205.445 417 215.045 417 c 2
 287.045 417 l 2
 289.445 417 290.905 416 293.305 416 c 0
 300.505 416 314.105 416 311.424 397 c 0
 310.578 391 304.979 374 300.134 368 c 0
 296.37 364 292.229 363 285.028 363 c 2
 191.429 363 l 2
 185.828 363 183.146 361 182.158 354 c 0
 154.98 167 151.736 144 148.35 120 c 0
 143.413 85 145.111 46 178.712 46 c 0
 217.111 46 256.775 106 274.375 106 c 0
 283.176 106 287.507 97 286.237 88 c 0
 285.107 80 280.262 74 278.238 71 c 0
 218.481 -1 183.565 -16 160.884 -18 c 1
 154.345 -36 152.463 -38 152.181 -40 c 0
 151.898 -42 152.557 -43 154.957 -43 c 2
 157.357 -43 l 2
 195.757 -43 220.89 -69 213.837 -119 c 2
 213.695 -120 l 2
EndSplineSet
EndChar

StartChar: longs
Encoding: 383 383 261
Width: 231
GlyphClass: 2
Flags: HW
HStem: -6 45<53.7357 103.147 161.682 223.272> 360 48<47.687 105.065> 653 67<218.827 315.217>
VStem: 106.482 55.2<38.7292 359.683 408.753 564.612>
LayerCount: 2
Fore
SplineSet
14.4756 -6 m 0
 4.07617 -6 4.45117 8 6.00293 19 c 0
 8.25977 35 15.9775 33 46.4238 39 c 0
 58.7061 41 59.3164 51 61.8096 63 c 0
 66.9365 88 78.1279 156 105.494 350 c 0
 107.187 362 102.764 359 64.5049 360 c 0
 59.7051 360 47.7051 360 50.2441 378 c 0
 53.4883 401 60.875 408 71.2754 408 c 0
 111.558 410 111.793 406 113.486 418 c 2
 113.628 419 l 1
 119.929 458 136.343 546 175.111 611 c 1
 216.703 679 288.087 720 336.887 720 c 0
 380.087 720 390.114 689 387.152 668 c 0
 384.471 649 369.65 629 348.051 629 c 0
 325.65 629 309.835 653 285.035 653 c 0
 228.235 653 188.53 553 172.025 436 c 0
 169.909 421 168.734 407 162.81 365 c 2
 120.351 64 l 1
 119.928 61 l 2
 118.517 51 117.483 38 132.541 37 c 0
 168.777 33 178.424 39 175.179 16 c 0
 173.487 4 168.876 -6 159.276 -6 c 0
 156.876 -6 126.522 0 88.1221 0 c 0
 48.9219 0 16.876 -6 14.4756 -6 c 0
EndSplineSet
EndChar

StartChar: uni0237
Encoding: 567 567 262
Width: 198
GlyphClass: 2
Flags: HW
HStem: -231 77<-10.8812 56.5149> 422 20G<135.132 139.532>
VStem: 89.1321 56.8<-117.424 346.052>
LayerCount: 2
Fore
SplineSet
87.8379 102 m 0
 105.753 229 116.382 293 119.344 314 c 0
 122.447 336 117.647 336 79.1016 369 c 0
 76.1836 371 72.749 375 73.5947 381 c 0
 75.0059 391 75.5225 389 177.917 440 c 0
 179.658 441 181.399 442 183.8 442 c 0
 190.199 442 190.812 435 189.543 426 c 0
 186.861 407 177.222 350 160.999 235 c 0
 135.609 55 126.113 -35 121.882 -65 c 0
 119.201 -84 113.791 -94 103.675 -109 c 0
 90.7354 -127 14.4648 -231 -32.7354 -231 c 0
 -49.5352 -231 -61.1602 -217 -58.3389 -197 c 0
 -55.6582 -178 -40.2734 -154 -17.0732 -154 c 0
 -8.27344 -154 -1.49707 -157 6.50293 -157 c 0
 20.1035 -157 53.5137 -147 63.2471 -78 c 0
 65.7871 -60 72.6035 -6 87.8379 102 c 0
EndSplineSet
EndChar

StartChar: circumflex
Encoding: 710 710 263
Width: 190
GlyphClass: 2
Flags: HW
HStem: 479 221
VStem: 30.9401 146.4<482 499>
LayerCount: 2
Fore
SplineSet
27.3525 479 m 0
 23.3525 479 15.7764 482 17.4688 494 c 0
 18.4561 501 71.9941 631 92.0371 671 c 0
 95.4238 678 105.728 700 119.327 700 c 0
 140.928 700 145.123 639 163.161 506 c 0
 163.538 503 164.573 499 164.01 495 c 0
 162.176 482 152.953 479 149.753 479 c 0
 140.953 479 137.281 487 132.197 502 c 0
 110.071 572 109.977 577 102.777 577 c 0
 93.9766 577 91.249 569 49.5146 500 c 0
 41.2812 487 34.5527 479 27.3525 479 c 0
EndSplineSet
EndChar

StartChar: caron
Encoding: 711 711 264
Width: 196
GlyphClass: 2
Flags: HW
HStem: 479 221
VStem: 37.66 146.4<680 697>
LayerCount: 2
Fore
SplineSet
187.647 700 m 0
 191.647 700 199.224 697 197.531 685 c 0
 196.543 678 142.865 547 122.963 508 c 0
 119.577 501 109.272 479 95.6729 479 c 0
 74.0723 479 69.877 540 51.8389 673 c 0
 51.4619 676 50.4268 680 50.9902 684 c 0
 52.8242 697 62.0479 700 65.2471 700 c 0
 74.0479 700 77.7188 692 82.8027 677 c 0
 89.958 654 104.411 609 104.929 607 c 0
 107.423 602 110.623 602 112.224 602 c 0
 121.023 602 123.751 610 165.343 678 c 0
 173.719 692 180.447 700 187.647 700 c 0
EndSplineSet
EndChar

StartChar: breve
Encoding: 728 728 265
Width: 247
GlyphClass: 2
Flags: HW
HStem: 481 68<96.7559 175.704>
VStem: 41.6924 45.6<564.065 630.344>
LayerCount: 2
Fore
SplineSet
51.708 633 m 2
 52.8359 641 64.3184 643 70.7178 643 c 0
 85.918 643 72.5566 622 90.2549 583 c 0
 100.233 563 114.259 549 133.459 549 c 2
 134.259 549 l 2
 182.259 549 217.543 629 221.59 635 c 0
 223.612 638 226.577 642 232.177 642 c 0
 238.577 642 246.437 641 245.59 635 c 0
 244.461 627 199.867 481 120.667 481 c 0
 84.667 481 50.499 511 51.2842 630 c 1
 51.708 633 l 2
EndSplineSet
EndChar

StartChar: dotaccent
Encoding: 729 729 266
Width: 131
GlyphClass: 2
Flags: HW
HStem: 479 112<37.1868 109.232>
VStem: 26.5829 92.8<492.202 577.369>
LayerCount: 2
Fore
SplineSet
26.4414 534 m 0
 30.9551 566 56.8818 591 80.8818 591 c 0
 106.482 591 123.756 566 119.383 535 c 0
 115.01 504 89.8838 479 65.084 479 c 0
 39.4834 479 22.0684 503 26.4414 534 c 0
EndSplineSet
EndChar

StartChar: ring
Encoding: 730 730 267
Width: 176
GlyphClass: 2
Flags: HW
HStem: 474 39<70.0183 126.566> 612 38<70.2587 126.164>
VStem: 29.9973 32<522.079 602.575> 134.797 31.2<521.969 601.702>
LayerCount: 2
Fore
SplineSet
110.411 650 m 0
 148.811 650 172.627 609 165.997 562 c 0
 159.085 513 123.184 474 85.584 474 c 0
 48.7842 474 23.0859 513 29.9971 562 c 0
 36.7686 610 73.6104 650 110.411 650 c 0
105.05 612 m 0
 85.0508 612 65.8057 589 62.1387 563 c 0
 58.3291 536 71.0859 513 91.8857 513 c 0
 113.485 513 131.412 538 134.797 562 c 0
 138.323 587 125.85 612 105.05 612 c 0
EndSplineSet
EndChar

StartChar: tilde
Encoding: 732 732 268
Width: 302
GlyphClass: 2
Flags: HW
HStem: 568 54<167.092 244.576> 613 52<83.366 150.891>
VStem: 46.4356 243.2
LayerCount: 2
Fore
SplineSet
213.093 622 m 0xa0
 249.894 622 272.383 668 281.982 668 c 0
 285.183 668 296.337 662 295.35 655 c 0
 294.22 647 263.119 608 241.38 590 c 0
 228.628 579 211.076 568 191.876 568 c 0xa0
 151.076 568 144.624 613 112.624 613 c 0
 77.4238 613 55.6885 561 49.2891 561 c 0
 46.0889 561 40.2998 571 41.0039 576 c 0
 41.5693 580 73.1406 628 86.3145 642 c 0
 97.6074 654 111.159 665 129.559 665 c 0x60
 165.559 665 177.093 622 213.093 622 c 0xa0
EndSplineSet
EndChar

StartChar: emdash
Encoding: 8212 8212 270
Width: 961
GlyphClass: 2
Flags: HW
HStem: 224 55<128.5 940.376>
LayerCount: 2
Fore
SplineSet
128.26 250 m 2
 128.824 254 l 2
 130.518 266 133.15 279 143.551 279 c 2
 933.152 279 l 2
 943.552 279 942.231 264 940.824 254 c 2
 940.544 252 l 2
 937.439 230 934.191 224 925.392 224 c 2
 135.793 224 l 2
 124.593 224 126.567 238 128.26 250 c 2
EndSplineSet
EndChar

StartChar: quoteleft
Encoding: 8216 8216 271
Width: 203
GlyphClass: 2
Flags: HW
HStem: 464 98<87.5357 161.696>
VStem: 52.8091 31.2<567.528 642.282>
LayerCount: 2
Fore
SplineSet
105.881 464 m 0
 77.8809 464 41.0303 492 52.8799 576 c 0
 64.1641 656 102.137 687 113.337 687 c 1
 121.996 686 127.127 677 125.716 667 c 0
 123.601 652 92.6846 637 87.4648 600 c 0
 85.3486 585 88.5039 562 116.504 562 c 0
 121.305 562 126.246 563 131.046 563 c 0
 163.046 563 167.237 536 164.98 520 c 0
 161.454 495 138.681 464 105.881 464 c 0
EndSplineSet
EndChar

StartChar: quoteright
Encoding: 8217 8217 272
Width: 205
GlyphClass: 2
Flags: HW
HStem: 586 98<65.7828 139.889>
VStem: 143.163 32<505.811 580.483>
LayerCount: 2
Fore
SplineSet
121.221 684 m 0
 149.221 684 186.871 656 175.021 572 c 0
 163.737 492 125.905 462 113.905 462 c 0
 105.105 462 99.9746 471 101.386 481 c 0
 103.643 497 134.558 512 139.778 549 c 0
 141.752 563 138.597 586 110.597 586 c 0
 105.796 586 100.855 585 96.0557 585 c 0
 64.0557 585 60.6641 612 62.9209 628 c 0
 66.4482 653 88.4209 684 121.221 684 c 0
EndSplineSet
EndChar

StartChar: quotesinglbase
Encoding: 8218 8218 273
Width: 205
GlyphClass: 2
Flags: HW
HStem: -44 98<65.2819 139.09>
VStem: 142.169 32<-124.657 -49.5172>
LayerCount: 2
Fore
SplineSet
121.026 54 m 0
 148.227 54 185.877 26 174.027 -58 c 0
 162.743 -138 124.911 -168 113.711 -168 c 0
 104.911 -168 99.7803 -159 101.191 -149 c 0
 103.448 -133 133.564 -118 138.784 -81 c 0
 140.758 -67 138.402 -44 109.603 -44 c 0
 104.803 -44 100.662 -45 95.8613 -45 c 0
 63.8613 -45 59.6699 -18 61.9277 -2 c 0
 65.4541 23 88.2266 54 121.026 54 c 0
EndSplineSet
EndChar

StartChar: quotedblleft
Encoding: 8220 8220 274
Width: 373
GlyphClass: 2
Flags: HW
HStem: 464 98<106.093 180.2 258.093 332.2>
VStem: 70.8196 32<567.528 642.751> 222.82 32<567.528 642.751>
LayerCount: 2
Fore
SplineSet
276.691 464 m 0
 248.691 464 211.04 492 222.89 576 c 0
 234.175 656 272.147 687 284.147 687 c 1
 292.807 686 297.938 677 296.526 667 c 0
 294.411 652 263.495 637 258.275 600 c 0
 256.159 585 258.515 562 287.314 562 c 0
 292.115 562 297.057 563 301.856 563 c 0
 333.856 563 337.248 536 334.991 520 c 0
 331.465 495 309.491 464 276.691 464 c 0
124.691 464 m 0
 96.6914 464 59.041 492 70.8896 576 c 0
 82.1748 656 120.147 687 132.147 687 c 1
 140.807 686 145.938 677 144.526 667 c 0
 142.411 652 111.495 637 106.275 600 c 0
 104.159 585 106.515 562 135.314 562 c 0
 140.115 562 145.057 563 149.856 563 c 0
 181.856 563 185.248 536 182.991 520 c 0
 179.465 495 157.491 464 124.691 464 c 0
EndSplineSet
Substitution2: "'ss01' Style Set 1 in Latin lookup 0 subtable" quotedblleft.001
EndChar

StartChar: quotedblright
Encoding: 8221 8221 275
Width: 375
GlyphClass: 2
Flags: HW
HStem: 586 98<84.2819 158.09 236.282 310.09>
VStem: 161.169 32<505.343 580.483> 313.169 32<505.343 580.483>
LayerCount: 2
Fore
SplineSet
140.026 684 m 0
 167.227 684 204.877 656 193.027 572 c 0
 181.743 492 143.911 462 132.711 462 c 2
 131.911 462 l 2
 123.911 462 118.922 472 120.191 481 c 0
 122.448 497 152.564 512 157.784 549 c 0
 159.758 563 157.402 586 128.603 586 c 0
 123.803 586 119.662 585 114.861 585 c 0
 82.8613 585 78.6699 612 80.9277 628 c 0
 84.4541 653 107.227 684 140.026 684 c 0
292.026 684 m 0
 319.227 684 356.877 656 345.027 572 c 0
 333.743 492 295.911 462 284.711 462 c 2
 283.911 462 l 2
 275.911 462 270.922 472 272.191 481 c 0
 274.449 497 304.564 512 309.784 549 c 0
 311.758 563 309.402 586 280.603 586 c 0
 275.803 586 271.661 585 266.861 585 c 0
 234.861 585 230.67 612 232.927 628 c 0
 236.453 653 259.227 684 292.026 684 c 0
EndSplineSet
Substitution2: "'ss01' Style Set 1 in Latin lookup 0 subtable" quotedblright.001
EndChar

StartChar: bullet
Encoding: 8226 8226 277
Width: 257
GlyphClass: 2
Flags: HW
HStem: 188 160<99.8275 186.173>
VStem: 79 128<214.034 321.966>
LayerCount: 2
Fore
SplineSet
131.715 188 m 0
 94.915 188 73.2168 227 79 268 c 0
 85.4893 314 121.484 348 154.285 348 c 0
 191.085 348 212.783 309 207 268 c 0
 200.511 222 164.516 188 131.715 188 c 0
EndSplineSet
EndChar

StartChar: guilsinglleft
Encoding: 8249 8249 280
Width: 202
GlyphClass: 2
Flags: HW
HStem: 52 282<167.655 178.055>
VStem: 42.0552 63.2<170.963 215.713>
LayerCount: 2
Fore
SplineSet
192.345 334 m 0
 198.745 334 203.452 322 202.465 315 c 0
 201.618 309 201.759 310 109.583 201 c 0
 107.701 199 105.819 197 105.396 194 c 0
 104.55 188 106.668 186 165.174 79 c 0
 166.492 77 167.67 74 167.246 71 c 0
 166.117 63 158.166 52 151.766 52 c 0
 146.966 52 147.766 52 44.7861 184 c 0
 43.4678 186 41.4912 189 42.0557 193 c 0
 42.7607 198 45.583 201 49.207 204 c 0
 188.345 334 187.545 334 192.345 334 c 0
EndSplineSet
EndChar

StartChar: guilsinglright
Encoding: 8250 8250 281
Width: 198
GlyphClass: 2
Flags: HW
HStem: 52 282<45.8274 54.6274>
VStem: 117.827 63.2<170.161 215.625>
LayerCount: 2
Fore
SplineSet
70.5176 334 m 0
 75.3174 334 73.7168 334 176.979 204 c 0
 179.756 201 181.733 198 181.027 193 c 2
 180.886 192 l 2
 180.04 186 177.641 186 40.2432 57 c 0
 37.4199 54 34.7373 52 31.5381 52 c 0
 25.9375 52 20.0068 61 21.2764 70 c 0
 21.7002 73 22.9238 76 25.7461 79 c 0
 114.44 186 117.264 189 117.827 193 c 0
 118.251 196 117.733 198 115.756 201 c 2
 56.8262 305 l 2
 54.8496 308 54.4727 311 55.0371 315 c 0
 56.3066 324 65.7168 334 70.5176 334 c 0
EndSplineSet
EndChar

StartChar: fraction
Encoding: 8260 8260 282
Width: 391
GlyphClass: 2
Flags: HW
LayerCount: 2
Fore
SplineSet
17.3369 -187 m 0
 11.7373 -187 -5.72168 -186 -3.8877 -173 c 0
 -3.18262 -168 -3.32324 -169 402.661 571 c 0
 405.767 576 408.731 580 415.931 580 c 0
 422.331 580 440.309 577 438.191 562 c 0
 437.628 558 435.604 555 434.382 552 c 0
 29.9014 -183 32.0654 -179 28.3018 -183 c 0
 25.4775 -186 22.1377 -187 17.3369 -187 c 0
EndSplineSet
EndChar

StartChar: Euro
Encoding: 8364 8364 283
Width: 644
GlyphClass: 2
Flags: HW
HStem: -14 60<355.544 522.5> 234 62<113.51 169.51 228.71 520.71> 345 61<110.31 169.51 228.71 558.31> 594 60<351.578 521.547>
VStem: 169.51 48.8<296 345>
LayerCount: 2
Fore
SplineSet
473.76 594 m 0
 404.96 594 302.613 549 240.841 406 c 1
 590.441 406 l 1
 561.836 345 l 1
 221.836 345 l 1
 221.131 340 219.202 332 217.651 321 c 0
 215.959 309 215.629 301 214.925 296 c 1
 538.125 296 l 1
 508.578 234 l 1
 216.578 234 l 1
 233.676 100 325.26 46 394.859 46 c 0
 506.859 46 577.719 140 580.542 143 c 1
 583.6 142 l 1
 572.598 64 l 1
 517.826 16 458.395 -14 389.595 -14 c 0
 300.795 -14 185.636 43 165.379 234 c 1
 81.3789 234 l 1
 110.125 296 l 1
 166.125 296 l 1
 173.036 345 l 1
 93.8359 345 l 1
 122.441 406 l 1
 189.641 406 l 1
 261.524 598 403.825 654 477.425 654 c 0
 556.625 654 611.074 626 661.719 554 c 1
 642.193 512 630.432 491 630.432 491 c 1
 622.993 512 576.96 594 473.76 594 c 0
EndSplineSet
EndChar

StartChar: trademark
Encoding: 8482 8482 284
Width: 831
GlyphClass: 2
Flags: HW
HStem: 370 31<203.652 245.246 285.246 326.825 415.012 454.446 487.846 525.063 680.524 721.892 760.54 798.724> 675 36<161.407 245.246 285.246 365.885> 682 23<416.483 449.158>
VStem: 130.046 20.8<620.051 656.362> 245.246 40<400.096 675> 461.246 25.6<401.858 605> 722.046 38.4<398.694 604.998>
LayerCount: 2
Fore
SplineSet
743.941 421 m 2xbe
 740.697 398 745.638 399 769.356 397 c 0
 774.156 397 778.533 394 776.981 383 c 0
 775.854 375 771.947 370 765.548 370 c 0
 760.748 370 746.771 373 717.971 373 c 2
 716.371 373 l 2
 685.971 373 671.147 370 666.348 370 c 0
 658.348 370 657.876 378 658.723 384 c 0
 660.557 397 672.557 397 688.038 399 c 0
 701.12 401 703.566 407 705.824 423 c 2
 720.354 526 l 2
 731.215 603 731.496 605 729.896 605 c 1
 729.896 605 722.792 600 678.048 521 c 0
 588.042 365 589.642 365 580.842 365 c 2
 579.242 365 l 1
 563.384 366 568.364 424 499.356 604 c 0
 499.496 605 499.496 605 497.896 605 c 1
 496.486 595 487.692 544 482.05 504 c 0
 468.085 405 467.521 401 475.521 401 c 1
 489.638 399 505.92 401 503.381 383 c 0
 502.253 375 498.348 370 493.548 370 c 0
 488.747 370 474.771 373 447.57 373 c 0
 418.771 373 403.947 370 399.147 370 c 0
 394.348 370 391.854 375 392.981 383 c 0
 395.38 400 409.638 399 425.92 401 c 0
 435.803 403 435.238 399 458.989 522 c 0
 468.96 570 479.023 630 480.717 642 c 0
 481.28 646 471.818 681 446.358 682 c 0
 441.559 682 437.041 684 438.169 692 c 0
 439.58 702 443.203 705 448.003 705 c 2
 504.003 705 l 2
 510.402 705 512.521 703 514.216 698 c 2
 566.233 545 l 1
 600.691 449 600.691 449 603.892 449 c 0
 605.491 449 607.515 452 607.796 454 c 2
 743.629 691 l 2
 747.957 699 748.803 705 756.803 705 c 2
 814.402 705 l 2
 819.203 705 822.121 703 820.569 692 c 0
 817.185 668 779.724 686 776.196 661 c 0
 772.811 637 769.566 614 744.788 427 c 1
 743.941 421 l 2xbe
295.147 370 m 0
 290.348 370 274.771 373 244.371 373 c 2
 242.771 373 l 2
 210.771 373 194.348 370 189.548 370 c 0
 186.348 370 180.229 372 182.062 385 c 0
 184.18 400 191.897 398 214.579 400 c 1
 224.462 402 226.767 407 228.036 416 c 2
 262.737 662 l 2
 263.866 670 264.571 675 256.571 675 c 2
 197.371 675 l 2
 186.172 675 187.771 675 163.965 631 c 1
 163.541 628 159.213 620 151.213 620 c 0
 148.013 620 142.177 624 143.729 635 c 0
 144.152 638 164.521 703 164.521 703 c 2
 166.968 709 168.85 711 175.25 711 c 2
 402.45 711 l 2
 412.85 711 410.686 707 410.176 641 c 0
 410.034 640 411.353 638 411.07 636 c 0
 409.801 627 402.836 623 399.637 623 c 0
 393.236 623 391.164 631 389.847 633 c 0
 377.889 673 379.771 675 368.571 675 c 2
 310.972 675 l 2xde
 304.571 675 304.007 671 303.02 664 c 2
 267.189 410 l 2
 265.779 400 268.18 400 299.097 398 c 0
 306.956 397 306.393 393 304.84 382 c 0
 303.854 375 299.947 370 295.147 370 c 0
EndSplineSet
EndChar

StartChar: minus
Encoding: 8722 8722 285
Width: 631
GlyphClass: 2
Flags: HW
HStem: 231 57<112.639 589.402>
LayerCount: 2
Fore
SplineSet
127.019 231 m 2
 115.019 231 109.183 235 111.722 253 c 2
 113.557 266 l 2
 116.518 287 127.06 288 135.859 288 c 2
 577.459 288 l 2
 587.859 288 592.896 284 590.779 269 c 2
 588.805 255 l 2
 585.56 232 574.219 231 563.819 231 c 2
 127.019 231 l 2
EndSplineSet
EndChar

StartChar: f_f
Encoding: 65537 -1 287
Width: 457
GlyphClass: 3
Flags: HW
HStem: 0 37<65.5065 112.07 171.121 230.052 240.207 291.72 350.331 410.879> 360 51<74.7819 113.574 171.081 293.376 350.32 446.541> 630 90<439.185 512.461> 643 62<223.363 299.357>
VStem: 115.076 56<38.2926 360 411 549.4> 293.476 56<38.1114 358.995 411 571.372> 323.876 25.6<608 615>
LayerCount: 2
Fore
SplineSet
354.952 617 m 2xda
 328.552 617 316.22 643 288.22 643 c 0
 226.62 643 192.423 514 182.125 441 c 2
 179.727 424 l 2
 178.599 416 179.492 411 186.692 411 c 2
 289.093 411 l 2
 296.293 411 301.234 412 302.786 423 c 2
 303.914 431 l 2xdc
 320.701 550 359.282 608 359.988 613 c 0
 360.27 615 359.752 617 357.352 617 c 2
 354.952 617 l 2xda
115.493 411 m 2
 120.293 411 121.517 414 122.362 420 c 2
 122.504 421 l 2
 130.827 480 166.15 634 281.249 690 c 0
 299.319 699 318.564 705 336.965 705 c 0xdc
 385.765 705 391.604 667 396.404 667 c 0
 400.404 667 449.481 720 517.481 720 c 0
 559.081 720 568.449 690 565.628 670 c 0
 562.525 648 546.387 630 527.187 630 c 0xec
 503.187 630 488.312 655 462.713 655 c 0
 435.513 655 406.009 633 377.598 528 c 0
 371.012 504 366.686 479 363.159 454 c 2
 358.645 422 l 2
 357.517 414 358.692 411 365.093 411 c 2
 442.692 411 l 2
 452.293 411 454.788 406 453.378 396 c 0
 452.53 390 447.546 366 437.099 360 c 0
 433.758 359 431.358 359 428.158 359 c 2
 357.758 359 l 2
 351.358 359 349.993 355 349.006 348 c 2
 308.099 58 l 2
 304.995 36 313.277 38 352.714 34 c 0
 362.972 33 364.385 26 362.551 13 c 0
 361.14 3 357.612 -5 348.812 -5 c 0
 341.612 -5 319.917 0 274.316 0 c 0
 234.316 0 201.612 -5 199.212 -5 c 0
 191.212 -5 189.939 3 191.068 11 c 0
 194.03 32 198.69 31 225.936 37 c 0
 241.7 41 248.431 32 258.164 101 c 2
 294.089 350 l 2
 294.935 356 293.899 360 286.699 360 c 2
 182.699 360 l 2
 176.299 360 171.358 359 169.948 349 c 2
 129.181 60 l 1
 128.898 58 l 2
 127.77 50 127.018 39 140.336 37 c 0
 172.714 34 185.277 38 181.892 14 c 0
 180.34 3 177.471 -6 169.471 -6 c 0
 167.07 -6 136.717 0 97.5166 0 c 0
 58.3164 0 27.0703 -6 24.6709 -6 c 0
 16.6709 -6 15.54 3 17.5146 17 c 0
 20.4775 38 29.8896 31 55.8184 39 c 0
 69.1826 43 71.2051 46 88.1328 166 c 2
 114.088 350 l 2
 115.357 359 112.299 360 105.899 360 c 2
 90.6992 360 l 2
 81.8994 360 75.2637 364 77.3789 379 c 0
 80.7646 403 88.293 411 97.8926 411 c 2
 115.493 411 l 2
EndSplineSet
Ligature2: "'liga' Standard Ligatures in Latin lookup 1 per glyph data 1" f f
EndChar

StartChar: f_i
Encoding: 65538 -1 288
Width: 421
GlyphClass: 3
Flags: HW
HStem: -6 43<55.9879 105.208 163.923 225.484 242.364 301.98 359.204 403.834> 359 52<57.5557 107.528 163.939 302.679> 402 20G<341.091 348.291> 656 65<229.622 330.237>
VStem: 107.091 56.8<38.4601 358.944 411.009 541.351> 303.091 53.6<40.9917 355.634>
LayerCount: 2
Fore
SplineSet
354.367 721 m 0xdc
 389.566 721 411.404 700 407.031 669 c 0
 403.787 646 386.189 629 366.989 629 c 2
 366.189 629 l 2
 339.789 629 325.198 656 295.598 656 c 0
 223.598 656 187.521 508 179.619 469 c 0
 177.408 459 175.998 449 174.446 438 c 2
 173.177 429 l 2
 171.062 414 171.438 411 178.638 411 c 2
 280.238 411 l 1xdc
 323.861 414 346.589 422 353.789 422 c 0xbc
 360.989 422 370.825 418 367.58 395 c 0
 366.734 389 348.438 299 332.217 184 c 0
 329.678 166 316.043 58 316.138 53 c 0
 317.127 43 320.327 43 344.28 37 c 0
 349.739 36 358.116 33 355.859 17 c 0
 354.872 10 350.355 -5 339.956 -5 c 0
 333.556 -5 315.062 0 275.861 0 c 0
 237.461 0 205.415 -6 203.015 -6 c 0
 195.015 -6 192.003 1 193.412 11 c 0
 196.657 34 199.575 32 236.421 38 c 0
 256.986 42 260.702 57 263.101 74 c 2
 269.589 120 l 2
 288.208 252 298.46 319 301.563 341 c 0
 303.257 353 300.197 354 282.079 356 c 0
 272.762 358 263.303 359 252.903 359 c 2
 171.303 359 l 2
 166.503 359 163.961 358 162.974 351 c 2
 122.489 64 l 1
 122.066 61 l 2
 120.655 51 119.621 38 134.681 37 c 0
 170.916 33 180.562 39 177.318 16 c 0
 175.625 4 171.015 -6 161.415 -6 c 0
 159.015 -6 128.661 0 90.2607 0 c 0
 51.0615 0 19.0146 -6 16.6152 -6 c 0
 6.21484 -6 6.58984 8 8.1416 19 c 0
 10.3984 35 18.1162 33 48.5625 39 c 0
 60.8447 41 61.4561 51 63.9482 63 c 0
 69.0742 88 80.2666 156 107.633 350 c 0
 109.326 362 103.303 359 73.8428 360 c 0
 65.8428 360 57.6084 364 59.582 378 c 0
 63.6738 407 76.6143 408 79.8145 408 c 2
 80.6143 408 l 1
 112.896 410 114.214 408 115.483 417 c 2
 115.766 419 l 1
 129.169 497 157.489 573 196.166 626 c 0
 260.721 715 335.967 721 354.367 721 c 0xdc
EndSplineSet
Ligature2: "'liga' Standard Ligatures in Latin lookup 1 per glyph data 1" f i
EndChar

StartChar: f_l
Encoding: 65539 -1 289
Width: 407
GlyphClass: 3
Flags: HW
HStem: -6 45<48.3812 97.7493 156.284 217.874 232.303 286.713 346.326 400.958> 359 52<53.1884 99.3542 156.302 245.921> 656 64<199.833 270.369>
VStem: 101.084 55.2<39.0996 358.944 411.009 577.529> 287.484 58.4<39.4059 634.46>
LayerCount: 2
Fore
SplineSet
107.736 417 m 2
 108.864 425 l 2
 113.942 461 128.568 542 162.256 605 c 0
 189.309 655 246.478 720 319.277 720 c 0
 342.478 720 350.149 712 358.949 712 c 0
 369.35 712 378.9 723 386.101 723 c 0
 394.9 723 396.032 714 394.621 704 c 2
 305.329 71 l 2
 300.814 39 309.897 41 341.71 34 c 0
 350.228 32 354.322 27 352.488 14 c 0
 350.936 3 348.067 -6 339.268 -6 c 0
 337.667 -6 305.714 0 264.913 0 c 0
 226.514 0 194.607 -5 193.008 -5 c 0
 181.008 -5 182.983 9 183.971 16 c 0
 186.65 35 192.909 34 219.873 38 c 0
 241.098 41 244.812 56 247.635 76 c 2
 315.625 558 l 1
 316.754 566 l 2
 320.28 591 325.17 637 287.285 652 c 0
 282.108 655 276.649 656 271.05 656 c 0
 205.449 656 177.137 512 166.134 434 c 0
 163.312 414 162.89 411 171.689 411 c 2
 236.489 411 l 2
 245.289 411 253.525 407 251.268 391 c 2
 251.128 390 l 2
 249.858 381 244.354 359 225.954 359 c 2
 163.555 359 l 2
 158.754 359 156.214 358 155.227 351 c 2
 114.741 64 l 1
 114.036 59 l 2
 112.767 50 111.874 38 126.933 37 c 0
 163.168 33 172.814 39 169.57 16 c 0
 167.878 4 163.268 -6 153.667 -6 c 0
 152.067 -6 120.913 0 82.5137 0 c 0
 43.3135 0 11.2666 -6 8.86621 -6 c 0
 -0.733398 -6 -1.1582 8 0.393555 19 c 0
 2.65039 35 10.3682 33 41.6143 39 c 0
 53.0977 41 53.707 51 56.2002 63 c 0
 61.3271 88 72.5186 156 99.8848 350 c 0
 101.578 362 96.3545 359 69.2959 360 c 0
 60.4951 360 53.0596 364 55.0352 378 c 0
 59.2666 408 72.8662 408 76.0664 408 c 0
 103.549 410 106.467 408 107.736 417 c 2
EndSplineSet
Ligature2: "'liga' Standard Ligatures in Latin lookup 1 per glyph data 1" f l
EndChar

StartChar: f_f_i
Encoding: 65540 -1 290
Width: 633
GlyphClass: 3
Flags: HW
HStem: 0 37<70.2092 116.578 175.823 234.755 252.903 304.423 363.039 423.582 455.964 514.66 572.691 617.317> 360 51<79.4846 118.307 175.784 306.079 363.023 516.827> 402 20G<554.579 561.779> 644 61<230.913 309.551> 668 59<409.837 498.419>
VStem: 119.779 56<38.2926 360 411 552.357> 306.179 56<38.1114 358.995 411 572.813> 515.779 56.8<40.3151 74 77 355.724>
LayerCount: 2
Fore
SplineSet
298.169 644 m 0xd7
 231.769 644 198.184 525 186.334 441 c 2
 183.936 424 l 2
 182.808 416 183.702 411 190.901 411 c 2
 301.302 411 l 2
 308.502 411 313.443 412 314.995 423 c 2
 316.123 431 l 2
 332.91 550 371.491 608 372.196 613 c 0
 372.479 615 371.961 617 369.561 617 c 2
 367.161 617 l 2
 340.761 617 328.569 644 298.169 644 c 0xd7
543.478 727 m 0x8f
 610.678 727 619.481 693 616.379 671 c 0
 612.853 646 593.795 630 575.396 630 c 0
 544.195 630 528.756 668 491.955 668 c 0
 457.556 668 400.618 633 375.367 454 c 2
 370.854 422 l 2xaf
 369.726 414 370.901 411 377.302 411 c 2
 494.102 411 l 1xc7
 537.726 414 559.654 422 566.854 422 c 0xa7
 574.054 422 583.89 418 580.645 395 c 0
 579.799 389 561.504 299 545.281 184 c 0
 542.742 166 528.308 58 529.202 53 c 0
 530.192 43 532.592 43 557.345 37 c 0
 562.004 36 571.181 33 568.924 17 c 0
 567.937 10 563.421 -5 553.021 -5 c 0
 546.621 -5 528.127 0 488.927 0 c 0
 449.727 0 417.68 -6 415.279 -6 c 0
 408.079 -6 405.066 1 406.478 11 c 0
 409.723 34 411.84 32 449.486 38 c 0
 470.051 42 473.766 57 476.164 74 c 1
 475.788 77 l 1
 481.854 120 l 2
 500.473 252 511.525 319 514.628 341 c 0
 516.321 353 513.262 354 495.145 356 c 1
 486.627 358 477.167 359 468.366 359 c 2
 369.967 359 l 2
 363.566 359 362.202 355 361.216 348 c 2
 320.308 58 l 2
 317.204 36 326.287 38 364.923 34 c 0
 375.181 33 376.594 26 374.76 13 c 0
 373.349 3 369.821 -5 361.021 -5 c 0
 353.821 -5 332.127 0 286.526 0 c 0
 246.526 0 213.821 -5 211.421 -5 c 0
 203.421 -5 202.149 3 203.277 11 c 0
 206.239 32 209.958 30 238.145 37 c 0
 253.909 41 260.64 32 270.373 101 c 2
 306.297 350 l 2
 307.144 356 306.108 360 298.908 360 c 2
 186.908 360 l 2
 180.508 360 175.566 359 174.157 349 c 2
 133.39 60 l 1
 133.107 58 l 2
 131.979 50 131.227 39 144.545 37 c 0
 176.923 34 189.486 38 186.101 14 c 0
 184.549 3 181.68 -6 173.68 -6 c 0
 171.279 -6 140.927 0 101.727 0 c 0
 62.5264 0 31.2793 -6 28.8799 -6 c 0
 20.8799 -6 19.749 3 21.7236 17 c 0
 24.6865 38 34.0986 31 60.0273 39 c 0
 68.3096 41 71.4141 46 73.4844 55 c 0
 80.0703 79 84.3008 109 97.5615 203 c 2
 118.297 350 l 2
 119.567 359 116.508 360 110.108 360 c 2
 94.9082 360 l 2
 86.1084 360 79.4727 364 81.5879 379 c 0
 84.9736 403 92.502 411 102.103 411 c 2
 119.702 411 l 2
 124.502 411 125.866 415 126.571 420 c 2
 126.713 421 l 2
 137.856 500 170.458 595 232.098 652 c 0
 258.825 677 305.174 705 348.374 705 c 2
 349.174 705 l 2xd7
 399.574 705 402.873 666 408.473 666 c 0
 414.214 667 455.478 727 543.478 727 c 0x8f
EndSplineSet
Ligature2: "'liga' Standard Ligatures in Latin lookup 1 per glyph data 0" f f i
EndChar

StartChar: f_f_l
Encoding: 65541 -1 291
Width: 631
GlyphClass: 3
Flags: HW
HStem: 0 37<79.2263 125.339 184.843 243.774 267.576 318.21 378.453 438.952 454.444 508.393 569.215 622.998> 360 51<72.532 127.478 184.804 321.498 378.442 474.356> 645 60<239.956 322.776> 703 20G<553.998 561.998>
VStem: 128.798 56<38.2926 360 411 552.477> 321.598 56<50.4385 358.995 411 574.152> 510.398 58.4<39.238 633.094>
LayerCount: 2
Fore
SplineSet
382.062 617 m 2xee
 355.662 617 342.812 645 307.612 645 c 0
 275.612 645 240.227 621 209.51 511 c 0
 203.065 488 198.881 464 195.636 441 c 2
 193.238 424 l 2
 192.109 416 193.004 411 200.204 411 c 2
 317.004 411 l 2
 323.403 411 329.146 412 330.696 423 c 2
 331.824 431 l 2
 348.611 550 386.393 608 387.098 613 c 0
 387.381 615 386.862 617 384.462 617 c 2
 382.062 617 l 2xee
424.314 667 m 2
 429.115 667 474.191 720 544.592 720 c 0
 565.392 720 573.063 712 581.063 712 c 2
 581.863 712 l 2
 592.264 712 601.814 723 609.015 723 c 0xde
 617.814 723 618.805 713 617.535 704 c 2
 529.513 80 l 2
 529.089 77 527.866 74 527.443 71 c 0
 522.929 39 532.012 41 563.823 34 c 0
 573.142 32 576.437 27 574.603 14 c 0
 573.05 3 570.182 -6 562.182 -6 c 0
 559.781 -6 527.828 0 487.828 0 c 0
 449.428 0 417.522 -5 415.122 -5 c 0
 403.122 -5 405.098 9 406.084 16 c 0
 408.765 35 415.023 34 442.788 38 c 0
 463.212 41 467.727 56 470.549 76 c 2
 539.81 567 l 2
 546.439 614 538.297 630 520.412 645 c 1
 509.399 652 499.423 655 490.623 655 c 0
 433.022 655 402.778 537 391.069 454 c 2
 386.555 422 l 2
 385.427 414 386.604 411 393.004 411 c 2
 470.604 411 l 2
 479.403 411 482.699 406 481.288 396 c 0
 480.442 390 474.655 366 464.21 360 c 0
 461.668 359 458.469 359 456.068 359 c 2
 384.868 359 l 2
 379.269 359 377.904 355 376.916 348 c 2
 336.009 58 l 2
 332.906 36 341.188 38 380.624 34 c 0
 390.082 33 392.295 26 390.461 13 c 0
 389.05 3 384.722 -5 376.722 -5 c 0
 368.722 -5 347.027 0 302.228 0 c 0
 261.428 0 228.722 -5 226.322 -5 c 0
 218.322 -5 217.05 3 218.18 11 c 0
 221.142 32 226.601 31 253.847 37 c 0
 264.67 40 269.047 37 274.881 50 c 0
 278.55 59 284.664 91 286.075 101 c 2
 321.999 350 l 2
 322.846 356 321.81 360 314.61 360 c 2
 195.41 360 l 2
 189.01 360 184.868 359 183.458 349 c 2
 142.691 60 l 1
 142.409 58 l 2
 141.281 50 140.528 39 153.847 37 c 0
 186.224 34 198.788 38 195.402 14 c 0
 193.85 3 190.182 -6 182.182 -6 c 0
 180.581 -6 149.428 0 111.027 0 c 0
 71.0273 0 40.5811 -6 38.1807 -6 c 0
 28.5811 -6 29.332 5 31.0254 17 c 0
 33.9883 38 42.6006 31 69.3281 39 c 0
 82.6934 43 84.7158 46 105.029 190 c 2
 127.599 350 l 2
 128.868 359 125.01 360 119.41 360 c 2
 88.21 360 l 2
 81.8096 360 72.4922 362 74.8896 379 c 0
 78.2754 403 85.8037 411 95.4033 411 c 2
 129.004 411 l 2
 138.604 411 133.332 419 145.608 472 c 1
 164.188 547 196.84 614 242.481 654 c 0
 282.76 690 334.477 705 363.276 705 c 0
 409.677 705 420.598 669 421.915 667 c 1
 424.314 667 l 2
EndSplineSet
Ligature2: "'liga' Standard Ligatures in Latin lookup 1 per glyph data 0" f f l
EndChar

StartChar: circumflex.cap
Encoding: 65542 -1 292
Width: 241
GlyphClass: 2
Flags: HW
HStem: 804 79<106.641 159.173>
VStem: 36.1657 194.4<742 755>
LayerCount: 2
Fore
SplineSet
37.5156 732 m 0
 27.916 732 26.9258 742 27.4902 746 c 0
 28.7598 755 28.3369 752 112.23 859 c 0
 118.158 867 130.815 883 146.016 883 c 0
 154.016 883 158.251 879 164.041 869 c 0
 222.219 754 223.301 756 222.031 747 c 0
 221.185 741 215.916 732 207.116 732 c 0
 199.116 732 192.244 740 188.29 746 c 0
 150.779 792 144.472 804 133.272 804 c 0
 112.472 804 56.7158 732 37.5156 732 c 0
EndSplineSet
EndChar

StartChar: acute.cap
Encoding: 65543 -1 293
Width: 253
GlyphClass: 2
Flags: HW
HStem: 730 169
VStem: 41.5381 198.4
LayerCount: 2
Fore
SplineSet
219.857 899 m 0
 236.657 899 249.742 884 246.779 863 c 0
 242.688 834 219.537 823 207.351 816 c 0
 52.1592 731 52.8184 730 45.6182 730 c 0
 37.6182 730 30.7471 738 32.4395 750 c 0
 33.8506 760 40.5791 768 51.3066 776 c 2
 175.813 876 l 2
 187.624 886 203.857 899 219.857 899 c 0
EndSplineSet
EndChar

StartChar: grave.cap
Encoding: 65544 -1 294
Width: 253
GlyphClass: 2
Flags: HW
HStem: 730 169
VStem: 41.465 198.4
LayerCount: 2
Fore
SplineSet
48.3066 863 m 0
 51.4092 885 67.7842 899 84.585 899 c 0
 101.385 899 113.95 886 122.94 876 c 0
 229.682 765 226.906 768 229.26 762 c 0
 230.295 758 231.33 754 230.625 749 c 0
 228.933 737 219.945 730 211.945 730 c 2
 211.146 730 l 2
 204.746 730 204.886 731 74.4766 816 c 0
 67.1826 821 44.0742 833 48.3066 863 c 0
EndSplineSet
EndChar

StartChar: breve.cap
Encoding: 65545 -1 295
Width: 293
GlyphClass: 2
Flags: HW
HStem: 728 65<113.139 214.371>
VStem: 46.8855 234.4<834 848>
LayerCount: 2
Fore
SplineSet
163.474 793 m 0
 216.273 793 261.866 861 270.666 861 c 0
 279.466 861 288.973 849 287.563 839 c 0
 286.857 834 223.104 728 155.904 728 c 2
 152.705 728 l 2
 85.5049 728 52.457 834 53.1631 839 c 0
 54.4326 848 65.0664 861 75.4658 861 c 0
 85.0664 861 110.674 793 163.474 793 c 0
EndSplineSet
EndChar

StartChar: longs_i
Encoding: 65546 -1 296
Width: 422
GlyphClass: 3
Flags: HW
HStem: -6 44<243.2 303.137 359.666 411.884> -6 45<55.96 105.121 163.468 225.376> 360 50<58.188 107.6> 421 20<348.291 353.491> 656 65<230.72 330.237>
VStem: 108.691 54.4<115.416 360> 303.891 53.6<39.1511 336.573>
LayerCount: 2
Fore
SplineSet
174.164 436 m 0x7e
 172.048 421 173.836 428 164.526 362 c 2
 130.389 120 l 2
 127.991 103 125.216 89 123.664 78 c 0
 118.868 44 120.421 38 134.681 37 c 2
 170.116 33 l 2
 176.517 33 178.447 24 177.036 14 c 0
 175.625 4 170.215 -6 161.415 -6 c 0
 159.015 -6 128.661 0 90.2607 0 c 0
 51.0615 0 19.0146 -6 16.6152 -6 c 0
 6.21484 -6 6.58984 8 8.1416 19 c 0
 10.2568 34 20.5166 33 48.5625 39 c 0
 64.9863 42 64.7959 52 107.351 348 c 0
 108.62 357 108.902 359 99.4434 360 c 1
 73.8428 360 l 2
 61.8428 360 58.8311 367 60.3818 378 c 0
 64.6143 408 77.4141 408 80.6143 408 c 2
 109.696 410 l 2
 120.097 410 112.188 439 143.519 525 c 0
 204.111 688 306.367 721 354.367 721 c 0
 389.566 721 411.404 700 407.031 669 c 0
 403.787 646 385.39 629 366.989 629 c 2
 366.189 629 l 2
 339.789 629 325.198 656 295.598 656 c 0
 229.998 656 186.719 525 174.164 436 c 0x7e
EndSplineSet
Refer: 203 305 S 1 0 0 1 187.2 0 2
Ligature2: "'liga' Standard Ligatures in Latin lookup 1 per glyph data 3" longs i
EndChar

StartChar: caron.cap
Encoding: 65547 -1 297
Width: 246
GlyphClass: 2
Flags: HW
HStem: 732 79<111.737 164.371>
VStem: 40.4458 194.4<860 874>
LayerCount: 2
Fore
SplineSet
233.495 883 m 0
 239.096 883 244.649 877 243.521 869 c 0
 242.251 860 242.675 863 158.781 756 c 0
 152.853 748 140.196 732 124.996 732 c 0
 116.996 732 112.76 736 106.971 746 c 0
 51.2871 856 47.7109 859 48.9805 868 c 0
 49.8262 874 55.0957 883 63.8955 883 c 0
 71.8955 883 78.7676 875 82.7207 869 c 0
 119.433 823 126.539 811 137.739 811 c 0
 158.539 811 214.295 883 233.495 883 c 0
EndSplineSet
EndChar

StartChar: longs_longs
Encoding: 65548 -1 298
Width: 409
GlyphClass: 3
Flags: HW
HStem: -6 43<65.492 111.932 171.085 230.969 240.035 292.279 350.276 411.769> 360 51<74.2978 113.515 254.297 293.497> 630 90<436.914 512.461> 643 62<223.033 299.586> 655 12<355.076 356.676>
VStem: 115.076 56<37.75 360 411 549.823> 253.476 96.8<360 411> 295.076 55.2<38.4201 360 411 581.069>
LayerCount: 2
Fore
SplineSet
302.504 421 m 0xce
 322.676 564 357.776 603 359.329 614 c 0
 359.611 616 358.952 617 356.552 617 c 2
 354.152 617 l 2
 330.152 617 316.22 643 288.22 643 c 0
 226.62 643 192.563 515 182.125 441 c 2
 179.727 424 l 2
 178.599 416 171.358 359 169.948 349 c 2
 129.039 59 l 2
 125.514 34 138.595 36 171.771 33 c 0
 181.23 32 183.961 23 182.551 13 c 0
 181.281 4 175.87 -6 169.471 -6 c 0
 167.07 -6 136.717 0 97.5166 0 c 0
 58.3164 0 27.0703 -6 24.6709 -6 c 0
 16.6709 -6 15.54 3 17.5146 17 c 0
 19.7715 33 24.4307 32 49.9355 37 c 0
 68.1006 41 70.0771 38 88.5566 169 c 2
 114.088 350 l 2
 115.357 359 111.499 360 105.899 360 c 2
 90.6992 360 l 2
 78.6992 360 75.3096 370 76.8613 381 c 0
 77.708 387 83.4932 411 97.8926 411 c 2
 115.493 411 l 2
 121.093 411 121.657 415 122.504 421 c 0
 147.19 596 249.765 705 336.965 705 c 0xd6
 386.564 705 389.205 667 397.205 667 c 0xce
 400.404 667 451.081 720 517.481 720 c 0
 559.081 720 568.449 690 565.628 670 c 0
 562.948 651 550.387 630 527.986 630 c 0xe6
 502.387 630 488.312 655 462.713 655 c 0
 397.112 655 370.071 503 363.159 454 c 2
 358.645 422 l 2
 355.118 397 352.532 373 349.006 348 c 2
 308.099 58 l 2
 305.136 37 311.678 38 352.714 34 c 0
 362.172 33 364.761 23 363.352 13 c 0
 362.363 6 358.412 -5 348.812 -5 c 0
 340.012 -5 321.517 0 274.316 0 c 0
 239.116 0 216.012 -5 203.212 -5 c 0
 192.812 -5 189.234 -2 190.927 10 c 0
 194.172 33 199.49 31 225.936 37 c 0
 243.3 41 248.714 34 258.164 101 c 0
 287.035 300 290.562 325 294.089 350 c 0xcd
 295.358 359 291.499 360 285.899 360 c 2
 270.699 360 l 2
 258.699 360 255.31 370 256.86 381 c 0
 257.708 387 263.492 411 277.893 411 c 2
 295.492 411 l 2
 301.093 411 301.657 415 302.504 421 c 0xce
EndSplineSet
Ligature2: "'liga' Standard Ligatures in Latin lookup 1 per glyph data 3" longs longs
EndChar

StartChar: longs_l
Encoding: 65549 -1 299
Width: 407
GlyphClass: 3
Flags: HW
HStem: -5 43<48.3481 97.4533 156.692 218.628 232.305 286.574 346.293 401.009> 360 50<52.8745 99.4588> 656 64<200.639 289.117>
VStem: 101.084 55.2<114.998 360 409.156 575.581> 287.484 58.4<39.4737 633.725>
LayerCount: 2
Fore
SplineSet
157.342 366 m 2
 116.716 78 l 2
 112.062 45 112.674 38 126.933 37 c 2
 162.368 33 l 2
 168.768 33 171.499 24 170.229 15 c 0
 168.818 5 162.467 -6 153.667 -6 c 0
 152.067 -6 120.913 0 82.5137 0 c 0
 43.3135 0 11.2666 -6 8.86621 -6 c 0
 -0.733398 -6 -1.1582 8 0.393555 19 c 0
 2.65039 35 11.9688 33 41.6143 39 c 0
 57.2383 42 56.7666 50 99.8848 350 c 0
 100.872 357 100.354 359 91.6953 360 c 1
 69.2959 360 l 2
 56.4951 360 53.4834 367 55.1758 379 c 0
 59.2666 408 72.8662 408 76.0664 408 c 2
 101.949 410 l 2
 106.749 410 107.172 413 107.736 417 c 2
 108.019 419 l 2
 118.598 494 148.086 652 261.303 706 c 0
 274.149 712 297.678 720 319.277 720 c 0
 344.878 720 349.49 713 359.09 713 c 0
 369.49 713 378.9 723 386.101 723 c 0
 394.9 723 396.032 714 394.621 704 c 2
 305.046 69 l 2
 300.956 40 309.098 41 341.71 34 c 0
 351.028 32 354.181 26 352.488 14 c 0
 350.372 -1 348.208 -5 338.607 -5 c 0
 327.408 -5 306.514 0 264.913 0 c 0
 228.113 0 205.808 -5 194.607 -5 c 0
 183.408 -5 181.572 -1 183.829 15 c 0
 186.792 36 193.71 34 219.873 38 c 0
 242.697 41 245.095 58 248.058 79 c 2
 315.625 558 l 2
 320.139 590 325.829 636 287.285 652 c 0
 282.108 655 276.649 656 271.05 656 c 0
 212.649 656 181.086 540 166.134 434 c 2
 165.429 429 l 2
 163.312 414 165.946 427 157.342 366 c 2
EndSplineSet
Ligature2: "'liga' Standard Ligatures in Latin lookup 1 per glyph data 3" longs l
EndChar

